<?xml version="1.0" encoding="utf-8"?>
<!-- Generator: Adobe Illustrator 17.0.2, SVG Export Plug-In . SVG Version: 6.00 Build 0)  -->
<!DOCTYPE svg PUBLIC "-//W3C//DTD SVG 1.1//EN" "http://www.w3.org/Graphics/SVG/1.1/DTD/svg11.dtd">
<svg version="1.1" id="Layer_1" xmlns="http://www.w3.org/2000/svg" xmlns:xlink="http://www.w3.org/1999/xlink" x="0px" y="0px"
	 width="48px" height="48px" viewBox="0 0 48 48" enable-background="new 0 0 48 48" xml:space="preserve">
<path fill="#FCB315" d="M24,0C10.745,0,0,10.745,0,24c0,13.255,10.745,24,24,24c13.255,0,24-10.745,24-24C48,10.745,37.255,0,24,0z
	 M35.729,28.243c0,0-6.486-1.081-10.81-1.081c-4.324,0-6.486-2.162-6.486-2.162v12.972h-2.162V12.028h2.162v2.162
	c0,0,2.162,2.162,6.486,2.162c4.328,0,10.81,1.081,10.81,1.081l-3.243,5.405L35.729,28.243z"/>
</svg>
