<?xml version="1.0" encoding="utf-8"?>
<!-- Generator: Adobe Illustrator 17.0.2, SVG Export Plug-In . SVG Version: 6.00 Build 0)  -->
<!DOCTYPE svg PUBLIC "-//W3C//DTD SVG 1.1//EN" "http://www.w3.org/Graphics/SVG/1.1/DTD/svg11.dtd">
<svg version="1.1" id="Layer_1" xmlns="http://www.w3.org/2000/svg" xmlns:xlink="http://www.w3.org/1999/xlink" x="0px" y="0px"
	 width="48px" height="48px" viewBox="0 0 48 48" enable-background="new 0 0 48 48" xml:space="preserve">
<path fill="#D02227" d="M24,0C10.745,0,0,10.745,0,24c0,13.255,10.745,24,24,24c13.255,0,24-10.745,24-24C48,10.745,37.255,0,24,0z
	 M32.57,36.323l-8.731-8.731l-8.731,8.731l-1.324-1.324c-1.253-1.253-1.253-3.284,0-4.537L20.247,24l-8.408-8.408l3.592-3.592
	l8.409,8.408l8.731-8.731l1.324,1.324c1.253,1.253,1.253,3.284,0,4.537L27.431,24l8.731,8.731L32.57,36.323z"/>
</svg>
