<?xml version="1.0" encoding="UTF-8" standalone="no"?>
<!-- Generator: Adobe Illustrator 17.0.2, SVG Export Plug-In . SVG Version: 6.00 Build 0)  -->

<svg
   xmlns:dc="http://purl.org/dc/elements/1.1/"
   xmlns:cc="http://creativecommons.org/ns#"
   xmlns:rdf="http://www.w3.org/1999/02/22-rdf-syntax-ns#"
   xmlns:svg="http://www.w3.org/2000/svg"
   xmlns="http://www.w3.org/2000/svg"
   xmlns:sodipodi="http://sodipodi.sourceforge.net/DTD/sodipodi-0.dtd"
   xmlns:inkscape="http://www.inkscape.org/namespaces/inkscape"
   version="1.1"
   id="Layer_1"
   x="0px"
   y="0px"
   width="48px"
   height="48px"
   viewBox="282 372 48 48"
   enable-background="new 282 372 48 48"
   xml:space="preserve"
   inkscape:version="0.91 r13725"
   sodipodi:docname="launcher.noflip.svg"><metadata
     id="metadata14"><rdf:RDF><cc:Work
         rdf:about=""><dc:format>image/svg+xml</dc:format><dc:type
           rdf:resource="http://purl.org/dc/dcmitype/StillImage" /></cc:Work></rdf:RDF></metadata><defs
     id="defs12" /><sodipodi:namedview
     pagecolor="#ffffff"
     bordercolor="#666666"
     borderopacity="1"
     objecttolerance="10"
     gridtolerance="10"
     guidetolerance="10"
     inkscape:pageopacity="0"
     inkscape:pageshadow="2"
     inkscape:window-width="1552"
     inkscape:window-height="964"
     id="namedview10"
     showgrid="false"
     inkscape:zoom="6.9532167"
     inkscape:cx="-10.829518"
     inkscape:cy="43.110314"
     inkscape:window-x="0"
     inkscape:window-y="0"
     inkscape:window-maximized="0"
     inkscape:current-layer="Layer_1" /><g
     id="g3"><path
       d="m 288.196,374.4 35.608,0 c 1.87889,0 3.796,1.91711 3.796,3.796 l 0,35.608 c 0,1.9508 -1.91711,3.796 -3.796,3.796 l -35.608,0 c -1.91484,0 -3.796,-1.79127 -3.796,-3.796 l 0,-35.608 c 0,-1.87889 1.91711,-3.796 3.796,-3.796 z"
       id="path5"
       inkscape:connector-curvature="0"
       style="fill:#f9f9f9"
       sodipodi:nodetypes="sssssssss" /><g
       id="g7"><path
         id="letterw_1_"
         fill="#333333"
         d="M322.312,388.168c0,0.1,0,0.2-0.1,0.399c-0.1,0.1-0.2,0.2-0.299,0.2    c-0.698,0.1-1.297,0.299-1.696,0.698c-0.499,0.399-0.898,1.197-1.397,2.295l-7.383,16.761c-0.1,0.2-0.2,0.299-0.399,0.299    c-0.2,0-0.299-0.1-0.399-0.299l-4.091-8.78l-4.889,8.78c-0.1,0.2-0.299,0.299-0.399,0.299c-0.2,0-0.399-0.1-0.499-0.299    l-7.183-16.761c-0.499-0.998-0.898-1.696-1.397-2.195c-0.499-0.499-1.297-0.599-2.195-0.698c-0.1,0-0.2,0-0.2-0.1    c-0.1-0.1-0.1-0.2-0.1-0.299c0-0.299,0.1-0.399,0.299-0.399c0.599,0,1.397,0,1.995,0.1c0.599,0.1,1.297,0.1,1.796,0.1    c0.599,0,1.297,0,2.095-0.1c0.798-0.1,1.497-0.1,2.295-0.1c0.2,0,0.299,0.1,0.299,0.399s-0.1,0.399-0.2,0.399    c-0.599,0.1-1.197,0.2-1.497,0.499c-0.399,0.299-0.499,0.599-0.499,1.097c0,0.299,0.1,0.499,0.299,0.898l5.986,13.369l3.392-6.485    l-3.193-6.685c-0.499-1.197-0.998-1.995-1.397-2.295c-0.399-0.399-0.898-0.499-1.596-0.599c-0.1,0-0.1,0-0.2-0.1    s-0.1-0.2-0.1-0.299c0-0.299,0.1-0.399,0.2-0.399c0.599,0,1.297,0,1.796,0.1c0.499,0.1,1.097,0.1,1.596,0.1s1.197,0,1.796-0.1    c0.599-0.1,1.397-0.1,1.995-0.1c0.2,0,0.299,0.1,0.299,0.399c0,0.299,0,0.399-0.2,0.399c-1.297,0.1-1.896,0.499-1.896,1.097    c0,0.299,0.2,0.698,0.499,1.397l2.095,4.19l2.095-3.891c0.299-0.499,0.499-0.998,0.499-1.397c0-0.898-0.599-1.397-1.896-1.397    c-0.1,0-0.2-0.1-0.2-0.399c0-0.1,0-0.2,0.1-0.299s0.1-0.1,0.2-0.1c0.499,0,0.998,0,1.696,0.1c0.599,0.1,1.197,0.1,1.596,0.1    c0.299,0,0.698,0,1.397-0.1c0.698-0.1,1.397-0.1,1.796-0.1c0.1,0,0.2,0.1,0.2,0.399c0,0.299-0.1,0.499-0.399,0.499    c-0.698,0.1-1.397,0.299-1.796,0.599c-0.499,0.399-0.998,1.097-1.696,2.295l-2.794,5.188l3.791,7.782l5.587-12.97    c0.2-0.499,0.299-0.898,0.299-1.297c0-0.898-0.599-1.397-1.896-1.497c-0.1,0-0.2-0.1-0.2-0.399s0.1-0.399,0.299-0.399    c0.499,0,0.998,0,1.696,0.1c0.599,0.1,1.097,0.1,1.497,0.1s0.898,0,1.397-0.1C321.414,388.068,321.813,388.168,322.312,388.168    C322.312,387.869,322.312,387.969,322.312,388.168z" /></g></g></svg>