<?xml version="1.0" encoding="utf-8"?>
<!-- Generator: Adobe Illustrator 18.0.0, SVG Export Plug-In . SVG Version: 6.00 Build 0)  -->
<!DOCTYPE svg PUBLIC "-//W3C//DTD SVG 1.1//EN" "http://www.w3.org/Graphics/SVG/1.1/DTD/svg11.dtd">
<svg version="1.1" id="Layer_1" xmlns="http://www.w3.org/2000/svg" xmlns:xlink="http://www.w3.org/1999/xlink" x="0px" y="0px"
	 viewBox="0 88.5 612 612" enable-background="new 0 88.5 612 612" xml:space="preserve">
<g>
	<path fill="#DDDDDD" d="M514,697.6H98c-52.2,0-94.6-42.3-94.6-94.6V187c0-52.2,42.3-94.6,94.6-94.6h416c52.2,0,94.6,42.3,94.6,94.6
		v416C608.6,655.3,566.3,697.6,514,697.6z"/>
	<path fill="#FFFFFF" stroke="#BBBBBB" stroke-width="5.9334" stroke-miterlimit="10" d="M514,676.3H98c-52.2,0-94.6-42.3-94.6-94.6
		V187c0-52.2,42.3-94.6,94.6-94.6h416c52.2,0,94.6,42.3,94.6,94.6v394.8C608.6,634,566.3,676.3,514,676.3z"/>
	<g>
		<ellipse fill="#FFFFFF" cx="469.3" cy="265.4" rx="73.4" ry="77.2"/>
		<g id="beta_2_">
			<g>
				<path fill="#FF5D00" d="M472.3,361.1c-54,0-98-44-98-98s44-98,98-98s98,44,98,98S526.4,361.1,472.3,361.1z M472.3,300.4
					l7.1-20.1l19.2,9.1l-9.1-19.2l20.1-7.1l-20.1-7.1l9.1-19.2l-19.2,9.1l-7.1-20.1l-7.1,20.1l-19.2-9.1l9.1,19.2l-20.1,7.1
					l20.1,7.1l-9.1,19.2l19.2-9.1L472.3,300.4z"/>
				<path fill="#FFFFFF" d="M472.3,173.3c49.6,0,89.8,40.2,89.8,89.8s-40.2,89.8-89.8,89.8s-89.8-40.2-89.8-89.8
					S422.7,173.3,472.3,173.3 M460.5,234.6l-31.9-15.1l15.1,31.9l-33.2,11.8l33.2,11.8l-15.1,31.9l31.9-15.1l11.8,33.2l11.8-33.2
					l31.9,15.1L500.9,275l33.2-11.8l-33.2-11.8l15.1-31.9l-31.9,15.1l-11.8-33.2L460.5,234.6 M472.3,156.9
					c-14.3,0-28.2,2.8-41.4,8.4c-12.7,5.4-24,13-33.8,22.8s-17.4,21.1-22.8,33.8c-5.5,13.1-8.4,27-8.4,41.4
					c0,14.3,2.8,28.2,8.4,41.4c5.4,12.7,13,24,22.8,33.8s21.1,17.4,33.8,22.8c13.1,5.5,27,8.4,41.4,8.4c14.3,0,28.2-2.8,41.4-8.4
					c12.7-5.4,24-13,33.8-22.8s17.4-21.1,22.8-33.8c5.5-13.1,8.4-27,8.4-41.4c0-14.3-2.8-28.2-8.4-41.4c-5.4-12.7-13-24-22.8-33.8
					s-21.1-17.4-33.8-22.8C500.6,159.7,486.7,156.9,472.3,156.9L472.3,156.9z M469.9,257.2l2.4-6.9l2.4,6.9l6.6-3.1l-3.1,6.6
					l6.9,2.4l-6.9,2.4l3.1,6.6l-6.6-3.1l-2.4,6.9l-2.4-6.9l-6.6,3.1l3.1-6.6l-6.9-2.4l6.9-2.4l-3.1-6.6L469.9,257.2L469.9,257.2z"/>
			</g>
		</g>
	</g>
</g>
<rect x="2706.6" y="-240.9" fill="#FFFFFF" width="17.9" height="34.1"/>
<path fill="#333333" d="M440.3,365.7l-64.1,149.1l-53-107.9l39.1-72.3c5.3-9.3,10.1-16.7,14.4-22.3c-1.4-2.6-2.6-5.3-3.8-8
	c-2.7-6.4-4.8-13.1-6.2-19.8c-5.4-0.1-11.9-0.5-19.5-1.2c-9.5-0.8-17.5-1.2-24-1.2c-0.8,0-1.6,0.6-2.5,1.9c-0.8,1.2-1.2,2.5-1.2,3.9
	c0,3.8,0.8,5.7,2.5,5.7c18.2,0.8,27.3,7.5,27.3,20c0,5.3-2.1,11.8-6.1,19.6L313.9,388l-29.5-59.9c-4.2-8.5-6.3-14.9-6.3-18.9
	c0-9.1,9.1-14.3,27.3-15.5c1.4,0,2-1.9,2-5.7c0-3.8-1.1-5.7-3.3-5.7c-9.1,0-18.3,0.4-27.7,1.2c-9.1,0.8-17.7,1.2-25.8,1.2
	c-8.3,0-16.1-0.4-23.4-1.2c-7.6-0.8-15.9-1.2-25-1.2c-1.9,0-2.9,1.9-2.9,5.7c0,1.5,0.4,2.8,1.3,3.9c0.9,1.2,1.8,1.7,2.7,1.7
	c10.5,1.1,18.3,4.1,23.4,8.9c5.2,4.8,11.8,15.6,19.8,32.3l44.6,93.5l-47.9,90.4L158.9,328c-2.2-4.9-3.3-8.9-3.3-12.2
	c0-6.4,2.6-11.6,7.8-15.5s12.4-6.2,21.5-6.9c1.3,0,2-1.9,2-5.7c0-3.8-1.1-5.7-3.3-5.7c-9.1,0-19.6,0.4-31.4,1.2
	c-11.3,0.8-21.1,1.2-29.3,1.2c-8.1,0-16.8-0.4-26-1.2c-9.9-0.8-19.4-1.2-28.5-1.2c-2.2,0-3.3,1.9-3.3,5.7c0,1.5,0.5,2.8,1.4,3.9
	c0.9,1.2,2,1.7,3.1,1.7c12.6,1.4,22.5,5,29.5,10.7c7.1,5.8,13.8,15.9,20.2,30.4l102,234c1,2.2,2.9,3.3,5.9,3.3
	c2.5,0,4.3-1.1,5.7-3.3l67-121.8l58.2,121.8c1.4,2.2,3.3,3.3,5.7,3.3c3.1,0,5-1.1,5.7-3.3l88.2-198.8
	C451.9,368.9,446.1,367.6,440.3,365.7z"/>
</svg>
