<?xml version="1.0" encoding="iso-8859-1"?>
<!-- Generator: Adobe Illustrator 17.1.0, SVG Export Plug-In . SVG Version: 6.00 Build 0)  -->
<!DOCTYPE svg PUBLIC "-//W3C//DTD SVG 1.1//EN" "http://www.w3.org/Graphics/SVG/1.1/DTD/svg11.dtd">
<svg version="1.1" id="Layer_1" xmlns="http://www.w3.org/2000/svg" xmlns:xlink="http://www.w3.org/1999/xlink" x="0px" y="0px"
	 viewBox="0 0 1024 1024" style="enable-background:new 0 0 1024 1024;" xml:space="preserve">
<linearGradient id="SVGID_1_" gradientUnits="userSpaceOnUse" x1="182.0132" y1="841.9868" x2="1013.086" y2="10.914">
	<stop  offset="0" style="stop-color:#FFFFFF"/>
	<stop  offset="0.5827" style="stop-color:#E8E8E8"/>
	<stop  offset="1" style="stop-color:#DDDDDD"/>
</linearGradient>
<rect style="fill:url(#SVGID_1_);" width="1024" height="1024"/>
<g>
	<g>
		<path style="fill:#333333;" d="M566.222,323.395c20.044,0.742,41.572,1.485,58.646,1.485c17.075,0,35.633-0.743,54.192-1.485
			c4.454,4.454,4.454,20.044,0,24.497c-38.603,5.94-54.934,34.148-72.973,69.039l-54.266,103.262l94.947,196.649h3.415
			l140.974-305.107c17.593-40.161,16.332-60.13-31.922-63.842c-4.453-4.453-4.453-20.043,0-24.497
			c27.468,0.742,56.42,1.485,73.493,1.485c17.075,0,41.572-0.743,65.327-1.485c4.454,4.454,4.454,20.044,0,24.497
			c-42.314,4.454-56.492,33.48-72.973,69.039L649.367,795.532c-5.197,11.135-9.651,17.073-17.817,17.073
			c-7.424,0-13.14-6.012-17.074-17.073l-99.847-215.505L405.132,795.532c-4.453,11.135-9.65,17.073-17.817,17.073
			c-7.423,0-12.619-5.938-17.074-17.073L208.78,415.447c-22.642-52.707-28.06-64.808-66.44-67.555
			c-4.454-4.453-5.196-20.043-0.743-24.497c25.983,0.742,52.485,1.485,77.205,1.485c22.493,0,52.707-0.743,82.401-1.485
			c4.454,4.454,4.454,20.044,0,24.497c-46.768,5.197-48.996,17.075-30.14,59.389l135.924,309.561h3.415l82.921-168.662
			l-62.58-132.733c-24.868-52.707-30.808-63.1-62.729-67.555c-4.453-4.453-5.196-20.043-0.742-24.497
			c21.528,0.742,44.318,1.485,66.069,1.485c23.533,0,46.025-0.743,67.555-1.485c4.453,4.454,4.453,20.044,0,24.497
			c-31.179,4.454-28.21,17.075-7.869,59.389l36.524,74.977l3.267,3.341l39.345-73.865c23.012-43.056,25.981-59.388-5.94-63.842
			C561.769,343.439,561.769,327.849,566.222,323.395z"/>
	</g>
</g>
</svg>
