<?xml version="1.0" encoding="iso-8859-1"?>
<!-- Generator: Adobe Illustrator 17.1.0, SVG Export Plug-In . SVG Version: 6.00 Build 0)  -->
<!DOCTYPE svg PUBLIC "-//W3C//DTD SVG 1.1//EN" "http://www.w3.org/Graphics/SVG/1.1/DTD/svg11.dtd">
<svg version="1.1" id="Layer_1" xmlns="http://www.w3.org/2000/svg" xmlns:xlink="http://www.w3.org/1999/xlink" x="0px" y="0px"
	 viewBox="0 0 1024 1024" style="enable-background:new 0 0 1024 1024;" xml:space="preserve">
<g>
	<path style="fill:#DDDDDD;" d="M860.09,1018.313H163.91c-87.384,0-158.223-70.839-158.223-158.223V163.91
		C5.687,76.526,76.526,5.687,163.91,5.687h696.18c87.384,0,158.223,70.839,158.223,158.223v696.18
		C1018.313,947.474,947.474,1018.313,860.09,1018.313z"/>
	<path style="fill:#FFFFFF;stroke:#BBBBBB;stroke-width:5.9334;stroke-miterlimit:10;" d="M860.09,982.713H163.91
		c-87.384,0-158.223-70.839-158.223-158.223V163.91C5.687,76.526,76.526,5.687,163.91,5.687h696.18
		c87.384,0,158.223,70.839,158.223,158.223v660.58C1018.313,911.874,947.474,982.713,860.09,982.713z"/>
	<path style="fill:#333333;" d="M549.618,324.771c19.821,0.734,41.11,1.469,57.994,1.469c16.885,0,35.238-0.735,53.59-1.469
		c4.405,4.405,4.405,19.821,0,24.225c-38.174,5.874-54.324,33.769-72.163,68.272l-53.663,102.115l93.892,194.464h3.377
		l139.408-301.718c17.398-39.715,16.15-59.462-31.568-63.133c-4.404-4.404-4.404-19.82,0-24.225
		c27.163,0.734,55.793,1.469,72.677,1.469c16.885,0,41.11-0.735,64.602-1.469c4.405,4.405,4.405,19.821,0,24.225
		c-41.844,4.405-55.865,33.108-72.163,68.272L631.838,791.664c-5.139,11.011-9.544,16.884-17.619,16.884
		c-7.341,0-12.994-5.946-16.884-16.884l-98.738-213.111L390.317,791.664c-4.404,11.011-9.543,16.884-17.619,16.884
		c-7.34,0-12.479-5.872-16.884-16.884L196.145,415.801c-22.39-52.122-27.749-64.088-65.702-66.804
		c-4.405-4.404-5.139-19.82-0.735-24.225c25.694,0.734,51.902,1.469,76.348,1.469c22.243,0,52.122-0.735,81.486-1.469
		c4.405,4.405,4.405,19.821,0,24.225c-46.249,5.139-48.451,16.885-29.805,58.729l134.414,306.122h3.377l82-166.789l-61.885-131.258
		c-24.592-52.122-30.465-62.399-62.032-66.804c-4.404-4.404-5.139-19.82-0.734-24.225c21.289,0.734,43.826,1.469,65.335,1.469
		c23.272,0,45.514-0.735,66.804-1.469c4.404,4.405,4.404,19.821,0,24.225c-30.833,4.405-27.896,16.885-7.782,58.729l36.118,74.144
		l3.23,3.304l38.908-73.044c22.757-42.578,25.693-58.728-5.874-63.133C545.214,344.592,545.214,329.176,549.618,324.771z"/>
	<g>
		<ellipse style="fill:#FFFFFF;" cx="785.214" cy="295.102" rx="122.73" ry="129.189"/>
		<g id="beta_2_">
			<g>
				<path style="fill:#FF5D00;" d="M790.305,455.339c-90.432,0-164.004-73.572-164.004-164.003s73.572-164.003,164.004-164.003
					s164.003,73.572,164.003,164.003S880.736,455.339,790.305,455.339z M790.305,353.693l11.932-33.554l32.158,15.287
					l-15.287-32.157l33.555-11.933l-33.555-11.933l15.287-32.157l-32.158,15.287l-11.932-33.554l-11.934,33.554l-32.156-15.287
					l15.286,32.157l-33.554,11.933l33.554,11.933l-15.286,32.157l32.156-15.287L790.305,353.693z"/>
				<path style="fill:#FFFFFF;" d="M790.304,141.061c82.996,0,150.274,67.278,150.274,150.274S873.3,441.609,790.304,441.609
					s-150.274-67.278-150.274-150.274S707.309,141.061,790.304,141.061 M770.532,243.603l-53.294-25.334l25.334,53.294
					l-55.601,19.773l55.601,19.773l-25.334,53.294l53.294-25.334l19.773,55.601l19.773-55.601l53.294,25.334l-25.334-53.294
					l55.601-19.773l-55.601-19.773l25.334-53.294l-53.294,25.334l-19.773-55.601L770.532,243.603 M790.304,113.602
					c-23.982,0-47.261,4.703-69.191,13.978c-21.168,8.953-40.172,21.764-56.486,38.078c-16.314,16.314-29.125,35.318-38.078,56.486
					c-9.275,21.93-13.978,45.209-13.978,69.191s4.703,47.261,13.978,69.191c8.953,21.168,21.764,40.172,38.078,56.486
					c16.314,16.314,35.318,29.125,56.486,38.078c21.929,9.275,45.209,13.978,69.191,13.978s47.261-4.703,69.191-13.978
					c21.168-8.953,40.172-21.764,56.486-38.078c16.314-16.314,29.125-35.318,38.078-56.486
					c9.275-21.929,13.978-45.209,13.978-69.191s-4.703-47.261-13.978-69.191c-8.953-21.168-21.764-40.172-38.078-56.486
					c-16.314-16.314-35.318-29.125-56.486-38.078C837.566,118.305,814.287,113.602,790.304,113.602L790.304,113.602z
					 M786.212,281.461l4.092-11.507l4.092,11.507l11.021-5.239l-5.239,11.021l11.508,4.092l-11.508,4.092l5.239,11.021
					l-11.021-5.239l-4.092,11.508l-4.092-11.508l-11.021,5.239l5.239-11.021l-11.508-4.092l11.508-4.092l-5.239-11.021
					L786.212,281.461L786.212,281.461z"/>
			</g>
		</g>
	</g>
</g>
<rect x="4527" y="-552" style="fill:#FFFFFF;" width="30" height="57"/>
</svg>
