<?xml version="1.0" encoding="utf-8"?>
<!-- Generator: Adobe Illustrator 17.1.0, SVG Export Plug-In . SVG Version: 6.00 Build 0)  -->
<!DOCTYPE svg PUBLIC "-//W3C//DTD SVG 1.1//EN" "http://www.w3.org/Graphics/SVG/1.1/DTD/svg11.dtd">
<svg version="1.1" id="Layer_1" xmlns="http://www.w3.org/2000/svg" xmlns:xlink="http://www.w3.org/1999/xlink" x="0px" y="0px"
	 viewBox="0 89.5 469 469" enable-background="new 0 89.5 469 469" xml:space="preserve">
<rect y="89.5" fill="#EEEEEE" width="469" height="469"/>
<g>
	<g>
		<path fill="#333333" d="M259.3,237.6c9.2,0.3,19,0.7,26.9,0.7c7.8,0,16.3-0.3,24.8-0.7c2,2,2,9.2,0,11.2
			c-17.7,2.7-25.2,15.6-33.4,31.6l-24.9,47.3l43.5,90.1h1.6l64.6-139.7c8.1-18.4,7.5-27.5-14.6-29.2c-2-2-2-9.2,0-11.2
			c12.6,0.3,25.8,0.7,33.7,0.7c7.8,0,19-0.3,29.9-0.7c2,2,2,9.2,0,11.2c-19.4,2-25.9,15.3-33.4,31.6l-80.5,173.4
			c-2.4,5.1-4.4,7.8-8.2,7.8c-3.4,0-6-2.8-7.8-7.8l-45.7-98.7l-50.2,98.7c-2,5.1-4.4,7.8-8.2,7.8c-3.4,0-5.8-2.7-7.8-7.8l-74-174.1
			c-10.4-24.1-12.9-29.7-30.4-30.9c-2-2-2.4-9.2-0.3-11.2c11.9,0.3,24,0.7,35.4,0.7c10.3,0,24.1-0.3,37.7-0.7c2,2,2,9.2,0,11.2
			c-21.4,2.4-22.4,7.8-13.8,27.2l62.3,141.8h1.6l38-77.2l-28.7-60.8c-11.4-24.1-14.1-28.9-28.7-30.9c-2-2-2.4-9.2-0.3-11.2
			c9.9,0.3,20.3,0.7,30.3,0.7c10.8,0,21.1-0.3,30.9-0.7c2,2,2,9.2,0,11.2c-14.3,2-12.9,7.8-3.6,27.2l16.7,34.3l1.5,1.5l18-33.8
			c10.5-19.7,11.9-27.2-2.7-29.2C257.3,246.8,257.3,239.7,259.3,237.6z"/>
	</g>
</g>
</svg>
