<?xml version="1.0" encoding="utf-8"?>
<!-- Generator: Adobe Illustrator 18.0.0, SVG Export Plug-In . SVG Version: 6.00 Build 0)  -->
<!DOCTYPE svg PUBLIC "-//W3C//DTD SVG 1.1//EN" "http://www.w3.org/Graphics/SVG/1.1/DTD/svg11.dtd">
<svg version="1.1" id="Layer_1" xmlns="http://www.w3.org/2000/svg" xmlns:xlink="http://www.w3.org/1999/xlink" x="0px" y="0px"
	 viewBox="0 79.3 612 612" enable-background="new 0 79.3 612 612" xml:space="preserve">
<path fill="#CCCCCC" d="M512.6,689.3h-416C44.4,689.3,2,647,2,594.8v-416c0-52.2,42.3-94.6,94.6-94.6h416
	c52.2,0,94.6,42.3,94.6,94.6v416C607.2,647,564.9,689.3,512.6,689.3z"/>
<path fill="#EEEEEE" stroke="#BBBBBB" stroke-width="5.9334" stroke-miterlimit="10" d="M512.6,668h-416C44.4,668,2,625.8,2,573.5
	V178.8c0-52.2,42.3-94.6,94.6-94.6h416c52.2,0,94.6,42.3,94.6,94.6v394.8C607.2,625.8,564.9,668,512.6,668z"/>
<path id="letterw" fill="#333333" d="M533.4,265.7c0,1.7-0.5,3.1-1.5,4.5c-1,1.3-2.1,2-3.4,2c-10,1-18.3,4.2-24.6,9.7
	c-6.4,5.5-13,16-19.8,31.4l-103.9,234c-0.7,2.2-2.6,3.3-5.7,3.3c-2.5,0-4.3-1.1-5.7-3.3l-58.2-121.7l-67,121.8
	c-1.4,2.2-3.3,3.3-5.7,3.3c-3,0-5-1.1-5.9-3.3l-102-234c-6.4-14.5-13.1-24.7-20.2-30.4c-7-5.8-16.9-9.3-29.5-10.7
	c-1.1,0-2.1-0.6-3.1-1.7c-1-1.1-1.4-2.5-1.4-3.9c0-3.8,1.1-5.7,3.3-5.7c9.1,0,18.6,0.4,28.5,1.2c9.2,0.8,17.9,1.2,26,1.2
	c8.3,0,18.1-0.4,29.3-1.2c11.8-0.8,22.3-1.2,31.4-1.2c2.2,0,3.3,1.9,3.3,5.7s-0.7,5.7-2,5.7c-9.1,0.7-16.3,3-21.5,6.9
	c-5.2,3.9-7.8,9.1-7.8,15.5c0,3.3,1.1,7.3,3.3,12.2l84.3,190.4l47.9-90.4l-44.6-93.5c-8-16.7-14.6-27.5-19.8-32.3s-13-7.8-23.4-8.9
	c-1,0-1.9-0.6-2.7-1.7c-0.9-1.1-1.3-2.5-1.3-3.9c0-3.8,0.9-5.7,2.9-5.7c9.1,0,17.4,0.4,25,1.2c7.3,0.8,15.1,1.2,23.4,1.2
	c8.1,0,16.7-0.4,25.8-1.2c9.4-0.8,18.6-1.2,27.7-1.2c2.2,0,3.3,1.9,3.3,5.7c0,3.8-0.6,5.7-2,5.7c-18.2,1.2-27.3,6.4-27.3,15.5
	c0,4.1,2.1,10.4,6.3,18.9l29.5,59.9l29.3-54.8c4.1-7.7,6.1-14.3,6.1-19.6c0-12.5-9.1-19.1-27.3-20c-1.7,0-2.5-1.9-2.5-5.7
	c0-1.4,0.4-2.7,1.2-3.9c0.8-1.2,1.7-1.9,2.5-1.9c6.5,0,14.5,0.4,24,1.2c9.1,0.8,16.6,1.2,22.4,1.2c4.2,0,10.4-0.4,18.5-1
	c10.3-0.9,19-1.4,25.9-1.4c1.6,0,2.4,1.6,2.4,4.9c0,4.3-1.5,6.5-4.5,6.5c-10.6,1.1-19.1,4-25.6,8.8s-14.5,15.5-24.1,32.4l-39.1,72.3
	l53,107.9L465,311.7c2.7-6.6,4.1-12.8,4.1-18.3c0-13.3-9.1-20.4-27.3-21.2c-1.7,0-2.5-1.9-2.5-5.7c0-3.8,1.2-5.7,3.7-5.7
	c6.6,0,14.5,0.4,23.6,1.2c8.4,0.8,15.5,1.2,21.2,1.2c6,0,12.9-0.4,20.8-1.2c8.2-0.8,15.5-1.2,22-1.2
	C532.5,260.8,533.4,262.4,533.4,265.7z"/>
</svg>
