<?xml version="1.0" encoding="utf-8"?>
<!-- Generator: Adobe Illustrator 17.0.2, SVG Export Plug-In . SVG Version: 6.00 Build 0)  -->
<!DOCTYPE svg PUBLIC "-//W3C//DTD SVG 1.1//EN" "http://www.w3.org/Graphics/SVG/1.1/DTD/svg11.dtd">
<svg version="1.1" id="Layer_1" xmlns="http://www.w3.org/2000/svg" xmlns:xlink="http://www.w3.org/1999/xlink" x="0px" y="0px"
	 width="48px" height="48px" viewBox="282 372 48 48" enable-background="new 282 372 48 48" xml:space="preserve">
<g>
	<path fill="#FFFFFF" d="M286.2,374.4h39.6c0.947,0,1.8,0.853,1.8,1.8v39.6c0,0.947-0.853,1.8-1.8,1.8h-39.6
		c-0.947,0-1.8-0.853-1.8-1.8v-39.6C284.4,375.253,285.253,374.4,286.2,374.4z"/>
	<g>
		<g>
			<ellipse fill="#FFFFFF" cx="317.558" cy="387.568" rx="5.211" ry="5.495"/>
			<path fill="#347BFF" d="M317.653,394.389c-3.884,0-7.011-3.126-7.011-7.011s3.126-7.011,7.011-7.011s7.011,3.126,7.011,7.011
				S321.537,394.389,317.653,394.389z M317.653,389.747l0.474-1.232l1.137,0.568l-0.568-1.137l1.232-0.474L318.695,387l0.568-1.137
				l-1.137,0.568l-0.474-1.232l-0.474,1.232l-1.137-0.568l0.568,1.137l-1.232,0.474l1.232,0.474l-0.568,1.137l1.137-0.568
				L317.653,389.747z"/>
			<path fill="#FFFFFF" d="M317.653,380.937c3.505,0,6.347,2.842,6.347,6.253c0,3.411-2.842,6.253-6.347,6.253
				c-3.411,0-6.253-2.842-6.253-6.347C311.4,383.589,314.242,380.937,317.653,380.937 M316.895,385.389l-2.274-1.042l1.042,2.274
				l-2.368,0.853l2.368,0.853l-1.042,2.274l2.274-1.042l0.853,2.368l0.853-2.368l2.274,1.042l-1.042-2.274l2.368-0.853l-2.558-0.947
				l1.042-2.274l-2.179,1.042l-0.947-2.368L316.895,385.389 M317.653,379.611c-1.042,0-2.084,0.189-2.937,0.663
				c-0.947,0.379-1.705,0.947-2.463,1.611c-0.758,0.758-1.232,1.516-1.611,2.463c-0.379,0.947-0.663,1.989-0.663,2.937
				c0,0.947,0.189,2.084,0.663,2.937c0.379,0.947,0.947,1.705,1.611,2.463c0.758,0.758,1.516,1.232,2.463,1.611
				c0.947,0.379,1.989,0.663,2.937,0.663c0.947,0,2.084-0.189,2.937-0.663c0.853-0.379,1.705-0.947,2.463-1.611
				c0.758-0.758,1.232-1.516,1.611-2.463c0.379-0.947,0.663-1.989,0.663-2.937c0-0.947-0.189-2.084-0.663-2.937
				c-0.379-0.853-0.947-1.705-1.611-2.463c-0.758-0.758-1.516-1.232-2.463-1.611C319.737,379.895,318.789,379.611,317.653,379.611
				L317.653,379.611z M317.653,387.189l0.095-0.189l0.095,0.189l0.189-0.095l-0.095,0.189l0.189,0.095l-0.189,0.095l0.095,0.189
				l-0.189-0.095l-0.189,0.095v-0.189l-0.189,0.095l0.095-0.189l-0.189-0.095L317.653,387.189l-0.189-0.095L317.653,387.189
				L317.653,387.189z"/>
			<path fill="#333333" d="M315.474,394.579l-4.453,10.516l-3.789-7.674l2.747-5.116c0.379-0.663,0.758-1.137,0.947-1.516
				c-0.095-0.189-0.189-0.379-0.284-0.568c-0.189-0.474-0.379-0.853-0.474-1.421c-0.379,0-0.853,0-1.326-0.095
				c-0.663,0-1.137,0-1.705,0c-0.095,0-0.095,0-0.189,0.095c0,0.095,0,0.189,0,0.284c0,0.284,0.095,0.379,0.189,0.379
				c1.232,0.095,1.895,0.568,1.895,1.421c0,0.379-0.189,0.853-0.474,1.326l-2.084,3.884l-2.084-4.263
				c-0.284-0.663-0.474-1.042-0.474-1.326c0-0.663,0.663-0.947,1.895-1.042c0.095,0,0.189-0.095,0.189-0.379
				s-0.095-0.379-0.284-0.379c-0.663,0-1.232,0-1.989,0.095c-0.663,0.095-1.232,0.095-1.8,0.095c-0.663,0-1.137,0-1.611-0.095
				c-0.568-0.095-1.042-0.095-1.8-0.095c-0.095,0-0.189,0.095-0.189,0.379c0,0.095,0,0.189,0.095,0.284
				c0.095,0.095,0.095,0.095,0.189,0.095c0.758,0.095,1.232,0.284,1.611,0.663c0.379,0.379,0.853,1.042,1.421,2.274l3.126,6.537
				l-3.411,6.347l-5.968-13.453c-0.189-0.379-0.284-0.663-0.284-0.947c0-0.474,0.189-0.853,0.568-1.042s0.853-0.474,1.516-0.474
				c0.095,0,0.189-0.095,0.189-0.379s-0.095-0.379-0.284-0.379c-0.663,0-1.326,0-2.274,0.095c-0.853,0.095-1.516,0.095-2.084,0.095
				s-1.137,0-1.8-0.095c-0.568,0-1.137,0-1.8,0c-0.189,0-0.284,0.095-0.284,0.379c0,0.095,0,0.189,0.095,0.284
				c0.095,0.095,0.189,0.095,0.189,0.095c0.947,0.095,1.611,0.379,2.084,0.758c0.568,0.474,0.947,1.042,1.421,2.179l7.2,16.579
				c0.095,0.189,0.189,0.284,0.474,0.284c0.189,0,0.284-0.095,0.379-0.284l4.737-8.621l4.168,8.621
				c0.095,0.189,0.284,0.284,0.379,0.284c0.189,0,0.379-0.095,0.379-0.284l6.253-14.021
				C316.232,394.863,315.947,394.768,315.474,394.579z"/>
		</g>
	</g>
</g>
</svg>
