<?xml version="1.0" encoding="UTF-8" standalone="no"?>
<!-- Generator: Adobe Illustrator 16.0.4, SVG Export Plug-In . SVG Version: 6.00 Build 0)  -->

<svg
   xmlns:dc="http://purl.org/dc/elements/1.1/"
   xmlns:cc="http://creativecommons.org/ns#"
   xmlns:rdf="http://www.w3.org/1999/02/22-rdf-syntax-ns#"
   xmlns:svg="http://www.w3.org/2000/svg"
   xmlns="http://www.w3.org/2000/svg"
   xmlns:sodipodi="http://sodipodi.sourceforge.net/DTD/sodipodi-0.dtd"
   xmlns:inkscape="http://www.inkscape.org/namespaces/inkscape"
   version="1.1"
   id="Layer_1"
   x="0px"
   y="0px"
   width="32px"
   height="32px"
   viewBox="0 0 32 32"
   enable-background="new 0 0 32 32"
   xml:space="preserve"
   inkscape:version="0.48.1 "
   sodipodi:docname="search.svg"><metadata
   id="metadata9"><rdf:RDF><cc:Work
       rdf:about=""><dc:format>image/svg+xml</dc:format><dc:type
         rdf:resource="http://purl.org/dc/dcmitype/StillImage" /></cc:Work></rdf:RDF></metadata><defs
   id="defs7" /><sodipodi:namedview
   pagecolor="#ffffff"
   bordercolor="#666666"
   borderopacity="1"
   objecttolerance="10"
   gridtolerance="10"
   guidetolerance="10"
   inkscape:pageopacity="0"
   inkscape:pageshadow="2"
   inkscape:window-width="1122"
   inkscape:window-height="889"
   id="namedview5"
   showgrid="false"
   inkscape:zoom="9.09375"
   inkscape:cx="-0.10996564"
   inkscape:cy="16"
   inkscape:window-x="217"
   inkscape:window-y="50"
   inkscape:window-maximized="0"
   inkscape:current-layer="Layer_1" />
<path
   fill="#AAAAAA"
   d="M27.661,24.211l-0.146-0.145l0,0l-5.78-5.779c0.803-1.387,1.271-2.988,1.279-4.706  c0.034-5.247-4.192-9.528-9.442-9.561c-0.021,0-0.041,0-0.062,0c-5.218,0-9.467,4.215-9.5,9.44  c-0.034,5.248,4.192,9.529,9.441,9.564c0.021,0,0.041,0,0.062,0c1.745,0,3.378-0.471,4.786-1.295l5.776,5.777l0,0l0.146,0.143  c0.437,0.439,1.144,0.439,1.58,0l1.859-1.857C28.098,25.357,28.098,24.65,27.661,24.211z M13.468,20.602  c-3.903-0.025-7.061-3.223-7.035-7.125C6.459,9.6,9.635,6.443,13.513,6.443h0.046c1.891,0.012,3.664,0.76,4.993,2.104  c1.328,1.347,2.052,3.128,2.04,5.021c-0.01,1.882-0.755,3.651-2.089,4.977c-1.335,1.326-3.107,2.057-4.989,2.057H13.468z"
   id="path3"
   style="fill:#333333;fill-opacity:0.60000002" />
</svg>