<?xml version="1.0" encoding="utf-8"?>
<!-- Generator: Adobe Illustrator 17.1.0, SVG Export Plug-In . SVG Version: 6.00 Build 0)  -->
<!DOCTYPE svg PUBLIC "-//W3C//DTD SVG 1.1//EN" "http://www.w3.org/Graphics/SVG/1.1/DTD/svg11.dtd">
<svg version="1.1" id="Layer_1" xmlns="http://www.w3.org/2000/svg" xmlns:xlink="http://www.w3.org/1999/xlink" x="0px" y="0px"
	 viewBox="0 0 24 24" enable-background="new 0 0 24 24" xml:space="preserve">
<g>
	<path fill="#FFFFFF" d="M13,11.7h7.3v1.5H13 M13,8.9h7.3v1.5H13 M13,14.5h7.3V16H13 M21.4,3.1H2.6c-1.2,0-2.1,0.9-2.1,2.1v13.6
		c0,1.2,0.9,2.1,2.1,2.1h18.8c1.2,0,2.1-0.9,2.1-2.1V5.2C23.5,4.1,22.6,3.1,21.4,3.1 M21.4,18.8H12V5.2h9.4"/>
	<g>
		<g>
			<path fill="#000000" d="M7.1,8.8l2.7,7.3H8.1l-0.5-1.6H4.9l-0.6,1.6H2.7l2.8-7.3H7.1z M7.2,13.3l-0.9-2.7h0l-0.9,2.7H7.2z"/>
		</g>
	</g>
</g>
</svg>
