<?xml version="1.0" encoding="utf-8"?>
<!-- Generator: Adobe Illustrator 17.1.0, SVG Export Plug-In . SVG Version: 6.00 Build 0)  -->
<!DOCTYPE svg PUBLIC "-//W3C//DTD SVG 1.1//EN" "http://www.w3.org/Graphics/SVG/1.1/DTD/svg11.dtd">
<svg version="1.1" id="Layer_1" xmlns="http://www.w3.org/2000/svg" xmlns:xlink="http://www.w3.org/1999/xlink" x="0px" y="0px"
	 viewBox="0 0 96 96" enable-background="new 0 0 96 96" xml:space="preserve">
<path fill="#FFFFFF" d="M84,0H12C5.4,0,0,5.4,0,12v72c0,6.6,5.4,12,12,12h72c6.6,0,12-5.4,12-12V12C96,5.4,90.6,0,84,0z M24,12
	c6.6,0,12,5.4,12,12s-5.4,12-12,12s-12-5.4-12-12S17.4,12,24,12z M24,84c-6.6,0-12-5.4-12-12s5.4-12,12-12s12,5.4,12,12
	S30.6,84,24,84z M48,60c-6.6,0-12-5.4-12-12s5.4-12,12-12s12,5.4,12,12S54.6,60,48,60z M72,84c-6.6,0-12-5.4-12-12s5.4-12,12-12
	s12,5.4,12,12S78.6,84,72,84z M72,36c-6.6,0-12-5.4-12-12s5.4-12,12-12s12,5.4,12,12S78.6,36,72,36z"/>
</svg>
