<?xml version="1.0" encoding="UTF-8" standalone="no"?>
<!-- Generator: Adobe Illustrator 17.0.2, SVG Export Plug-In . SVG Version: 6.00 Build 0)  -->

<svg
   xmlns:dc="http://purl.org/dc/elements/1.1/"
   xmlns:cc="http://creativecommons.org/ns#"
   xmlns:rdf="http://www.w3.org/1999/02/22-rdf-syntax-ns#"
   xmlns:svg="http://www.w3.org/2000/svg"
   xmlns="http://www.w3.org/2000/svg"
   xmlns:sodipodi="http://sodipodi.sourceforge.net/DTD/sodipodi-0.dtd"
   xmlns:inkscape="http://www.inkscape.org/namespaces/inkscape"
   version="1.1"
   id="Layer_1"
   x="0px"
   y="0px"
   width="48"
   height="48"
   viewBox="0 0 47.999999 48"
   enable-background="new 0 0 612 792"
   xml:space="preserve"
   inkscape:version="0.91 r"
   sodipodi:docname="facebook.svg"><metadata
     id="metadata9"><rdf:RDF><cc:Work
         rdf:about=""><dc:format>image/svg+xml</dc:format><dc:type
           rdf:resource="http://purl.org/dc/dcmitype/StillImage" /><dc:title></dc:title></cc:Work></rdf:RDF></metadata><defs
     id="defs7" /><sodipodi:namedview
     pagecolor="#ffffff"
     bordercolor="#666666"
     borderopacity="1"
     objecttolerance="10"
     gridtolerance="10"
     guidetolerance="10"
     inkscape:pageopacity="0"
     inkscape:pageshadow="2"
     inkscape:window-width="2880"
     inkscape:window-height="1697"
     id="namedview5"
     showgrid="false"
     fit-margin-top="0"
     fit-margin-left="0"
     fit-margin-right="0"
     fit-margin-bottom="0"
     inkscape:zoom="19.070707"
     inkscape:cx="21.827985"
     inkscape:cy="21.711603"
     inkscape:window-x="0"
     inkscape:window-y="0"
     inkscape:window-maximized="1"
     inkscape:current-layer="Layer_1" /><path
     d="m 19.181,26.536608 c -2.535,0 -4.756,0 -7.1,0 0,-3.256 0,-6.396 0,-9.705 2.274,0 4.533,0 7.035,0 0,-2.521 0.021,-4.881 -0.006,-7.242 -0.024,-2.066 0.61,-3.912 1.826,-5.545 1.893,-2.542 4.431,-3.91399997 7.626,-3.95099997 2.42,-0.028 4.84,-0.006 7.357,-0.006 0,3.26499997 0,6.37099997 0,9.74899997 -1.292,0 -2.607,-0.007 -3.922,0.002 -2.295,0.015 -3.122,0.849 -3.132,3.15 -0.005,1.184 -10e-4,2.368 -10e-4,3.719 2.373,0 4.631,0 7.022,0 0,3.305 0,6.446 0,9.759 -2.243,0 -4.502,0 -6.969,0 0,7.227 0,14.289 0,21.454 -3.315,0 -6.42,0 -9.735,0 -10e-4,-7.04 -10e-4,-14.103 -10e-4,-21.384 z"
     id="path3"
     inkscape:connector-curvature="0"
     style="fill:#e6e7e8" /></svg>