<?xml version="1.0" encoding="utf-8"?>
<!-- Generator: Adobe Illustrator 17.1.0, SVG Export Plug-In . SVG Version: 6.00 Build 0)  -->
<!DOCTYPE svg PUBLIC "-//W3C//DTD SVG 1.1//EN" "http://www.w3.org/Graphics/SVG/1.1/DTD/svg11.dtd">
<svg version="1.1" id="Layer_1" xmlns="http://www.w3.org/2000/svg" xmlns:xlink="http://www.w3.org/1999/xlink" x="0px" y="0px"
	 viewBox="0 0 96 96" enable-background="new 0 0 96 96" xml:space="preserve">
<path fill="#FFFFFF" d="M12.7,0C0.6,0,0,11.5,0,12.1V96c42.9,0,75.9,0,83.3,0C95.4,96,96,84.5,96,83.9V0H12.7z M15.3,29.2
	c0,0,4.2,4.5,13.7,4.5s13.5-4.5,13.5-4.5c0,6.1-6.1,11-13.6,11S15.3,35.3,15.3,29.2z M69,68.4c-3.2,1.9-6.9,3.3-10.9,4.3
	c-3.4,0.8-6.9,1.2-10.6,1.2c-4.3,0-8.5-0.6-12.4-1.7c-3.7-1-7.1-2.5-10.1-4.4c-1.9-1.2-2.4-3.7-1.2-5.5c1.2-1.9,3.7-2.4,5.5-1.2
	c2.3,1.5,5,2.6,8,3.4c6,1.7,13,1.8,19.1,0.4c3.2-0.8,6.2-1.9,8.7-3.4c1.9-1.1,4.4-0.5,5.5,1.4C71.5,64.8,70.9,67.3,69,68.4z
	 M68.6,40.2c-7.5,0-13.6-4.9-13.6-11c0,0,4.2,4.5,13.7,4.5s13.5-4.5,13.5-4.5C82.2,35.3,76.1,40.2,68.6,40.2z"/>
</svg>
