<?xml version="1.0" encoding="utf-8"?>
<!-- Generator: Adobe Illustrator 17.1.0, SVG Export Plug-In . SVG Version: 6.00 Build 0)  -->
<!DOCTYPE svg PUBLIC "-//W3C//DTD SVG 1.1//EN" "http://www.w3.org/Graphics/SVG/1.1/DTD/svg11.dtd">
<svg version="1.1" id="Layer_1" xmlns="http://www.w3.org/2000/svg" xmlns:xlink="http://www.w3.org/1999/xlink" x="0px" y="0px"
	 viewBox="0 0 96 96" enable-background="new 0 0 96 96" xml:space="preserve">
<path fill="#FFFFFF" d="M12.7,0C0.6,0,0,11.5,0,12.1V96c42.9,0,75.9,0,83.3,0C95.4,96,96,84.5,96,83.9V0H12.7z M63.7,27.5
	c3.9,0,7,3.1,7,7c0,3.9-3.1,7-7,7c-3.9,0-7-3.1-7-7C56.7,30.6,59.9,27.5,63.7,27.5z M34.8,27.5c3.8,0,7,3.1,7,7c0,3.9-3.1,7-7,7
	c-3.9,0-7-3.1-7-7C27.8,30.6,30.9,27.5,34.8,27.5z M76.3,65.1c-6.4,6.1-16.3,9.5-27,9.5s-21-3.6-27.3-9.8c-1.6-1.5-1.6-4.1-0.1-5.7
	c1.5-1.6,4.1-1.6,5.7-0.1c4.8,4.7,13,7.5,21.7,7.5c8.6,0,16.7-2.7,21.5-7.3c1.6-1.5,4.1-1.4,5.7,0.2C78,61,77.9,63.5,76.3,65.1z"/>
</svg>
