<?xml version="1.0" encoding="utf-8"?>
<!-- Generator: Adobe Illustrator 17.0.2, SVG Export Plug-In . SVG Version: 6.00 Build 0)  -->
<!DOCTYPE svg PUBLIC "-//W3C//DTD SVG 1.1//EN" "http://www.w3.org/Graphics/SVG/1.1/DTD/svg11.dtd">
<svg version="1.1" xmlns="http://www.w3.org/2000/svg" xmlns:xlink="http://www.w3.org/1999/xlink" x="0px" y="0px" width="32px"
	 height="32px" viewBox="0 0 32 32" enable-background="new 0 0 32 32" xml:space="preserve">
<g id="_x31_3_extra_actions" display="none">
	<g id="about" display="inline">
		<g>
			<path fill="#333333" d="M16.816,10.69c-0.105-0.081-0.227-0.139-0.367-0.171c-0.139-0.032-0.288-0.048-0.446-0.048
				c-0.158,0-0.308,0.016-0.45,0.048c-0.142,0.032-0.265,0.09-0.371,0.171c-0.104,0.081-0.187,0.188-0.248,0.321
				c-0.061,0.133-0.091,0.299-0.091,0.5c0,0.195,0.03,0.36,0.091,0.495c0.061,0.135,0.143,0.244,0.248,0.325
				c0.106,0.081,0.229,0.14,0.371,0.174c0.142,0.035,0.291,0.052,0.45,0.052c0.158,0,0.307-0.017,0.446-0.052
				c0.141-0.034,0.262-0.094,0.367-0.174c0.104-0.081,0.188-0.19,0.251-0.325c0.062-0.134,0.094-0.299,0.094-0.495
				c0-0.2-0.031-0.367-0.094-0.5C17.005,10.879,16.92,10.771,16.816,10.69z"/>
			<rect x="14.936" y="13.527" fill="#333333" width="2.129" height="7.801"/>
			<path fill="#333333" d="M15.999,5.56C10.243,5.56,5.561,10.243,5.561,16c0,5.756,4.683,10.44,10.438,10.44
				c5.756,0,10.439-4.684,10.439-10.44C26.438,10.243,21.755,5.56,15.999,5.56z M15.999,24.932c-4.925,0-8.931-4.006-8.931-8.932
				s4.006-8.933,8.931-8.933s8.932,4.007,8.932,8.933S20.924,24.932,15.999,24.932z"/>
		</g>
	</g>
	<g id="help" display="inline">
		<g>
			<path fill="#333333" d="M13.367,19.349v-1.02c0-0.469,0.048-0.894,0.145-1.274c0.096-0.382,0.243-0.745,0.441-1.089
				c0.198-0.344,0.452-0.68,0.765-1.006c0.312-0.326,0.689-0.664,1.13-1.013c0.386-0.303,0.712-0.574,0.979-0.813
				c0.267-0.238,0.482-0.476,0.648-0.71c0.165-0.234,0.285-0.479,0.358-0.737c0.073-0.257,0.11-0.556,0.11-0.896
				c0-0.524-0.178-0.956-0.531-1.296c-0.354-0.34-0.893-0.51-1.619-0.51c-0.634,0-1.316,0.133-2.047,0.399
				c-0.73,0.267-1.486,0.593-2.267,0.979l-1.406-3.046c0.395-0.229,0.824-0.448,1.289-0.654c0.464-0.207,0.946-0.391,1.447-0.552
				c0.5-0.16,1.008-0.287,1.523-0.379c0.515-0.092,1.02-0.138,1.516-0.138c0.938,0,1.783,0.113,2.536,0.338
				c0.754,0.225,1.393,0.553,1.916,0.985c0.524,0.432,0.926,0.956,1.206,1.571c0.28,0.616,0.421,1.318,0.421,2.108
				c0,0.579-0.066,1.096-0.193,1.551c-0.128,0.455-0.319,0.878-0.571,1.268c-0.254,0.391-0.57,0.768-0.951,1.13
				c-0.382,0.363-0.825,0.747-1.33,1.151c-0.387,0.303-0.701,0.567-0.945,0.792c-0.243,0.226-0.433,0.439-0.571,0.641
				c-0.138,0.202-0.232,0.411-0.282,0.628c-0.051,0.215-0.076,0.47-0.076,0.764v0.827H13.367z M12.913,24.062
				c0-0.432,0.062-0.797,0.186-1.096c0.124-0.298,0.296-0.539,0.517-0.724c0.221-0.184,0.481-0.316,0.779-0.399
				c0.298-0.082,0.617-0.124,0.958-0.124c0.322,0,0.627,0.042,0.917,0.124c0.289,0.083,0.544,0.216,0.765,0.399
				c0.221,0.184,0.395,0.426,0.523,0.724c0.129,0.299,0.193,0.664,0.193,1.096c0,0.414-0.065,0.768-0.193,1.062
				c-0.129,0.294-0.303,0.538-0.523,0.731c-0.22,0.192-0.476,0.332-0.765,0.42c-0.289,0.087-0.595,0.131-0.917,0.131
				c-0.34,0-0.66-0.044-0.958-0.131c-0.299-0.088-0.559-0.228-0.779-0.42c-0.22-0.193-0.392-0.438-0.517-0.731
				C12.975,24.83,12.913,24.477,12.913,24.062z"/>
		</g>
	</g>
	<g id="settings" display="inline">
		<path fill="#333333" d="M26.111,12.5c0,0,0.176-0.077-0.849-1.89c-1.023-1.813-1.177-1.699-1.177-1.699
			c-1.983,0.655-3.027,0.719-3.027,0.719l0.004,0.006c-0.636-0.52-1.35-0.943-2.122-1.251h0.056c0,0-0.462-0.95-0.89-3.022
			c0,0,0.021-0.191-2.037-0.191c-2.06,0-2.038,0.191-2.038,0.191c-0.391,1.897-0.811,2.852-0.878,3
			c-0.05,0.019-0.101,0.037-0.15,0.057c-0.687,0.283-1.325,0.662-1.902,1.116l0.007-0.012c0,0-1.041-0.087-3.012-0.785
			c0,0-0.151-0.118-1.212,1.673c-1.062,1.79-0.889,1.87-0.889,1.87c1.532,1.439,2.096,2.331,2.096,2.331l0.006-0.011
			c-0.075,0.448-0.118,0.908-0.118,1.378c0,0.409,0.031,0.81,0.088,1.204l-0.003-0.007c0,0-0.583,0.88-2.144,2.286
			c0,0-0.174,0.076,0.85,1.889c1.023,1.812,1.175,1.7,1.175,1.7c1.986-0.656,3.028-0.72,3.028-0.72l-0.003-0.009
			c0.635,0.521,1.351,0.945,2.123,1.253h-0.057c0,0,0.463,0.95,0.889,3.022c0,0-0.023,0.191,2.038,0.191
			c2.058,0,2.037-0.191,2.037-0.191c0.391-1.896,0.809-2.851,0.88-2.999c0.743-0.287,1.43-0.684,2.05-1.169l-0.007,0.009
			c0,0,1.041,0.086,3.012,0.784c0,0,0.15,0.117,1.214-1.674c1.061-1.792,0.888-1.87,0.888-1.87
			c-1.532-1.439-2.096-2.331-2.096-2.331l-0.006,0.008c0.076-0.448,0.115-0.908,0.115-1.377c0-0.408-0.028-0.808-0.084-1.201
			l0.002,0.004C23.969,14.785,24.551,13.905,26.111,12.5z M16.017,22.827c-3.765,0-6.828-3.071-6.828-6.845
			c0-3.774,3.063-6.846,6.828-6.846c3.764,0,6.827,3.071,6.827,6.846C22.844,19.756,19.78,22.827,16.017,22.827z M16.017,9.947
			c-3.319,0-6.019,2.708-6.019,6.035c0,3.328,2.7,6.036,6.019,6.036c3.318,0,6.018-2.708,6.018-6.036
			C22.034,12.655,19.335,9.947,16.017,9.947z M16.017,19.71c-2.054,0-3.719-1.668-3.719-3.728c0-2.059,1.665-3.729,3.719-3.729
			c2.055,0,3.719,1.67,3.719,3.729C19.735,18.042,18.071,19.71,16.017,19.71z"/>
	</g>
</g>
<g id="_x31_2_alerts_and_states" display="none">
	<g id="error" display="inline">
		<path fill="#333333" d="M20.216,5.667h-8.433l-6.116,6.117v8.432l6.116,6.116h8.433l6.117-6.116v-8.432L20.216,5.667z
			 M17.352,21.379h-2.694V19.13h2.694V21.379z M17.352,17.787l-2.694,0.01v-8.08l2.694-0.009V17.787z"/>
	</g>
	<g id="warning" display="inline">
		<path fill="#333333" d="M27.312,24.399L17.016,6.566c-0.558-0.968-1.473-0.968-2.031,0L4.688,24.399
			c-0.559,0.969-0.102,1.761,1.015,1.761h20.595C27.414,26.16,27.87,25.368,27.312,24.399z M17.421,23.331H14.58v-2.749h2.841
			V23.331z M17.421,18.841H14.58v-6.508h2.841V18.841z"/>
	</g>
</g>
<g id="_x31_1_hardware" display="none">
	<g id="gamepad" display="inline">
		<path fill="#333333" d="M18.326,19.021l0.945-13.438c-0.005-0.865-0.711-1.567-1.576-1.567h-3.39
			c-0.867,0-1.572,0.702-1.578,1.567l0.946,13.458c0,0.87,0.707,1.578,1.577,1.578h1.498c0.869,0,1.577-0.708,1.577-1.578V19.021z
			 M27.279,23.125l-1.868-2.555c-0.327-0.432-0.762-0.957-1.398-0.957H19.57l-0.005,0.068c-0.005,1.171-1.645,2.288-2.816,2.288
			h-1.498c-1.171,0-3.042-1.117-3.045-2.288l-0.004-0.068H7.987c-0.637,0-1.072,0.525-1.398,0.957l-1.868,2.555
			c-0.338,0.454-0.732,0.885-0.732,1.492v2.418c0,1.045,0.847,0.946,1.892,0.946h20.237c1.046,0,1.892,0.099,1.892-0.946v-2.418
			C28.011,24.01,27.617,23.579,27.279,23.125z M22.838,23.9c-1.501,0-2.719-0.275-2.719-0.615c0-0.34,1.218-0.616,2.719-0.616
			s2.718,0.276,2.718,0.616C25.556,23.625,24.339,23.9,22.838,23.9z"/>
	</g>
	<g id="mouse" display="inline">
		<path fill="#333333" d="M7.737,15.008c-0.088,1.144-0.117,1.756-0.117,2.871c0,6.223,0,10.602,8.371,10.602
			s8.371-4.379,8.371-10.602c0-1.114,0.068-1.727-0.06-2.871h-8.252H7.737z M17,13.047h7.275C23.615,8.104,22.039,3.71,17,3.52
			V13.047z M15.002,3.52c-5.693,0.168-6.747,4.574-7.218,9.527h7.218V3.52z"/>
	</g>
	<g id="headset" display="inline">
		<path fill="#333333" d="M25.383,25.934V15.077c0-0.329-4.319-0.329-4.319,0v10.857C21.063,26.262,25.383,26.262,25.383,25.934z
			 M28.976,20.445c0-1.062-0.075-2.03-0.368-2.775v-4.684c0-7.235-5.299-12.486-12.599-12.486c-7.301,0-12.601,5.251-12.601,12.486
			v4.659c-0.305,0.75-0.384,1.732-0.384,2.812c0,2.349,0.359,4.253,2.665,4.253v-8.506c-0.128,0-0.245,0.007-0.36,0.019v-3.236
			c0-6.22,4.392-10.564,10.68-10.564c6.287,0,10.677,4.344,10.677,10.564v3.225c-0.119-0.012-0.242-0.019-0.374-0.019v8.506
			c0.041,0,0.076-0.005,0.116-0.006v5.496h-6.122v-0.545h-5.247v1.85h1.749v0.006h10.276c0.361,0,0.655-0.293,0.655-0.654v-6.508
			C28.776,23.676,28.976,22.184,28.976,20.445z M6.616,14.968v10.857c0,0.328,4.32,0.328,4.32,0V14.968
			C10.936,14.64,6.616,14.64,6.616,14.968z"/>
	</g>
	<g id="headphones" display="inline">
		<path fill="#333333" d="M21.063,17.736v10.858c0,0.327,4.319,0.327,4.319,0V17.736C25.383,17.408,21.063,17.408,21.063,17.736z
			 M28.607,20.33v-4.684c0-7.235-5.299-12.486-12.6-12.486c-7.302,0-12.601,5.251-12.601,12.486v4.659
			c-0.305,0.75-0.384,1.731-0.384,2.81c0,2.35,0.359,4.253,2.664,4.253v-8.506c-0.126,0-0.245,0.008-0.359,0.019v-3.236
			c0-6.221,4.392-10.564,10.68-10.564c6.287,0,10.678,4.344,10.678,10.564v3.225c-0.118-0.012-0.242-0.019-0.373-0.019v8.506
			c2.305,0,2.664-1.904,2.664-4.252C28.977,22.043,28.9,21.074,28.607,20.33z M6.617,17.628v10.858c0,0.327,4.32,0.327,4.32,0
			V17.628C10.936,17.301,6.617,17.301,6.617,17.628z"/>
	</g>
	<g id="keyboard" display="inline">
		<path fill="#333333" d="M3.246,7.945H0.582v2.663h2.664V7.945z M8.527,7.945H5.006v2.62h3.521V7.945z M13.809,7.945h-3.521v2.62
			h3.521V7.945z M19.049,7.945h-3.521v2.62h3.521V7.945z M24.375,7.945h-3.522v2.62h3.522V7.945z M26.178,7.945v2.62h5.24v-2.62
			H26.178z M4.963,12.347H0.582v2.663h4.381V12.347z M6.767,14.967h3.522v-2.62H6.767V14.967z M15.612,12.347h-3.521v2.62h3.521
			V12.347z M17.332,14.967h3.521v-2.62h-3.521V14.967z M22.613,14.967h3.521v-2.62h-3.521V14.967z M27.896,14.967h3.522v-2.62
			h-3.522V14.967z M6.81,16.684H0.582v2.662H6.81V16.684z M8.442,19.303h3.521v-2.619H8.442V19.303z M17.331,16.684h-3.522v2.619
			h3.522V16.684z M19.049,19.303h3.521v-2.619h-3.521V19.303z M24.417,19.303h7.001v-2.619h-7.001V19.303z M6.809,24.055h17.523
			v-2.621H6.809V24.055z"/>
	</g>
	<g id="dock" display="inline">
		<path fill="#333333" d="M10.757,22.264l-1.625,2.312h13.493l-1.631-2.312H10.757z M5.333,7.424v12.979h21.333V7.424H5.333z
			 M25.274,18.997H6.726V8.816h18.549V18.997z"/>
	</g>
	<g id="computer" display="inline">
		<path fill="#333333" d="M24.188,20.508c0.001-0.019,0.007-0.039,0.007-0.059V10.385c0-0.424-0.345-0.769-0.769-0.769H8.495
			c-0.424,0-0.769,0.345-0.769,0.769v10.064c0,0.021,0.005,0.04,0.007,0.061l-2.399,0.57L5.6,22.384h20.799l0.267-1.304
			L24.188,20.508z M22.568,19.479H9.358v-8.247h13.21V19.479z"/>
	</g>
	<g id="phone" display="inline">
		<path fill="#333333" d="M21.486,8.102c0,0-0.07-1.397-0.443-1.829c-0.378-0.437-0.858-0.538-1.209-0.613
			c-0.411-0.087-1.166-0.206-2.43-0.279c-0.578-0.033-1.029-0.048-1.469-0.048c-0.388,0-0.738,0.011-1.184,0.025l-0.214,0.007
			c-0.854,0.026-1.533,0.092-1.823,0.121c-0.062,0.006-0.105,0.01-0.128,0.012c-0.03,0.002-0.12,0.008-0.155,0.074
			c-0.001,0.004-0.004,0.009-0.005,0.013c-0.133,0.022-0.472,0.084-0.74,0.167c-0.447,0.139-0.692,0.318-0.906,0.662
			c-0.195,0.314-0.234,0.843-0.248,1.042c-0.002,0.021-0.003,0.05-0.003,0.05l-0.051,15.18l0.073,1.37c0,0,0.28,1.455,0.56,1.771
			c0.254,0.287,0.589,0.458,1.086,0.555c0.053,0.01,0.104,0.02,0.152,0.029c0.375,0.074,0.67,0.133,1.701,0.188
			c0.104,0.006,0.205,0.011,0.304,0.017c0.468,0.025,0.911,0.05,1.502,0.05c0.42,0,0.884-0.012,1.42-0.037
			c1.874-0.09,2.804-0.197,3.357-0.598c0.543-0.394,0.667-0.976,0.749-1.361l0.004-0.016c0.096-0.449,0.133-1.777,0.133-1.777
			L21.486,8.102z M15.991,25.582c-0.322,0-0.584-0.262-0.584-0.584c0-0.322,0.261-0.584,0.584-0.584
			c0.323,0,0.584,0.262,0.584,0.584C16.575,25.32,16.314,25.582,15.991,25.582z M20.559,22.459h-9.161V7.848h9.161V22.459z"/>
	</g>
</g>
<g id="_x31_0_device_access" display="none">
	<g id="airplane_mode_on" display="inline">
		<path fill="#333333" d="M16.155,3.108c-1.146-0.004-1.625,2.693-1.625,3.732l-0.032,5.763L4.659,19.27l0.008,2.734l10.121-4.694
			l0.332,7.489l-4.134,2.787l0.008,1.289l4.997-1.121l4.944,1.138l-0.004-1.29l-3.713-2.803l0.237-7.383l9.884,4.628l-0.008-2.733
			l-9.507-6.671l0.04-5.786C17.862,5.809,17.301,3.108,16.155,3.108z"/>
	</g>
	<g id="airplane_mode_off" display="inline">
		<path fill="#333333" d="M26.856,5.13c-0.82-0.837-2.246-0.617-4.112,1.273l-4.167,4.17L6.703,8.267l-1.959,1.997l10.656,3.95
			l-4.833,5.376l-4.98-0.979l-0.92,0.942l4.92,3.354l2.74,4.426l0.923-0.94l-0.653-4.746l5.167-4.886l3.779,10.57l1.961-1.997
			l-2.041-11.779l4.194-4.187C27.517,7.47,27.687,5.97,26.856,5.13z"/>
	</g>
	<g id="add_alarm" display="inline">
		<g>
			<path fill-rule="evenodd" clip-rule="evenodd" fill="#333333" d="M19.899,10.104l0.983-0.352
				c-0.794-1.981-2.333-3.579-4.273-4.452l-0.355,0.989C17.902,7.053,19.213,8.417,19.899,10.104z"/>
			<path fill-rule="evenodd" clip-rule="evenodd" fill="#333333" d="M10.224,6.289L9.869,5.299C7.894,6.188,6.336,7.83,5.556,9.861
				l0.984,0.352C7.213,8.476,8.541,7.068,10.224,6.289z"/>
			<polygon fill-rule="evenodd" clip-rule="evenodd" fill="#333333" points="22.076,20.881 22.076,16.447 20.688,16.447 
				20.688,20.881 16.321,20.881 16.321,22.268 20.688,22.268 20.688,26.7 22.076,26.7 22.076,22.268 26.443,22.268 26.443,20.881 
							"/>
			<path fill="#333333" d="M13.239,6.664c-3.396,0-6.148,2.752-6.148,6.148c0,3.396,2.752,6.148,6.148,6.148
				s6.149-2.752,6.149-6.148C19.388,9.417,16.635,6.664,13.239,6.664z M13.239,17.974c-2.85,0-5.162-2.311-5.162-5.162
				c0-2.85,2.312-5.162,5.162-5.162c2.851,0,5.162,2.311,5.162,5.162C18.4,15.663,16.09,17.974,13.239,17.974z"/>
			<polygon fill="#333333" points="13.343,8.647 12.69,8.647 12.465,12.848 12.524,13.288 15.666,16.083 16.162,15.574 
				13.564,12.789 			"/>
		</g>
	</g>
	<g id="alarms" display="inline">
		<g>
			<path fill="#333333" d="M16.029,7.844c-5.067,0-9.173,4.107-9.173,9.173c0,5.067,4.106,9.174,9.173,9.174
				c5.067,0,9.175-4.106,9.175-9.174C25.204,11.951,21.096,7.844,16.029,7.844z M16.029,24.721c-4.253,0-7.702-3.449-7.702-7.703
				c0-4.253,3.448-7.702,7.702-7.702c4.254,0,7.703,3.449,7.703,7.702C23.731,21.271,20.283,24.721,16.029,24.721z"/>
			<polygon fill="#333333" points="16.185,10.803 15.21,10.803 14.875,17.071 14.962,17.728 19.65,21.898 20.391,21.139 
				16.514,16.983 			"/>
			<path fill="#333333" d="M21.059,5.808l-0.529,1.477c2.459,1.14,4.414,3.174,5.438,5.692l1.469-0.525
				C26.251,9.495,23.953,7.11,21.059,5.808z"/>
			<path fill="#333333" d="M11.529,7.285l-0.528-1.477c-2.949,1.326-5.273,3.776-6.438,6.808l1.467,0.525
				C7.038,10.547,9.018,8.447,11.529,7.285z"/>
		</g>
	</g>
	<g id="time" display="inline">
		<g>
			<path fill="#333333" d="M15.999,5.468C10.183,5.468,5.468,10.183,5.468,16c0,5.816,4.715,10.531,10.531,10.531
				S26.531,21.816,26.531,16C26.531,10.183,21.815,5.468,15.999,5.468z M15.999,24.842c-4.882,0-8.842-3.959-8.842-8.842
				c0-4.884,3.96-8.843,8.842-8.843c4.885,0,8.843,3.959,8.843,8.843C24.842,20.883,20.884,24.842,15.999,24.842z"/>
			<polygon fill="#333333" points="16.178,8.865 15.06,8.865 14.675,16.062 14.775,16.815 20.156,21.603 21.007,20.73 
				16.555,15.961 			"/>
		</g>
	</g>
	<g id="screen_locked_to_portrait" display="inline">
		<g>
			<path fill-rule="evenodd" clip-rule="evenodd" fill="#333333" d="M10.408,14.366c0-1.314,1.07-2.384,2.384-2.384
				c1.317,0,2.388,1.07,2.388,2.384v1.717h-4.771V14.366z M16.677,16.083v-1.717c0-2.141-1.744-3.881-3.885-3.881
				s-3.884,1.74-3.884,3.881v1.717H7.151v5.878h11.287v-5.878H16.677z"/>
			<polygon fill="#333333" points="12.245,26.353 12.245,23.481 13.506,23.481 13.506,25.068 23.589,25.068 23.589,6.931 
				13.506,6.931 13.506,9.041 12.245,9.041 12.245,5.647 24.849,5.647 24.849,26.353 			"/>
		</g>
	</g>
	<g id="screen_locked_to_landscape" display="inline">
		<g>
			<path fill-rule="evenodd" clip-rule="evenodd" fill="#333333" d="M13.766,15.757c0-1.317,1.07-2.388,2.384-2.388
				c1.317,0,2.388,1.07,2.388,2.388v1.573h-4.771V15.757z M20.034,17.33v-1.573c0-2.141-1.744-3.885-3.885-3.885
				c-2.14,0-3.884,1.744-3.884,3.885v1.573h-1.757v6.232h11.287V17.33H20.034z"/>
			<polygon fill="#333333" points="26.353,21.271 23.238,21.271 23.238,19.988 25.068,19.988 25.068,9.721 6.931,9.721 
				6.931,19.988 9.044,19.988 9.044,21.271 5.647,21.271 5.647,8.438 26.353,8.438 			"/>
		</g>
	</g>
	<g id="screen_rotation" display="inline">
		<g>
			<path fill-rule="evenodd" clip-rule="evenodd" fill="#333333" d="M6.373,13.347l6.914-6.915l12.224,12.22l-6.919,6.915
				L6.373,13.347z M13.287,4.702l-8.642,8.646l13.947,13.951l8.646-8.646L13.287,4.702z"/>
			<path fill="#333333" d="M17.977,5.325l-0.198,0.247l3.208,3.625l0.5-2.138c2.761,1.164,4.705,3.898,4.705,7.079h1.163
				c0-4.868-3.954-8.829-8.819-8.842l-0.02-0.007l-0.003,0.007l0,0L17.977,5.325z"/>
			<path fill="#333333" d="M14.648,27.047l0.2-0.246l-3.208-3.624l-0.5,2.138c-2.761-1.164-4.705-3.899-4.705-7.079H5.272
				c0,4.868,3.955,8.829,8.816,8.842l0.019,0.007l0.008-0.007L14.648,27.047z"/>
		</g>
	</g>
	<g id="sd_storage" display="inline">
		<path fill="#333333" d="M21.986,5.715H11.882c-0.568,0-1.028,0.459-1.028,1.025v5.984l-1.866,1.864v1.56
			c0,0.422,0.508,0.322,0.508,0.322c0.485,0,0.57,0.407,0.57,0.566v0.613c0,0.437-0.131,0.545-0.35,0.719l-0.701,0.592v6.427
			c0,0.495,0.402,0.898,0.898,0.898h12.201c0.495,0,0.897-0.402,0.897-0.898V6.743C23.012,6.174,22.553,5.715,21.986,5.715z
			 M15.533,6.65h0.935v4.675h-0.935V6.65z M12.727,11.325h-0.934v-3.74h0.934V11.325z M14.597,11.325h-0.936v-3.74h0.936V11.325z
			 M18.337,11.325H17.4v-3.74h0.937V11.325z M20.207,11.325h-0.936V6.65h0.936V11.325z M22.075,11.325h-0.933v-3.74h0.933V11.325z"
			/>
	</g>
	<g id="usb" display="inline">
		<g>
			<path fill="#333333" d="M23.387,9.189h-3.692v3.693h0.923v1.422l-3.75,1.907V8.267h1.995L16,4.342l-2.863,3.925h1.995v9.536
				l-3.749-1.625v-1.703c0.55-0.321,0.923-0.909,0.923-1.592c0-1.019-0.826-1.847-1.847-1.847c-1.02,0-1.847,0.828-1.847,1.847
				c0,0.683,0.373,1.271,0.924,1.592v2.916l5.596,2.426v2.453c-1.101,0.366-1.902,1.393-1.902,2.618c0,1.528,1.24,2.77,2.77,2.77
				c1.531,0,2.771-1.241,2.771-2.77c0-1.226-0.8-2.252-1.903-2.618v-3.985l5.597-2.848v-2.554h0.922V9.189z"/>
		</g>
	</g>
	<g id="bluetooth_connected" display="inline">
		<g>
			<g>
				<polygon fill="#333333" points="21.296,15.998 25.863,20.104 25.863,11.896 				"/>
			</g>
			<g>
				<path fill="#333333" d="M22.363,11.383l-7.337-7.182v10.495l-4.452-4.134l-1.046,1.129L14.169,16l-4.641,4.31l1.046,1.128
					l4.452-4.133v10.494l7.337-7.182l-4.617-5.13L22.363,11.383z M16.977,8.276l3.078,3.106l-3.078,2.565V8.276z M20.055,20.617
					l-3.078,3.106v-6.441L20.055,20.617z"/>
			</g>
			<g>
				<polygon fill="#333333" points="6.136,11.896 6.136,20.104 10.702,16.001 				"/>
			</g>
		</g>
	</g>
	<g id="bluetooth_searching" display="inline">
		<path fill="#333333" d="M17.893,11.452l-7.226-7.074v10.338l-4.386-4.072l-1.032,1.112L9.821,16l-4.572,4.245l1.032,1.11
			l4.386-4.07v10.336l7.226-7.073l-4.548-5.053L17.893,11.452z M12.587,8.392l3.032,3.06l-3.032,2.527V8.392z M15.619,20.548
			l-3.032,3.06v-6.344L15.619,20.548z M25.117,8.017l-1.256,0.736c0.986,2.271,1.51,4.782,1.51,7.282s-0.523,5.01-1.51,7.282
			l1.256,0.737c1.07-2.507,1.633-5.275,1.633-8.02C26.75,13.286,26.188,10.521,25.117,8.017z M21.415,12.135
			c0.492,1.236,0.876,2.576,0.876,3.915c0,1.341-0.384,2.7-0.876,3.936l1.274,0.442c0.593-1.459,0.986-2.873,0.986-4.442
			c0-1.539-0.344-3.053-0.926-4.503L21.415,12.135z"/>
	</g>
	<g id="bluetooth" display="inline">
		<path fill="#333333" d="M22.418,11.383l-7.336-7.182v10.495l-4.453-4.134l-1.048,1.129L14.224,16l-4.642,4.31l1.048,1.128
			l4.453-4.133v10.494l7.336-7.182l-4.617-5.13L22.418,11.383z M17.031,8.276l3.078,3.106l-3.078,2.565V8.276z M20.109,20.617
			l-3.078,3.106v-6.441L20.109,20.617z"/>
	</g>
	<g id="storage" display="inline">
		<path fill-rule="evenodd" clip-rule="evenodd" fill="#333333" d="M7.333,22.333h4.06v1.333h-4.06V22.333z M6,20.333V25h20v-4.667
			H6z M7.333,15.667h4.06L11.383,17h-4.06L7.333,15.667z M6,13.667v4.667h20v-4.667H6z M7.333,9h4.06v1.343h-4.06V9z M6,7v4.667h20
			V7H6z"/>
	</g>
	<g id="battery" display="inline">
		<path fill="#333333" d="M18.666,8.333v-2h-5.333v2h-3v17.333h11.333V8.333H18.666z M11.667,14V9.667h3v-2h2.667v2h3V14H11.667z"/>
	</g>
	<g id="network_wifi" display="inline">
		<path fill="#333333" d="M26,13.608l2.457-2.999c-7.231-5.893-17.684-5.893-24.915,0l2.457,2.996c2.726-2.221,6.207-3.557,10-3.557
			C19.789,10.048,23.271,11.384,26,13.608z M12.795,21.898L16,25.81l3.205-3.909c-0.862-0.77-1.983-1.236-3.205-1.236
			C14.775,20.665,13.658,21.132,12.795,21.898z M9.624,18.033l2.591,3.161c1.022-0.906,2.339-1.458,3.784-1.458
			c1.442,0,2.762,0.552,3.784,1.458l2.592-3.161c-1.741-1.417-3.959-2.27-6.375-2.27S11.362,16.616,9.624,18.033z M16,10.967
			c-3.572,0-6.852,1.258-9.421,3.351l2.457,2.996c1.9-1.547,4.323-2.478,6.964-2.478c2.637,0,5.064,0.931,6.963,2.478l2.455-2.996
			C22.848,12.225,19.568,10.967,16,10.967z"/>
	</g>
	<g id="network_cell" display="inline">
		<g>
			<rect x="3.808" y="19.635" fill="#333333" width="4.223" height="6.555"/>
			<rect x="10.528" y="15.027" fill="#333333" width="4.224" height="11.162"/>
			<rect x="17.248" y="10.419" fill="#333333" width="4.225" height="15.771"/>
			<rect x="23.969" y="5.81" fill="#333333" width="4.224" height="20.379"/>
		</g>
	</g>
	<g id="data_usage" display="inline">
		<path fill="#333333" d="M16,6C10.483,6,6,10.486,6,16c0,5.517,4.483,10,10,10c5.514,0,10-4.483,10-10C26,10.486,21.514,6,16,6z
			 M7.23,16c0-4.837,3.934-8.771,8.77-8.771v8.56l5.98,6.608c-1.568,1.469-3.668,2.376-5.98,2.376
			C11.164,24.773,7.23,20.836,7.23,16z"/>
		<path fill="#333333" d="M21.867,23.073l-1.281-2.12l2.15,1.25L21.867,23.073z M6.75,16.917v-1.833l2.75,0.88L6.75,16.917z
			 M15.06,6.75h1.88L16,9.573L15.06,6.75z M15.11,25.416L16,22.75l0.887,2.666H15.11z M9.153,10.433l0.943-0.943l0.923,1.906
			L9.153,10.433z M10.097,22.513l0.919-1.906L9.153,21.57L10.097,22.513z"/>
	</g>
	<g id="brightness_auto" display="inline">
		<path fill="#333333" d="M15.976,13.349l-1.203,3.56h2.447l-1.203-3.56H15.976z M24.273,16l2.617-2.486l-3.437-1.104l1.278-3.375
			l-3.574,0.497l-0.312-3.596l-3.004,1.998L16,4.829l-1.84,3.105l-3.006-1.998l-0.312,3.596L7.267,9.035l1.28,3.375l-3.438,1.104
			L7.727,16l-2.618,2.486l3.438,1.104l-1.28,3.375l3.575-0.496l0.312,3.595l3.006-1.997L16,27.17l1.842-3.104l3.004,1.997
			l0.312-3.595l3.574,0.496l-1.278-3.375l3.437-1.104L24.273,16z M18.435,20.516l-0.704-2.087h-3.47l-0.705,2.087h-2.018
			l3.483-9.676h1.969l3.47,9.676H18.435z"/>
	</g>
	<g id="brightness_high" display="inline">
		<path fill="#333333" d="M24.271,16l2.619-2.486l-3.437-1.104l1.278-3.375l-3.574,0.497l-0.312-3.596l-3.004,1.998L16,4.829
			L14.16,7.934l-3.006-1.998l-0.312,3.596L7.267,9.035l1.28,3.375l-3.438,1.104L7.727,16l-2.618,2.486l3.438,1.104l-1.28,3.375
			l3.575-0.496l0.312,3.595l3.006-1.997L16,27.17l1.841-3.104l3.004,1.997l0.312-3.595l3.574,0.496l-1.278-3.375l3.437-1.104
			L24.271,16z M16,22.781c-3.745,0-6.781-3.037-6.781-6.781c0-3.745,3.036-6.781,6.781-6.781s6.782,3.036,6.782,6.781
			C22.781,19.744,19.744,22.781,16,22.781z M16,10.508c-3.029,0-5.492,2.463-5.492,5.492c0,3.028,2.463,5.492,5.492,5.492
			s5.493-2.464,5.493-5.492C21.492,12.971,19.028,10.508,16,10.508z"/>
	</g>
	<g id="brightness_medium" display="inline">
		<path fill="#333333" d="M24.272,16l2.618-2.486l-3.437-1.104l1.279-3.375l-3.575,0.497l-0.312-3.596l-3.004,1.998L16,4.829
			L14.16,7.935l-3.006-1.998l-0.312,3.596L7.267,9.035l1.28,3.375l-3.438,1.104L7.727,16l-2.618,2.486l3.438,1.104l-1.28,3.375
			l3.575-0.496l0.312,3.596l3.006-1.998L16,27.17l1.841-3.104l3.004,1.998l0.312-3.596l3.575,0.496l-1.279-3.375l3.437-1.104
			L24.272,16z M15.69,22.78V9.219c3.746,0,6.781,3.036,6.781,6.782C22.471,19.745,19.435,22.78,15.69,22.78z"/>
	</g>
	<g id="bightness_low" display="inline">
		<path fill="#333333" d="M24.272,16l2.618-2.486l-3.437-1.104l1.279-3.375l-3.575,0.497l-0.312-3.596l-3.004,1.998L16,4.829
			l-1.841,3.105l-3.006-1.998l-0.312,3.596L7.266,9.035l1.281,3.375l-3.438,1.104L7.727,16l-2.618,2.486l3.438,1.104l-1.281,3.375
			l3.576-0.496l0.312,3.596l3.006-1.998L16,27.17l1.841-3.104l3.004,1.998l0.312-3.596l3.575,0.496l-1.279-3.375l3.437-1.104
			L24.272,16z M15.69,22.78v-0.032h0c-3.736,0-6.765-3.028-6.765-6.765c0-3.735,3.029-6.765,6.765-6.765h0l0,0
			c0.125,0,0.246,0.012,0.369,0.019c0.107,0.006,0.217,0.006,0.323,0.017c3.42,0.346,6.089,3.234,6.089,6.747
			C22.471,19.745,19.435,22.78,15.69,22.78z"/>
	</g>
	<g id="not_secure" display="inline">
		<path fill="#333333" d="M21.547,16.098v-5.832c0-2.718-1.904-5.469-5.547-5.469s-5.548,2.751-5.548,5.469v3.553h2.336v-3.553
			c0-1.51,1.005-3.134,3.212-3.134c2.207,0,3.212,1.623,3.212,3.134v5.832H7.708v11.104h16.583V16.098H21.547z"/>
	</g>
	<g id="secure" display="inline">
		<path fill="#333333" d="M21.547,14.972v-3.58c0-2.718-1.904-5.469-5.547-5.469s-5.548,2.752-5.548,5.469v3.58H7.708v11.104h16.583
			V14.972H21.547z M12.788,11.393c0-1.51,1.005-3.134,3.212-3.134s3.212,1.624,3.212,3.134v3.58h-6.424V11.393z"/>
	</g>
	<g id="new_account" display="inline">
		<g>
			<g>
				<g>
					<polygon fill-rule="evenodd" clip-rule="evenodd" fill="#333333" points="22.219,22.19 22.219,17.713 20.818,17.713 
						20.818,22.19 16.406,22.19 16.406,23.59 20.818,23.59 20.818,28.065 22.219,28.065 22.219,23.59 26.63,23.59 26.63,22.19 					
						"/>
				</g>
			</g>
			<g>
				<path fill="#333333" d="M5.37,18.748v2.34h2.338l0.781-0.779v-1.561h1.559v-1.559h1.56l2.952-2.952
					c0.751,0.391,1.601,0.613,2.505,0.613c3.014,0,5.459-2.443,5.459-5.458c0-3.013-2.445-5.457-5.459-5.457
					c-3.013,0-5.457,2.444-5.457,5.457c0,0.905,0.223,1.755,0.612,2.506L5.37,18.748z M17.065,7.832c0-0.86,0.698-1.559,1.56-1.559
					c0.861,0,1.559,0.698,1.559,1.559c0,0.862-0.697,1.56-1.559,1.56C17.763,9.392,17.065,8.694,17.065,7.832z"/>
			</g>
		</g>
	</g>
	<g id="accounts" display="inline">
		<g>
			<path fill="#333333" d="M18.469,15.123c0.556-1.074,0.876-2.292,0.876-3.585c0-4.311-3.496-7.807-7.807-7.807
				c-4.31,0-7.806,3.496-7.806,7.807c0,4.311,3.496,7.808,7.806,7.808c1.294,0,2.511-0.32,3.584-0.877l4.223,4.222h2.232
				c0,0.002,0,2.232,0,2.232h2.229v2.23l1.116,1.115h3.346v-3.346L18.469,15.123z M9.307,11.538c-1.231,0-2.23-0.998-2.23-2.231
				c0-1.231,0.999-2.23,2.23-2.23c1.233,0,2.231,0.999,2.231,2.23C11.538,10.54,10.54,11.538,9.307,11.538z"/>
		</g>
	</g>
	<g id="dial_pad" display="inline">
		<path fill="#333333" d="M6.981,8.442h4.602V3.989H6.981V8.442z M13.643,8.465h4.679V3.989h-4.679V8.465z M6.981,15.04h4.602
			v-4.508H6.981V15.04z M13.581,14.993h4.742v-4.461h-4.742V14.993z M20.393,3.989v4.484h4.626V3.989H20.393z M20.393,14.993h4.649
			v-4.461h-4.649V14.993z M6.957,21.5h4.626v-4.507H6.957V21.5z M13.581,21.477h4.742V17.03h-4.742V21.477z M20.393,21.477h4.626
			v-4.461h-4.626V21.477z M13.581,28.011h4.742v-4.517h-4.742V28.011z"/>
	</g>
	<g id="ring_volume" display="inline">
		<path fill="#333333" d="M22.082,9.918c-1.464-1.464-3.236-2.637-5.141-3.402l-0.277,1.062c1.736,0.685,3.352,1.743,4.684,3.075
			c1.331,1.332,2.39,2.947,3.073,4.683l1.06-0.277C24.718,13.155,23.543,11.379,22.082,9.918z M17.568,9.667l-0.363,1.059
			c0.92,0.396,1.839,0.905,2.553,1.618c0.712,0.714,1.234,1.642,1.629,2.563l0.914-0.442c-0.462-1.093-1.005-2.056-1.841-2.892
			C19.643,10.752,18.651,10.129,17.568,9.667z M11.861,5.688c0.155,0,0.144,0.011,0.233,0.078c0.088,0.066,0.375,0.431,0.42,0.675
			c0.044,0.244,0.044,0.731,0.122,1.207c0.077,0.476,0.332,1.792,0.631,2.579c0.298,0.785,0.442,1.128,0.11,1.615
			c-0.332,0.487-2.302,2.512-2.302,2.512s0.575,1.007,1.151,1.727c0.575,0.719,1.372,1.748,2.467,2.677
			c1.096,0.931,2.17,1.748,3.353,2.358c1.162-1.15,2.146-2.124,2.413-2.358c0.266-0.231,0.31-0.309,0.862-0.142
			c0.554,0.165,1.294,0.487,2.07,0.63c0.774,0.145,1.614,0.243,2.111,0.299c0.5,0.056,0.487,0.076,0.652,0.31
			c0.168,0.231,0.335,0.53,0.355,0.609c0.023,0.078,0,0.408,0,1.428c0,1.018,0,2.515,0,2.799c0,0.287-0.021,0.309-0.089,0.508
			c-0.066,0.2-0.208,0.685-0.241,0.743c-0.035,0.054-0.478,0.33-0.819,0.341c-0.343,0.013-1.451-0.033-2.17-0.143
			c-0.721-0.109-2.71-0.575-3.486-0.829c-0.774-0.257-3.197-1.074-6.074-3.21c-2.876-2.135-4.88-4.991-6.031-7.27
			S5.875,9.96,5.676,8.699C5.477,7.438,5.487,6.95,5.554,6.596c0.066-0.354,0.41-0.608,0.619-0.73
			c0.211-0.122,0.498-0.21,0.808-0.177c0.31,0.033,1.173-0.007,2.313-0.007C10.434,5.681,11.861,5.688,11.861,5.688z"/>
	</g>
	<g id="end_call" display="inline">
		<path fill="#333333" d="M26.26,21.196c-0.108,0.109-0.108,0.093-0.219,0.109c-0.109,0.017-0.571-0.039-0.774-0.18
			c-0.204-0.14-0.549-0.484-0.938-0.768c-0.393-0.283-1.503-1.032-2.268-1.377c-0.769-0.345-1.11-0.485-1.223-1.064
			c-0.109-0.579-0.147-3.403-0.147-3.403s-1.118-0.305-2.037-0.407c-0.914-0.102-2.205-0.266-3.636-0.148
			c-1.433,0.118-2.77,0.297-4.038,0.705c-0.008,1.635-0.016,3.019-0.039,3.373c-0.024,0.351,0,0.438-0.509,0.71
			c-0.508,0.274-1.26,0.572-1.909,1.018c-0.649,0.446-1.315,0.971-1.706,1.284c-0.392,0.312-0.399,0.289-0.681,0.241
			c-0.282-0.045-0.611-0.141-0.681-0.18c-0.071-0.039-0.29-0.289-1.01-1.009c-0.72-0.721-1.778-1.777-1.981-1.979
			c-0.202-0.204-0.202-0.235-0.296-0.423c-0.095-0.188-0.336-0.633-0.352-0.696c-0.015-0.062,0.102-0.571,0.337-0.821
			c0.235-0.251,1.049-1.002,1.635-1.433c0.587-0.431,2.324-1.51,3.052-1.878c0.729-0.368,3.02-1.502,6.565-2.026
			c3.544-0.524,6.978,0.078,9.404,0.877c2.426,0.797,4.665,2.222,5.697,2.973c1.034,0.752,1.37,1.103,1.572,1.4
			c0.205,0.297,0.143,0.72,0.079,0.955c-0.062,0.234-0.202,0.501-0.446,0.697c-0.243,0.194-0.823,0.833-1.631,1.64
			C27.275,20.191,26.26,21.196,26.26,21.196z"/>
	</g>
</g>
<g id="_x30_9_media" display="none">
	<g id="volume_on" display="inline">
		<path fill="#333333" d="M25.682,8.04l-1.256,0.736c0.986,2.272,1.51,4.782,1.51,7.282c0,2.5-0.523,5.01-1.51,7.281l1.256,0.737
			c1.07-2.506,1.633-5.274,1.633-8.019C27.315,13.31,26.752,10.545,25.682,8.04z M21.979,12.159
			c0.493,1.235,0.876,2.575,0.876,3.915c0,1.34-0.383,2.7-0.876,3.935l1.274,0.443c0.594-1.459,0.986-2.874,0.986-4.442
			c0-1.539-0.344-3.053-0.926-4.503L21.979,12.159z M20.573,18.167l-1.164-0.44c0.393-1.044,0.4-2.12,0.017-2.953l1.131-0.521
			C21.079,15.386,21.085,16.812,20.573,18.167z M15.901,4.327h-1.983c-0.622,0-3.43,4.387-5.224,7.295H7.426H6.251H5.948
			c-0.696,0-1.263,1.943-1.263,4.378s0.567,4.377,1.263,4.377h1.478v0.016h0.987c1.804,2.735,4.893,7.28,5.505,7.28h1.93
			c1.275,0,2.234-5.253,2.234-11.698C18.082,9.53,17.174,4.327,15.901,4.327z M15.549,26.085c-0.588,0-1.39-2.892-1.691-6.894
			c0.818-0.5,1.398-1.739,1.398-3.191c0-1.456-0.58-2.691-1.398-3.192c0.301-4.006,1.102-6.893,1.691-6.893
			c0.734,0,1.327,4.515,1.327,10.085C16.876,21.565,16.283,26.085,15.549,26.085z"/>
	</g>
	<g id="volume_muted" display="inline">
		<path fill-rule="evenodd" clip-rule="evenodd" fill="#333333" d="M25.763,6.364l1.11,1.33L6.236,26.349l-1.11-1.331L25.763,6.364z
			 M18.032,26.081c-0.583,0-1.382-2.874-1.681-6.853l-3.871,3.495c1.646,2.419,3.469,4.942,3.928,4.942h1.923
			c1.271,0,2.225-5.25,2.225-11.692l-0.004-0.548l-1.201,1.084C19.316,21.838,18.741,26.081,18.032,26.081z M8.466,20.373h0.151
			l8.076-7.294c-0.108-0.104-0.225-0.194-0.346-0.268c0.298-4.006,1.098-6.892,1.684-6.892c0.484,0,0.903,1.975,1.137,4.922
			l1.081-0.977c-0.368-3.323-1.042-5.531-1.867-5.531h-1.975c-0.623,0-3.418,4.387-5.206,7.294H9.936H8.769H8.466
			c-0.696,0-1.262,1.94-1.262,4.373C7.204,18.433,7.771,20.373,8.466,20.373z"/>
	</g>
	<g id="make_available_offline" display="inline">
		<path fill="#333333" d="M11.598,19.466c-2.366-2.525-3.583-5.13-2.74-5.973l0.706-0.708c0.663-0.661,2.411-0.052,4.35,1.382
			l4.381-4.38c-1.099-1.458-1.618-2.671-1.218-3.071l0.894-0.895c0.582-0.581,2.892,0.784,5.157,3.05
			c2.266,2.267,3.632,4.576,3.05,5.158l-0.893,0.894c-0.401,0.399-1.615-0.12-3.071-1.218l-4.38,4.379
			c1.434,1.942,2.043,3.688,1.382,4.351l-0.708,0.708c-0.845,0.844-3.449-0.374-5.975-2.739l-2.528,2.528l-4.006,3.382l-0.312-0.31
			l3.383-4.008L11.598,19.466z"/>
	</g>
	<g id="upload" display="inline">
		<path fill="#333333" d="M4.793,23.164v2.005h22.413l-0.005-2.005H4.793z M15.906,6.831l5.455,7.442h-3.403v6.944h-4.071v-6.944
			h-3.438L15.906,6.831z"/>
	</g>
	<g id="download" display="inline">
		<path fill="#333333" d="M4.793,23.164v2.005h22.413l-0.005-2.005H4.793z M15.905,21.218l-5.456-7.441h3.403V6.831h4.071v6.945
			h3.438L15.905,21.218z"/>
	</g>
	<g id="return_from_full_screen" display="inline">
		<g>
			<polygon fill="#333333" points="17.276,14.717 18.364,7.655 20.228,9.519 24.031,5.717 26.258,7.945 22.455,11.748 24.339,13.63 
							"/>
			<polygon fill="#333333" points="14.724,17.283 13.636,24.344 11.773,22.48 7.969,26.283 5.741,24.055 9.543,20.252 7.662,18.369 
							"/>
			<polygon fill="#333333" points="14.723,14.7 7.661,13.611 9.524,11.747 5.722,7.944 7.95,5.717 11.753,9.519 13.635,7.637 			"/>
			<polygon fill="#333333" points="17.276,17.301 24.339,18.389 22.475,20.252 26.277,24.055 24.049,26.283 20.246,22.48 
				18.364,24.362 			"/>
		</g>
	</g>
	<g id="full_screen" display="inline">
		<g>
			<polygon fill="#333333" points="26.28,5.72 25.191,12.78 23.33,10.917 19.528,14.719 17.3,12.49 21.102,8.689 19.22,6.806 			"/>
			<polygon fill="#333333" points="5.719,26.279 6.808,19.221 8.67,21.084 12.472,17.281 14.7,19.51 10.898,23.31 12.78,25.193 			
				"/>
			<polygon fill="#333333" points="5.719,5.719 12.78,6.806 10.917,8.671 14.718,12.473 12.49,14.7 8.688,10.898 6.807,12.78 			"/>
			<polygon fill="#333333" points="26.28,26.28 19.22,25.193 21.083,23.329 17.282,19.527 19.51,17.301 23.312,21.102 
				25.193,19.221 			"/>
		</g>
	</g>
	<g id="repeat" display="inline">
		<g>
			<path fill="#333333" d="M25.73,15.548c0.021,0.169,0.035,0.341,0.035,0.517c0,2.434-1.98,4.414-4.414,4.414H9.429v-3.988
				l-6.218,5.025l6.218,5.024v-3.725h11.922c3.723,0,6.751-3.027,6.751-6.751c0-0.752-0.127-1.493-0.376-2.208L25.73,15.548z"/>
			<path fill="#333333" d="M6.268,16.453c-0.021-0.169-0.034-0.342-0.034-0.518c0-2.434,1.98-4.415,4.414-4.415H22.57v3.989
				l6.219-5.025L22.57,5.458v3.725H10.648c-3.723,0-6.752,3.029-6.752,6.752c0,0.751,0.126,1.492,0.376,2.208L6.268,16.453z"/>
		</g>
	</g>
	<g id="shuffle" display="inline">
		<g>
			<path fill="#333333" d="M3.8,11.096c1.567,0.003,3.055,0.359,4.547,1.086c1.309,0.644,2.609,1.58,3.87,2.785
				c0.117-0.127,0.232-0.256,0.348-0.386c0.498-0.571,1.028-1.128,1.58-1.662c-1.264-1.111-2.545-1.979-3.912-2.65
				C8.245,9.286,6.049,8.768,3.86,8.768c-0.211,0-0.419,0.008-0.622,0.018L2.83,8.805v2.334l0.451-0.027
				C3.454,11.102,3.626,11.096,3.8,11.096z"/>
			<path fill="#333333" d="M21.73,12.494c0.408-0.199,0.814-0.369,1.221-0.513v3.527l6.219-5.025l-6.219-5.025v4
				c-1.068,0.253-2.114,0.628-3.107,1.12c-2.207,1.087-4.232,2.707-6.192,4.95c-1.707,1.957-3.491,3.4-5.306,4.291
				c-1.491,0.729-2.979,1.084-4.546,1.088c-0.173,0-0.347-0.008-0.518-0.019L2.83,20.861v2.336l0.408,0.018
				c0.204,0.009,0.411,0.019,0.623,0.019h0.022c2.163,0,4.358-0.519,6.35-1.501c2.206-1.085,4.231-2.704,6.191-4.95
				C18.127,14.827,19.913,13.383,21.73,12.494z"/>
			<path fill="#333333" d="M22.951,20.02c-0.406-0.145-0.814-0.312-1.222-0.513c-1.196-0.588-2.394-1.426-3.561-2.495
				c-0.22,0.231-0.44,0.468-0.659,0.719c-0.394,0.451-0.81,0.897-1.241,1.328c1.157,0.976,2.33,1.751,3.575,2.364
				c0.994,0.49,2.04,0.865,3.107,1.118v4l6.219-5.025l-6.219-5.024V20.02z"/>
		</g>
	</g>
	<g id="add_to_queue" display="inline">
		<g>
			<polygon fill="#333333" points="9.735,11.484 22.266,11.484 22.266,20.518 24.027,20.518 24.027,9.723 9.735,9.723 			"/>
			<polygon fill="#333333" points="16.78,6.201 16.78,7.961 25.787,7.961 25.787,16.115 27.547,16.115 27.547,6.201 			"/>
			<path fill="#333333" d="M4.453,25.799h16.051V13.242H4.453V25.799z M8.248,20.041v-1.115v-0.12h0.119h3.394v-3.447V15.24h0.119
				h1.115h0.12v0.119v3.447h3.394h0.12v0.12v1.115v0.119h-0.12h-3.394v3.446v0.118h-0.12h-1.115h-0.119v-0.118V20.16H8.367H8.248
				V20.041z"/>
		</g>
	</g>
	<g id="fast_forward" display="inline">
		<polygon fill="#333333" points="5.351,22.45 15.477,16.604 15.477,22.45 26.648,16 15.477,9.549 15.477,15.396 5.351,9.549 		"/>
	</g>
	<g id="rewind" display="inline">
		<polygon fill="#333333" points="26.648,9.549 16.523,15.396 16.523,9.549 5.351,16 16.523,22.45 16.523,16.604 26.648,22.45 		"/>
	</g>
	<g id="next" display="inline">
		<polygon fill="#333333" points="25.169,9.581 25.169,15.404 15.083,9.581 15.083,15.404 4.997,9.581 4.997,22.418 15.083,16.593 
			15.083,22.418 25.169,16.593 25.169,22.418 27.002,22.418 27.002,9.581 		"/>
	</g>
	<g id="previous" display="inline">
		<polygon fill="#333333" points="27.003,9.581 16.917,15.404 16.917,9.581 6.83,15.404 6.83,9.581 4.997,9.581 4.997,22.418 
			6.83,22.418 6.83,16.593 16.917,22.418 16.917,16.593 27.003,22.418 		"/>
	</g>
	<g id="replay" display="inline">
		<path fill="#333333" d="M26.184,14.271c-0.499-1.308-1.28-2.51-2.206-3.534c-0.974-1.043-2.113-1.869-3.392-2.459
			c-1.101-0.513-2.316-0.814-3.531-0.935V2.93L8.242,8.839l8.813,5.892v-4.294c0.732,0.109,1.52,0.317,2.188,0.627
			c0.9,0.417,1.732,1.017,2.407,1.741c0.698,0.78,1.242,1.631,1.593,2.542c0.371,0.971,0.541,1.996,0.504,3.047
			c-0.037,1.049-0.276,2.062-0.715,3.005c-0.422,0.91-1.008,1.723-1.746,2.412c-0.146,0.135-0.292,0.263-0.443,0.384
			c-0.635,0.511-1.341,0.917-2.094,1.204c-0.971,0.37-1.996,0.542-3.046,0.506c-1.054-0.038-2.066-0.276-3.009-0.715
			c-0.908-0.424-1.723-1.014-2.419-1.758c-0.129-0.137-0.254-0.284-0.379-0.436c-0.504-0.628-0.909-1.333-1.199-2.091
			c-0.37-0.972-0.541-1.996-0.507-3.049c0.037-1.052,0.279-2.06,0.716-3.004l-2.795-1.272c-0.617,1.325-0.953,2.741-1.004,4.21
			c-0.049,1.475,0.19,2.91,0.713,4.274c0.401,1.055,0.966,2.039,1.678,2.925l0.033,0.04c0.159,0.197,0.328,0.391,0.502,0.577
			c0.964,1.032,2.102,1.858,3.383,2.453c1.326,0.614,2.744,0.953,4.213,1.003c1.468,0.051,2.905-0.188,4.269-0.711
			c1.06-0.406,2.046-0.974,2.933-1.687c0.209-0.168,0.411-0.343,0.607-0.527c1.037-0.966,1.862-2.104,2.457-3.381
			c0.615-1.325,0.952-2.743,1.002-4.214C26.946,17.075,26.707,15.637,26.184,14.271z"/>
	</g>
	<g id="pause_over_video" display="inline">
		<g>
			<rect x="10.844" y="10.843" fill="#333333" width="4.125" height="10.313"/>
			<rect x="17.031" y="10.843" fill="#333333" width="4.125" height="10.313"/>
		</g>
		<g>
			<path fill-rule="evenodd" clip-rule="evenodd" fill="#333333" d="M15.999,3.642C9.186,3.642,3.643,9.186,3.643,16
				s5.543,12.357,12.356,12.357c6.814,0,12.357-5.543,12.357-12.357S22.813,3.642,15.999,3.642z M15.999,27.055
				C9.904,27.055,4.946,22.096,4.946,16S9.904,4.944,15.999,4.944c6.096,0,11.055,4.96,11.055,11.056S22.095,27.055,15.999,27.055z"
				/>
		</g>
	</g>
	<g id="play_over_video" display="inline">
		<g>
			<polygon fill="#333333" points="12.076,10.138 12.076,22.024 22.37,16.081 			"/>
			<g>
				<path fill-rule="evenodd" clip-rule="evenodd" fill="#333333" d="M15.999,3.642C9.186,3.642,3.643,9.186,3.643,16
					c0,6.815,5.543,12.357,12.356,12.357c6.814,0,12.357-5.543,12.357-12.357C28.356,9.186,22.813,3.642,15.999,3.642z
					 M15.999,27.055C9.904,27.055,4.946,22.096,4.946,16S9.904,4.945,15.999,4.945c6.096,0,11.054,4.959,11.054,11.055
					S22.095,27.055,15.999,27.055z"/>
			</g>
		</g>
	</g>
	<g id="stop" display="inline">
		<rect x="6.831" y="6.831" fill="#333333" width="18.338" height="18.338"/>
	</g>
	<g id="pause" display="inline">
		<g>
			<rect x="6.831" y="6.831" fill="#333333" width="7.335" height="18.338"/>
			<rect x="17.834" y="6.831" fill="#333333" width="7.335" height="18.338"/>
		</g>
	</g>
	<g id="play" display="inline">
		<polygon fill="#333333" points="6.472,4.997 6.472,27.003 25.528,16 		"/>
	</g>
	<g id="slideshow" display="inline">
		<g>
			<g>
				<path fill="#333333" d="M5.031,5.031v21.938h21.938V5.031H5.031z M25.486,25.486H6.516V6.516h18.971V25.486z"/>
			</g>
			<g>
				<g>
					<polygon fill="#333333" points="10.966,9.856 10.966,22.06 21.533,15.958 					"/>
				</g>
			</g>
		</g>
	</g>
	<g id="cast_2_" display="inline">
		<path fill-rule="evenodd" clip-rule="evenodd" fill="#333333" d="M7.269,8.502v5.542c0.522,0.102,1.03,0.242,1.521,0.417v-4.436
			h15.465v10.65h-9.168c0.183,0.489,0.331,0.997,0.438,1.521h10.253V8.502H7.269z M6.255,15.506v1.67
			c3.235,0.449,5.783,3.033,6.173,6.286h1.674C13.695,19.293,10.408,15.97,6.255,15.506z M6.255,18.433v1.674
			c1.639,0.386,2.92,1.697,3.257,3.357h1.672C10.807,20.896,8.807,18.859,6.255,18.433z M6.255,21.405v2.058h1.969
			C7.94,22.497,7.201,21.731,6.255,21.405z"/>
	</g>
</g>
<g id="_x30_8_camera" display="none">
	<g id="mic_muted_1_" display="inline">
		<path fill="#333333" d="M15.852,5.493c-1.848,0-3.268,1.392-3.268,3.253v5.785l6.508-6.507
			C18.676,6.636,17.361,5.493,15.852,5.493z M21.261,15.254c0,3.368-2.331,6.068-5.409,6.068c-0.691,0-1.342-0.15-1.949-0.396
			l-1.464,1.474c0.709,0.361,1.481,0.615,2.298,0.737v3.687h2.231v-3.687c3.655-0.541,6.462-3.905,6.462-7.883H21.261z
			 M15.852,18.965c1.844,0,3.334-1.509,3.334-3.369v-2.562l3.913-3.94l-1.344-1.355L8.602,20.988l1.335,1.344l3.984-3.996
			C14.467,18.729,15.13,18.965,15.852,18.965z"/>
	</g>
	<g id="mic_1_" display="inline">
		<path fill="#333333" d="M16.017,18.694c1.711,0,3.291-1.51,3.291-3.292v-6.95c0-1.782-1.58-3.292-3.291-3.292
			c-1.71,0-3.292,1.51-3.292,3.292v6.95C12.725,17.185,14.307,18.694,16.017,18.694z M21.504,15.037
			c0,3.164-2.462,5.837-5.497,5.837c-3.035,0-5.477-2.673-5.477-5.837H8.335c0,3.959,2.905,7.588,6.572,8.102l0.01,3.6l2.194,0.007
			l0.01-3.598c3.67-0.515,6.578-4.151,6.578-8.11H21.504z"/>
	</g>
	<g id="flash_automatic" display="inline">
		<path fill="#333333" d="M21.253,13.775L23.381,8h-5.983l-1.616,8.401h2.991l-1.568,7h0.994l6.311-9.626H21.253z M11.428,19.345
			c-0.026-0.089-0.054-0.184-0.083-0.29c-0.028-0.107-0.056-0.213-0.082-0.319c-0.025-0.106-0.043-0.199-0.054-0.274
			c-0.009,0.047-0.019,0.103-0.033,0.168c-0.014,0.064-0.03,0.131-0.049,0.203l-0.055,0.217l-0.056,0.205l-0.047,0.171
			c-0.014,0.049-0.023,0.126-0.03,0.149l-0.299,1.027h1.147l-0.301-1.027C11.472,19.535,11.452,19.432,11.428,19.345z
			 M12.338,22.525l-0.32-1.049H10.4l-0.324,1.049H9.072l1.525-4.725h1.216l1.532,4.725H12.338z M11.149,16.682
			c-2.021,0-3.66,1.638-3.66,3.659S9.128,24,11.149,24c2.018,0,3.658-1.639,3.658-3.659S13.167,16.682,11.149,16.682z"/>
	</g>
	<g id="flash_off" display="inline">
		<path fill="#333333" d="M21.703,13.8l2.09-5.8h-5.838l-1.599,8.435h2.919l-1.529,6.855h0.969l6.165-9.49H21.703z M13.892,24
			l-2.619-2.617L8.657,24L7.12,22.465l2.617-2.618L7.12,17.23l1.537-1.534l2.616,2.615l2.617-2.615l1.536,1.536l-2.615,2.614
			l2.615,2.618L13.892,24z"/>
	</g>
	<g id="flash_on" display="inline">
		<path fill="#333333" d="M17.141,14.021L19.334,8h-6.165l-1.667,8.774h3.083L12.967,24h1.025l6.506-9.979H17.141z"/>
	</g>
	<g id="switch_camera" display="inline">
		<g>
			<path fill-rule="evenodd" clip-rule="evenodd" fill="#333333" d="M3.486,18.455c0,0.986,2.813,2.647,7.844,3.264l0.01-1.877
				l4.304,3.023l-4.337,2.643l0.017-1.923c-4.803-0.573-9.273-2.023-9.273-5.13c0-1.04,1.38-2.09,3.56-2.617l0.02,0.771
				C4.247,17.211,3.486,17.889,3.486,18.455z M17.779,23.852l-0.013-2.133c7.073-0.041,10.763-1.921,10.763-3.308
				c0-0.466-0.526-1.013-1.5-1.533l-0.016-0.783c1.67,0.55,2.936,1.31,2.936,2.316C29.95,21.448,24.597,23.815,17.779,23.852z"/>
			<path fill-rule="evenodd" clip-rule="evenodd" fill="#333333" d="M11.833,7.332V6.825H9.5v1.334L11.833,7.332z M19.166,12.991
				c0-1.563-1.27-2.833-2.833-2.833c-1.563,0-2.833,1.27-2.833,2.833c0,1.563,1.27,2.833,2.833,2.833
				C17.896,15.825,19.166,14.555,19.166,12.991z M23.81,7.508h-5.046l0.013-1.017L13.89,6.495l-0.017,1.017l-0.85-0.004l-4.187,1.65
				v8.666h14.99C23.844,17.828,23.81,7.508,23.81,7.508z M20.413,12.991c0,2.253-1.827,4.08-4.08,4.08s-4.08-1.827-4.08-4.08
				c0-2.253,1.827-4.08,4.08-4.08S20.413,10.738,20.413,12.991z"/>
		</g>
	</g>
	<g id="switch_video" display="inline">
		<path fill-rule="evenodd" clip-rule="evenodd" fill="#333333" d="M3.486,17.788c0,0.986,2.813,2.647,7.844,3.264l0.01-1.878
			l4.303,3.024l-4.337,2.643l0.017-1.923c-4.803-0.573-9.273-2.023-9.273-5.13c0-1.04,1.38-2.09,3.56-2.616l0.02,0.769
			C4.247,16.545,3.486,17.221,3.486,17.788z M7.189,15.845l0.007-6.927c0-0.973,0.79-1.76,1.764-1.76h11.536l-0.05,10.33
			l-11.53-0.018C7.943,17.471,7.189,16.818,7.189,15.845z M21.5,14.472v-4.333l3.459-1.98h0.874l-0.021,8.25l-0.8,0.017L21.5,14.472
			z M17.779,23.185l-0.013-2.133c7.073-0.04,10.763-1.921,10.763-3.308c0-0.466-0.526-1.013-1.5-1.532l-0.017-0.784
			c1.671,0.55,2.938,1.31,2.938,2.316C29.95,20.781,24.596,23.148,17.779,23.185z"/>
	</g>
	<g id="camera" display="inline">
		<g>
			<circle fill="#333333" cx="15.991" cy="17.023" r="4.127"/>
			<path fill="#333333" d="M27.202,9.15h-7.616V8.294c0-1.135,0-1.017,0-1.017h-7.103c0,0,0-0.119,0,1.017V9.15
				c0,0-0.764-0.013-1.412,0c-0.647,0.011-1.378,0.254-1.378,0.254l-4.903,1.583c0,0,0.011,0.688,0,1.179
				c-0.013,0.491,0,11.533,0,11.533c0,0.566,0,1.026,0,1.026s22.385-0.002,22.412,0c0.028,0.003,0-0.46,0-1.026V10.177
				C27.202,9.61,27.202,9.15,27.202,9.15z M15.992,23.055c-3.332,0-6.032-2.701-6.032-6.031c0-3.33,2.7-6.031,6.032-6.031
				c3.33,0,6.03,2.701,6.03,6.031C22.022,20.354,19.322,23.055,15.992,23.055z"/>
			<path fill="#333333" d="M9.307,8.627L5.722,9.842V8.197c0-0.175,0-0.316,0-0.316h3.585c0,0,0,0.141,0,0.316V8.627z"/>
		</g>
	</g>
	<g id="video" display="inline">
		<g>
			<g>
				<polygon fill="#333333" points="25.217,11.164 21.246,13.516 21.246,18.362 25.217,20.729 26.212,20.729 26.212,11.164 				"/>
			</g>
			<g>
				<g>
					<path fill="#333333" d="M5.788,12.108v7.78c0,1.07,0.865,1.935,1.933,1.935h12.559V10.175H7.721
						C6.653,10.175,5.788,11.039,5.788,12.108z"/>
				</g>
			</g>
		</g>
	</g>
	<g id="rotate_left" display="inline">
		<g>
			<circle fill="#333333" cx="15.789" cy="16.086" r="2.205"/>
			<path fill="#333333" d="M26.58,15.197c-0.103-1.413-0.473-2.769-1.095-4.034c-0.647-1.309-1.54-2.46-2.655-3.421
				c-1.111-0.96-2.384-1.675-3.775-2.124c-1.332-0.43-2.758-0.576-4.137-0.496c-1.424,0.105-2.78,0.475-4.043,1.102
				C9.779,6.765,8.776,7.53,7.917,8.406L7.904,8.398L5.903,6.695l-0.514,7.034l6.864-1.627l-1.98-1.686l-0.013-0.009
				c0.559-0.53,1.252-1.047,1.947-1.389c0.889-0.44,1.879-0.712,2.866-0.785c1.045-0.056,2.049,0.055,2.979,0.352
				c0.989,0.319,1.894,0.83,2.691,1.517c0.794,0.687,1.432,1.507,1.893,2.441c0.445,0.9,0.711,1.865,0.785,2.871
				c0.015,0.199,0.022,0.393,0.022,0.586c0,0.816-0.126,1.62-0.374,2.386c-0.32,0.989-0.829,1.896-1.516,2.691
				c-0.69,0.799-1.51,1.438-2.442,1.896c-0.898,0.443-1.869,0.709-2.886,0.784c-0.188,0.015-0.381,0.021-0.577,0.022
				c-0.806,0-1.609-0.127-2.381-0.376c-0.989-0.32-1.895-0.83-2.693-1.516c-0.796-0.688-1.432-1.509-1.894-2.44L5.937,20.83
				c0.646,1.311,1.539,2.46,2.652,3.422c1.117,0.961,2.387,1.675,3.777,2.121c1.073,0.348,2.194,0.525,3.33,0.525h0.052
				c0.254,0,0.51-0.011,0.765-0.03c1.408-0.104,2.765-0.474,4.031-1.099c1.311-0.648,2.463-1.541,3.423-2.654
				c0.96-1.113,1.675-2.381,2.121-3.772c0.347-1.08,0.523-2.205,0.523-3.342C26.61,15.732,26.602,15.466,26.58,15.197z"/>
		</g>
	</g>
	<g id="rotate_right" display="inline">
		<g>
			<circle fill="#333333" cx="16.21" cy="16.086" r="2.206"/>
			<path fill="#333333" d="M21.427,21.89c-0.798,0.686-1.704,1.195-2.693,1.516c-0.773,0.249-1.575,0.376-2.381,0.376
				c-0.197-0.002-0.39-0.008-0.577-0.022c-1.018-0.075-1.988-0.341-2.886-0.784c-0.932-0.459-1.752-1.098-2.443-1.896
				c-0.686-0.796-1.195-1.702-1.516-2.691c-0.247-0.766-0.373-1.57-0.373-2.386c0-0.193,0.007-0.387,0.022-0.586
				c0.074-1.006,0.339-1.972,0.785-2.871c0.461-0.934,1.099-1.755,1.894-2.441c0.796-0.687,1.702-1.197,2.691-1.517
				c0.93-0.298,1.934-0.408,2.979-0.352c0.987,0.073,1.977,0.345,2.865,0.785c0.694,0.342,1.389,0.859,1.947,1.389l-0.013,0.009
				l-1.98,1.686l6.863,1.627l-0.515-7.034l-2,1.703l-0.014,0.008c-0.859-0.876-1.861-1.642-2.958-2.181
				c-1.263-0.627-2.619-0.998-4.042-1.102c-1.379-0.081-2.805,0.065-4.137,0.496c-1.393,0.449-2.664,1.164-3.775,2.124
				c-1.116,0.961-2.009,2.112-2.656,3.421c-0.621,1.265-0.991,2.621-1.095,4.034c-0.021,0.269-0.03,0.536-0.03,0.804
				c0,1.137,0.176,2.262,0.523,3.342c0.447,1.392,1.162,2.659,2.121,3.772c0.96,1.113,2.112,2.006,3.422,2.654
				c1.266,0.625,2.622,0.995,4.032,1.099c0.254,0.019,0.51,0.03,0.764,0.03h0.052c1.135,0,2.256-0.178,3.33-0.525
				c1.39-0.446,2.659-1.16,3.776-2.121c1.114-0.962,2.007-2.111,2.652-3.422l-2.742-1.381C22.857,20.381,22.223,21.201,21.427,21.89
				z"/>
		</g>
	</g>
	<g id="crop" display="inline">
		<g>
			<path fill="#333333" d="M27.072,21.46h-3.497V8.985H9.977V5.489H8.424v3.497H4.928v1.554h3.496v12.474h13.598v3.497h1.554v-3.497
				h3.497V21.46z M9.977,21.46V10.54h12.044v10.92H9.977z"/>
			<polygon fill="#333333" points="14.374,15.663 17.387,17.929 18.913,17.348 20.791,18.836 20.791,20.195 11.208,20.195 
				11.208,17.735 			"/>
		</g>
	</g>
</g>
<g id="_x30_7_location" display="none">
	<g id="web_site" display="inline">
		<g>
			<polygon fill="#333333" points="25.196,13.548 25.305,13.494 25.346,13.386 25.328,13.398 25.208,13.328 25.078,13.305 
				25.028,13.46 25.086,13.54 			"/>
			<polygon fill="#333333" points="25.77,14.271 25.72,14.099 24.668,13.417 24.414,13.401 24.188,13.65 24.074,13.96 
				24.168,14.132 			"/>
			<polygon fill="#333333" points="9.641,13.449 9.519,13.884 9.912,13.439 9.944,13.3 9.775,13.233 			"/>
			<polygon fill="#333333" points="9.878,12.747 9.877,12.771 9.203,13.087 10.055,12.919 			"/>
			<polygon fill="#333333" points="10.388,13.591 10.471,13.525 10.543,13.356 10.531,13.379 10.59,13.181 10.43,13.157 
				10.307,13.189 10.227,13.274 10.186,13.417 10.293,13.555 			"/>
			<polygon fill="#333333" points="23.84,10.558 23.719,10.491 23.18,10.458 22.953,10.266 23.227,9.255 21.887,11.425 
				21.534,11.689 22.188,11.936 			"/>
			<polygon fill="#333333" points="25.104,16.569 26.438,18.688 25.361,16.685 			"/>
			<path fill="#333333" d="M16.001,3.641C9.176,3.641,3.641,9.174,3.641,16s5.535,12.358,12.36,12.358S28.358,22.826,28.358,16
				S22.826,3.641,16.001,3.641z M20.119,12.132l-0.028,0.349l-0.506,0.117l-0.214-0.539l-0.004-1.051L20.119,12.132z M20.024,9.412
				l-0.316,0.247l-0.493-0.047l-0.04-0.1l0.016-0.455l0.365,0.08l0.383-0.086l0.18,0.072L20.024,9.412z M13.262,5.532l0.221-0.291
				c0.369-0.085,0.744-0.152,1.127-0.201l-1.2,0.785L12.792,5.85L13.262,5.532z M12.044,5.762l0.232,0.045l0.805,0.457l0.193,0.029
				l-0.322,0.31l-0.521-0.07L12.024,6.21L12.044,5.762z M11.567,5.866l0.048,0.07l-0.135,0.165l-0.246,0.105L11.009,6.22
				l-0.044-0.059C11.164,6.06,11.362,5.954,11.567,5.866z M10.375,7.279l0.417-0.459l0.162,0.083l-0.061,0.298l-0.217,0.255
				l-0.302-0.044L10.375,7.279z M8.2,8.184l0.327-0.227l-0.06-0.06c0.342-0.315,0.701-0.613,1.081-0.883l0.054,0.02l0.54-0.105
				l-0.016,0.603L9.502,8.202L8.703,8.57L8.16,8.26L8.2,8.184z M5.108,17.195l-0.224-0.502c-0.002-0.037-0.006-0.074-0.006-0.111
				l0.239,0.41L5.108,17.195z M15.38,24.119l-1.219,0.899l-1.371,1.756c-0.793-0.239-1.543-0.569-2.25-0.97L10.5,24.4l-1.31-2.534
				l0.021-0.494l0.377-0.901l-0.009-0.606l-0.413-0.457l-3.022-1.333L5.14,16.369l-0.275-0.102l-0.005,0.018
				c-0.001-0.037-0.006-0.072-0.006-0.108c-0.022-2.96,1.121-5.652,2.989-7.662l0.344,0.191l1.899-0.391l0.225-0.131l0.05,0.104
				l-0.135,0.254L10.2,8.654l1.32-1.84l0.096-0.036l0.087-0.001l0.076,0.032l0.068,0.066l-0.831,1.547l0.319,0.3l0.449-0.308
				l0.1-1.388l0.568-0.179L12.18,7.294l0.842-0.477l0.293,0.067l0.029,0.14l-0.536,0.096l1.013,0.862l0.393,0.674l-0.509,0.56
				l0.082,0.095l-0.371,0.587l-0.089-0.006l-0.19,0.101l-0.873-0.549l0.877-0.716l-0.131-0.29l-0.834-0.527l-0.268,0.756
				l-1.811,1.404l-0.592,0.89l0.503,0.573l0.815,0.375l0.343,0.308l0.712-1.822l0.275-0.265l1.221,0.589l0.14-0.019l1.003,2.424
				l-0.302,0.114l-0.373-0.019l-0.121-0.162l0.168-0.119l0.095-0.123l0.021-0.129l-0.055-0.136l-1.53,0.434l0.602,0.444l0.338,0.043
				l-2.327,1.297l-1.055,1.534l0.007,0.807l-0.389-0.092L9.41,16.489l-1.258-0.234l-0.504,0.28l-0.424,0.576l-0.083,0.312
				l0.047,0.38l0.242,0.26l0.675-0.324l0.216,0.025l0.822,1.387l2.707,0.092l1.152,0.438l0.935,1.226l1.597,0.474l0.557,0.413
				L15.38,24.119z M11.62,9.693l-0.146,0.092L11.01,9.783l-0.068-0.072l0.379-0.477l0.102,0.025l0.102,0.148L11.62,9.693z
				 M15.764,10.004l-0.254-0.729l0.096-0.691l0.4-0.94l-0.234-1.562l-0.807-0.105L14.85,5.769l0.058-0.283l0.296-0.425l0.145-0.079
				c0.19-0.012,0.377-0.031,0.569-0.033c1.457-0.011,2.846,0.267,4.124,0.765l-0.737,1.974l-3.141,2.717L15.764,10.004z
				 M26.743,19.044c-0.685,2.495-2.21,4.642-4.26,6.11l-1.506-5.049l-0.791-0.226l-1.754,0.006l-1.062-0.626l0.061-1.242l1.424-2.8
				l-0.069-0.585l0.072-0.479l0.93-0.37l-0.059-0.263l-0.174-0.29l-0.016-0.205l2.15-1.585v-0.303l-0.766-0.588l-0.076-0.287
				l1.628-2.21l0.621-0.267l0.34,0.022c0.405,0.364,0.791,0.748,1.139,1.166l-0.149,0.045l0.404,0.414l0.07-0.029
				c0.947,1.258,1.644,2.719,1.989,4.314L26.87,13.8l0.06,0.121c0.134,0.676,0.212,1.376,0.219,2.093
				c0.007,1.01-0.132,1.984-0.376,2.916l-0.086,0.053L26.743,19.044z"/>
			<polygon fill="#333333" points="25.188,15.152 23.52,14.699 23.352,14.495 23.385,14.981 23.342,15.018 22.035,13.654 
				22.033,13.664 21.823,13.714 21.788,13.664 21.852,13.927 22.366,14.304 22.405,14.58 22.305,14.749 22.23,14.804 22.137,14.837 
				21.646,14.065 20.907,14.07 19.367,15.213 21.388,15.139 22.301,15.967 22.736,16.119 25.16,15.633 			"/>
		</g>
	</g>
	<g id="map" display="inline">
		<g>
			<path fill="#333333" d="M6.478,24.044c-0.801-1.197,0.991-2.257,1.863-3.092c0.478-0.458,3.377-3.194,2.117-3.751
				C9.689,16.862,7,14.479,6.097,15.079c-0.25,0.168-1,0.326-1.397,0.337v2.269c0.352,0.578,1.424,0.939,1.418,1.682
				C6.106,20.551,4.61,23.81,6.478,24.044z M6.936,10.549c0.287-0.245-0.57-0.937-0.02-1.081c0.134-0.034,1.963,1.04,1.976,0.894
				c0.037-0.435-2.017-1.649-2.458-1.9C4.988,7.646,5.33,8.951,4.633,9.557v2.253c0.068-0.104,0.556-0.214,0.668-0.337
				C5.768,10.961,6.447,10.966,6.936,10.549z M21.766,20.129c0.579-0.332,0.423-1.746,0.256-1.949
				C21.717,18.463,21.227,20.435,21.766,20.129z M16.157,15.726c1.216,0.485,1.134,6.834,3.108,5.149
				c1.039-0.886,1.324-2.006,1.396-3.222c0.038-0.632,1.94-2.212,1.753-2.613c-0.156-0.332-1.156,0.486-1.204-0.246
				c-0.029-0.44-1.346-1.381-1.103-1.722c0.367-0.519,0.891,0.953,0.885,0.937c0.335,0.793,0.623,0.653,1.348,0.471
				c1.678-0.424,0.242-0.954-0.191-1.518c-0.576-0.75,1.834,0.146,1.989,0.148c0.966,0.008,1.133,2.299,1.649,2.184
				c0.33-0.073,1.163-0.908,1.591-1.413V7.864c-0.356,0.008-1.184,0.019-1.541,0.018c-0.419-0.003-2.54,0.201-2.441-0.599
				c0.01-0.075-2.873,0.793-3.181,0.715c-0.369-0.097,0.662-0.587,0.657-0.543c0.021-0.189-0.075-0.308-0.241-0.381h-1.309
				c-1.199,0.226-2.699,0.839-2.971,1.225c0.286-0.405,0.904,1.016,0.913,1.019c0.121,0.052,1.08-1.618,1.459-1
				c0.497,0.806-1.671,1.231-2.098,1.064c-0.303-0.119-0.81,0.583-0.929,0.467c-0.351-0.345-0.234-1.489-0.403-1.59
				c-0.494-0.292-0.833,1.259-0.899,1.354c-0.083,0.122,1.53,0.648,0.905,0.958c-0.161,0.081-1.602-0.054-1.375,0.681
				c0.359,1.163,2.896-1.264,3.257-0.415c0.268,0.623,2.909-0.188,3.409-0.312c-0.516,2.112-2.7,1.647-4.189,1.226
				c-1.407-0.398-2.917,1.023-2.984,2.379C13.301,16.53,14.986,15.253,16.157,15.726z M24.19,23.854
				c-0.631,0.24-0.72,1.223-0.597,1.598h3.716v-3.691C26.447,22.341,25.592,23.32,24.19,23.854z M5.606,13.927
				c-0.057-0.468-0.766-0.76-0.974-1.057v0.47C4.946,13.643,5.605,13.913,5.606,13.927z M30.245,3.606H1.754v24.788h28.491V3.606z
				 M28.4,26.478H3.543V5.581H28.4V26.478z"/>
		</g>
	</g>
	<g id="directions" display="inline">
		<path fill="#333333" d="M25.735,15.602l-9.339-9.337c-0.218-0.219-0.574-0.222-0.792,0l-9.338,9.337
			c-0.219,0.219-0.219,0.572,0,0.793l9.338,9.339c0.109,0.109,0.252,0.164,0.394,0.164c0.145,0,0.288-0.055,0.396-0.164l0.797-0.796
			l8.544-8.543c0.104-0.106,0.163-0.247,0.163-0.396C25.898,15.85,25.84,15.708,25.735,15.602z M17.537,17.506v-1.669h-2.439v4.319
			h-1.99v-6.208h0.004v-0.106h4.426v-1.688l3.65,2.676L17.537,17.506z"/>
	</g>
	<g id="location_off" display="inline">
		<g>
			<polygon fill="#333333" points="19.641,13.317 19.721,13.236 18.756,12.266 15.997,15.034 13.319,12.346 13.237,12.266 
				12.271,13.236 15.031,16.002 12.352,18.69 12.271,18.77 13.237,19.74 15.997,16.972 18.675,19.658 18.756,19.74 19.723,18.77 
				16.963,16.002 			"/>
			<path fill="#333333" d="M27.715,15.315l-2.775,0.004c-0.334-4.42-3.873-7.946-8.295-8.263L16.64,4.28l-1.326,0.002l0.005,2.777
				c-4.419,0.334-7.945,3.874-8.262,8.294L4.28,15.36l0.001,1.324l2.777-0.005c0.334,4.419,3.874,7.944,8.295,8.262l0.004,2.779
				l1.326-0.002l-0.006-2.779c4.42-0.334,7.945-3.874,8.263-8.295l2.777-0.004L27.715,15.315z M16.013,23.648
				c-4.218,0.008-7.655-3.416-7.663-7.634c-0.009-4.219,3.416-7.657,7.634-7.666c4.219-0.008,7.658,3.417,7.666,7.637
				C23.658,20.203,20.23,23.641,16.013,23.648z"/>
		</g>
	</g>
	<g id="place_1_" display="inline">
		<path id="place" fill="#333333" d="M16.017,5.024c-3.813,0-6.904,3.127-6.904,6.986c0,3.858,6.904,15.129,6.904,15.129
			S22.92,15.868,22.92,12.01C22.92,8.151,19.83,5.024,16.017,5.024z M16.016,13.267c-1.168,0-2.114-0.957-2.114-2.141
			c0-1.181,0.946-2.14,2.114-2.14c1.169,0,2.113,0.959,2.113,2.14C18.129,12.309,17.185,13.267,16.016,13.267z"/>
	</g>
	<g id="location_found" display="inline">
		<g>
			<circle fill="#333333" cx="15.999" cy="16" r="4.65"/>
			<path fill="#333333" d="M27.715,15.315l-2.775,0.004c-0.334-4.42-3.873-7.946-8.295-8.263L16.64,4.28l-1.326,0.002l0.005,2.777
				c-4.419,0.334-7.945,3.874-8.262,8.294L4.28,15.36l0.002,1.324l2.776-0.005c0.335,4.419,3.875,7.944,8.296,8.262l0.004,2.779
				l1.326-0.002l-0.006-2.779c4.42-0.334,7.945-3.874,8.263-8.295l2.777-0.004L27.715,15.315z M16.013,23.648
				c-4.218,0.008-7.655-3.416-7.662-7.634c-0.009-4.219,3.415-7.657,7.634-7.666c4.219-0.008,7.657,3.417,7.665,7.637
				C23.658,20.203,20.23,23.641,16.013,23.648z"/>
		</g>
	</g>
	<g id="location_searching" display="inline">
		<g>
			<path fill="#333333" d="M27.715,15.315l-2.775,0.004c-0.333-4.42-3.873-7.946-8.295-8.263L16.64,4.28l-1.326,0.002l0.004,2.777
				c-4.418,0.334-7.945,3.874-8.261,8.294L4.281,15.36l0.001,1.324l2.776-0.005c0.335,4.419,3.874,7.944,8.296,8.262l0.004,2.779
				l1.326-0.002l-0.006-2.779c4.42-0.334,7.945-3.874,8.264-8.295l2.776-0.004L27.715,15.315z M16.013,23.648
				c-4.218,0.008-7.655-3.416-7.663-7.634c-0.009-4.219,3.415-7.657,7.633-7.666c4.219-0.008,7.658,3.417,7.666,7.637
				C23.658,20.203,20.231,23.641,16.013,23.648z"/>
		</g>
	</g>
</g>
<g id="_x30_6_social" display="none">
	<g id="add_group" display="inline">
		<g>
			<polygon fill="#333333" points="27.131,23.778 27.131,19.403 25.805,19.403 25.805,23.778 21.495,23.778 21.495,25.106 
				25.805,25.106 25.805,29.423 27.131,29.423 27.131,25.106 31.469,25.106 31.469,23.778 			"/>
			<path fill="#333333" d="M14.897,2.576c-3.649,0-6.606,2.958-6.606,6.607c0,3.65,2.957,6.608,6.606,6.608
				c3.651,0,6.608-2.958,6.608-6.608C21.505,5.534,18.548,2.576,14.897,2.576z M15.22,14.417c-1.97,0-3.702-1.293-4.712-3.251h9.423
				C18.921,13.123,17.19,14.417,15.22,14.417z M7.731,11.814c-0.524,0.554-1.192,0.893-1.925,0.893c-1.06,0-1.991-0.695-2.534-1.748
				h4.202c-0.136-0.57-0.211-1.164-0.211-1.774c0-0.782,0.119-1.537,0.338-2.248C7.037,6.56,6.36,6.34,5.631,6.34
				C3.67,6.34,2.08,7.93,2.08,9.893c0,1.962,1.59,3.553,3.552,3.553c0.925,0,1.764-0.356,2.396-0.934
				C7.918,12.285,7.818,12.052,7.731,11.814z M24.168,6.34c-0.73,0-1.408,0.221-1.973,0.598c0.22,0.71,0.338,1.464,0.338,2.246
				c0,0.611-0.074,1.205-0.211,1.774h4.553c-0.543,1.053-1.475,1.748-2.533,1.748c-0.856,0-1.623-0.459-2.176-1.188
				c-0.109,0.341-0.242,0.672-0.396,0.99c0.632,0.581,1.472,0.937,2.397,0.937c1.963,0,3.553-1.59,3.553-3.553
				C27.721,7.93,26.131,6.34,24.168,6.34z M18.885,16.648c-1.188,0.638-2.546,1-3.988,1c-1.44,0-2.797-0.362-3.985-1
				c-2.567,0.674-4.579,2.274-5.501,5.71h18.976C23.465,18.921,21.454,17.322,18.885,16.648z M9.852,15.176
				c-0.548-0.664-1.259-1.056-2.077-1.27c-0.639,0.343-1.369,0.538-2.144,0.538c-0.774,0-1.503-0.195-2.142-0.538
				c-1.38,0.362-2.462,1.222-2.958,3.07h6.117C7.545,16.182,8.614,15.581,9.852,15.176z M23.15,16.977h6.12
				c-0.496-1.849-1.577-2.708-2.959-3.071c-0.639,0.343-1.369,0.538-2.144,0.538c-0.773,0-1.504-0.195-2.143-0.538
				c-0.817,0.215-1.528,0.605-2.077,1.271C21.185,15.582,22.254,16.183,23.15,16.977z"/>
		</g>
	</g>
	<g id="add_person" display="inline">
		<g>
			<polygon fill="#333333" points="24.691,23.778 24.691,19.403 23.364,19.403 23.364,23.778 19.056,23.778 19.056,25.106 
				23.364,25.106 23.364,29.423 24.691,29.423 24.691,25.106 29.029,25.106 29.029,23.778 			"/>
			<path fill="#333333" d="M12.457,2.576c-3.648,0-6.606,2.958-6.606,6.607c0,3.65,2.958,6.608,6.606,6.608
				c3.651,0,6.608-2.958,6.608-6.608C19.065,5.534,16.108,2.576,12.457,2.576z M12.78,14.417c-1.97,0-3.703-1.293-4.712-3.251h9.422
				C16.481,13.123,14.75,14.417,12.78,14.417z"/>
			<path fill="#333333" d="M16.445,16.648c-1.188,0.638-2.546,1-3.988,1c-1.439,0-2.797-0.362-3.985-1
				c-2.566,0.674-4.578,2.274-5.501,5.71h18.977C21.025,18.921,19.014,17.322,16.445,16.648z"/>
		</g>
	</g>
	<g id="person" display="inline">
		<g>
			<path fill="#333333" d="M15.998,6.376c-3.551,0-6.429,2.878-6.429,6.429c0,3.552,2.878,6.43,6.429,6.43
				c3.552,0,6.429-2.878,6.429-6.43C22.428,9.253,19.551,6.376,15.998,6.376z M16.312,17.896c-1.917,0-3.602-1.259-4.585-3.164
				h9.169C19.914,16.638,18.229,17.896,16.312,17.896z"/>
			<path fill="#333333" d="M19.879,20.068c-1.156,0.619-2.479,0.973-3.88,0.973c-1.401,0-2.722-0.353-3.878-0.973
				c-2.498,0.656-4.456,2.211-5.352,5.556h18.465C24.335,22.279,22.378,20.724,19.879,20.068z"/>
		</g>
	</g>
	<g id="group" display="inline">
		<g>
			<g>
				<path fill="#333333" d="M15.997,6.373c-3.551,0-6.43,2.878-6.43,6.43c0,3.553,2.878,6.432,6.43,6.432
					c3.553,0,6.431-2.879,6.431-6.432C22.428,9.252,19.55,6.373,15.997,6.373z M16.31,17.896c-1.917,0-3.603-1.258-4.586-3.164h9.17
					C19.912,16.639,18.229,17.896,16.31,17.896z"/>
				<g>
					<path fill="#333333" d="M9.021,15.363c-0.51,0.539-1.16,0.869-1.873,0.869c-1.031,0-1.938-0.677-2.466-1.701h4.089
						c-0.133-0.554-0.205-1.132-0.205-1.727c0-0.761,0.116-1.495,0.329-2.188c-0.548-0.366-1.207-0.58-1.917-0.58
						c-1.91,0-3.457,1.548-3.457,3.458c0,1.91,1.547,3.458,3.457,3.458c0.9,0,1.717-0.346,2.332-0.91
						C9.204,15.822,9.107,15.596,9.021,15.363z"/>
				</g>
				<g>
					<path fill="#333333" d="M25.019,10.036c-0.71,0-1.37,0.215-1.919,0.582c0.213,0.691,0.328,1.425,0.328,2.186
						c0,0.595-0.072,1.173-0.205,1.727h4.43c-0.527,1.024-1.434,1.701-2.465,1.701c-0.832,0-1.58-0.446-2.116-1.156
						c-0.107,0.332-0.235,0.654-0.386,0.963c0.615,0.564,1.433,0.912,2.333,0.912c1.911,0,3.458-1.548,3.458-3.458
						C28.477,11.584,26.93,10.036,25.019,10.036z"/>
				</g>
			</g>
			<g>
				<path fill="#333333" d="M19.877,20.068c-1.156,0.621-2.478,0.974-3.88,0.974c-1.402,0-2.722-0.352-3.879-0.974
					c-2.498,0.657-4.456,2.213-5.354,5.558h18.469C24.335,22.28,22.377,20.725,19.877,20.068z"/>
				<g>
					<g>
						<path fill="#333333" d="M11.087,18.636c-0.534-0.647-1.226-1.027-2.021-1.236c-0.622,0.333-1.332,0.523-2.086,0.523
							c-0.753,0-1.464-0.189-2.085-0.523c-1.343,0.353-2.396,1.189-2.879,2.988h5.953C8.841,19.615,9.882,19.029,11.087,18.636z"/>
					</g>
				</g>
				<g>
					<g>
						<path fill="#333333" d="M24.029,20.388h5.955c-0.482-1.799-1.535-2.636-2.879-2.988c-0.622,0.333-1.332,0.523-2.087,0.523
							c-0.753,0-1.464-0.189-2.085-0.523c-0.795,0.209-1.487,0.59-2.021,1.237C22.117,19.03,23.156,19.615,24.029,20.388z"/>
					</g>
				</g>
			</g>
		</g>
	</g>
	<g id="cc_bcc" display="inline">
		<path fill="#333333" d="M12.005,20.053c3.041,0,5.504-2.464,5.504-5.505c0-3.04-2.463-5.504-5.504-5.504
			c-3.04,0-5.504,2.464-5.504,5.504C6.501,17.589,8.965,20.053,12.005,20.053z M16.198,16.199c-0.841,1.631-2.284,2.708-3.925,2.708
			c-1.64,0-3.084-1.077-3.925-2.708H16.198z M15.327,20.767c-0.99,0.53-2.121,0.833-3.322,0.833c-1.2,0-2.33-0.302-3.321-0.833
			c-2.138,0.562-3.815,1.894-4.582,4.757h15.807C19.141,22.66,17.466,21.328,15.327,20.767z M18.58,13.631h5.605
			c-0.841,1.631-2.283,2.708-3.925,2.708c-0.62,0-1.212-0.154-1.753-0.434c-0.091,0.432-0.221,0.849-0.391,1.245
			c0.586,0.213,1.216,0.334,1.875,0.334c3.041,0,5.505-2.463,5.505-5.504c0-3.04-2.464-5.503-5.505-5.503
			c-1.888,0-3.552,0.951-4.543,2.399C17.116,9.892,18.3,11.616,18.58,13.631z M23.315,18.199c-0.99,0.53-2.121,0.832-3.322,0.832
			c-0.941,0-1.838-0.188-2.66-0.524c-0.361,0.483-0.786,0.918-1.263,1.288c1.792,0.568,3.122,1.613,4.021,3.16h7.808
			C27.129,20.092,25.454,18.76,23.315,18.199z"/>
	</g>
	<g id="forward_1_" display="inline">
		<path fill="#333333" d="M27.605,16L17.668,5.998v7.335h-2.505l-3.152,5.324h5.657v7.344L27.605,16z M11.278,13.333l-3.172,5.324
			h2.728l3.181-5.324H11.278z M7.575,13.333l-3.18,5.324h2.736l3.172-5.324H7.575z"/>
	</g>
	<g id="reply_all" display="inline">
		<path fill="#333333" d="M20.852,13.332h-2.854V5.993l-0.923,0.984l-8.991,9.018l9.913,10.01v-7.349h2.862
			c1.409,0,2.837,0.608,3.687,1.892c0.47,0.714,0.759,1.906,0.759,2.747l5.078-2.747C29.969,18.489,28.206,13.332,20.852,13.332z
			 M11.663,11.297V5.993L1.616,15.996l10.047,10.01v-5.305L6.91,15.996L11.663,11.297z"/>
	</g>
	<g id="reply" display="inline">
		<path fill="#333333" d="M17.617,13.333h-2.614V5.995L4.852,15.996l10.15,10.008v-7.348h2.632c1.4,0,2.837,0.608,3.678,1.892
			c0.469,0.714,0.758,1.907,0.758,2.747l5.076-2.747C26.741,18.488,24.979,13.333,17.617,13.333z"/>
	</g>
	<g id="chat" display="inline">
		<path fill="#333333" d="M24.536,8.522H3.12V23.48h21.484V12.786l4.274-4.267L24.536,8.522z M5.577,13.309h11.497v2.037H5.577
			V13.309z M22.418,18.881H5.577v-2.036h16.841V18.881z"/>
	</g>
	<g id="send_now" display="inline">
		<polygon fill="#333333" points="6.747,25.135 8.51,16.828 19.613,16.056 19.613,15.943 8.51,15.171 6.747,6.865 25.252,16 		"/>
	</g>
</g>
<g id="_x30_5_content" display="none">
	<g id="merge" display="inline">
		<path fill="#333333" d="M17.799,22.914c0.853,0.93,5.059,3.332,5.059,3.332l1.611-3.19c0,0-6.764-3.261-6.67-6.544v-4.075
			l-0.002-0.019h2.985l-4.785-6.528l-4.786,6.528h0.006h2.985L14.2,12.436v4.075c0.094,3.283-6.67,6.544-6.67,6.544l1.613,3.19
			c0,0,4.206-2.402,5.057-3.332l1.789-1.566L17.799,22.914z"/>
	</g>
	<g id="split" display="inline">
		<path fill="#333333" d="M24.264,12.195l-4.785-6.527l-4.787,6.527h3.016v7.129c-1.01-0.891-2.069-1.465-2.862-1.891l-0.513-0.268
			l-0.005,0.008l1.428-2.62l-8.021,1.078l3.439,7.326l1.444-2.648l0.012-0.016l0.642,0.354c1.349,0.797,3.747,2.415,4.427,4.181
			v1.489l0.006,0.015h3.574v-3.64l-0.002-10.497H24.264z"/>
	</g>
	<g id="import_export" display="inline">
		<g>
			<polygon fill="#333333" points="15.087,19.773 15.087,9.998 18.084,9.998 13.279,3.444 8.474,9.998 11.502,9.998 11.502,19.773 
							"/>
			<polygon fill="#333333" points="20.497,22.002 20.497,12.226 16.913,12.226 16.913,22.002 13.915,22.002 18.72,28.556 
				23.525,22.002 			"/>
		</g>
	</g>
	<g id="new_attachment" display="inline">
		<g>
			<path fill="#333333" d="M8.996,23.852H8.995c-1.3,0-2.521-0.506-3.438-1.425c-0.918-0.919-1.425-2.14-1.425-3.441
				c0-1.299,0.505-2.518,1.424-3.437L16.378,4.727c0.664-0.666,1.529-0.993,2.439-0.916c0.838,0.068,1.668,0.475,2.334,1.141
				c1.379,1.38,1.481,3.522,0.227,4.775l-9.082,9.083c-0.763,0.764-1.948,0.687-2.823-0.184c-0.829-0.83-0.912-2.097-0.187-2.824
				l7.43-7.429l0.99,0.989l-7.429,7.429c-0.156,0.156-0.11,0.549,0.185,0.845c0.084,0.084,0.53,0.498,0.842,0.184l9.084-9.082
				c0.707-0.708,0.605-1.962-0.228-2.796c-0.433-0.433-0.952-0.694-1.458-0.735c-0.496-0.044-0.962,0.135-1.336,0.51L6.545,16.538
				c-0.655,0.654-1.014,1.524-1.014,2.448c0,0.926,0.36,1.796,1.016,2.45c0.653,0.653,1.522,1.015,2.448,1.015l0,0
				c0.927,0,1.796-0.359,2.449-1.015l9.368-9.366l0.989,0.99l-9.368,9.366C11.516,23.346,10.295,23.852,8.996,23.852z"/>
			<g>
				<g>
					<polygon fill="#333333" points="23.5,22.38 23.5,17.946 22.113,17.946 22.113,22.38 17.746,22.38 17.746,23.768 22.113,23.768 
						22.113,28.199 23.5,28.199 23.5,23.768 27.868,23.768 27.868,22.38 					"/>
				</g>
			</g>
		</g>
	</g>
	<g id="new_event" display="inline">
		<g>
			<polygon fill="#333333" points="29.74,21.414 25.285,21.414 25.285,16.891 23.869,16.891 23.869,21.414 19.412,21.414 
				19.412,22.829 23.869,22.829 23.869,27.352 25.285,27.352 25.285,22.829 29.74,22.829 			"/>
			<path fill="#333333" d="M21.435,19.638V6.938h-6.765H7.617V4.648H2.259v5.358h2.262v9.632H21.435z M5.746,10.006h1.872V8.164
				h7.052h5.541v10.248H5.746V10.006z"/>
			<rect x="7.395" y="12.987" fill="#333333" width="11.185" height="1.091"/>
			<rect x="7.395" y="10.53" fill="#333333" width="11.185" height="1.091"/>
		</g>
	</g>
	<g id="new_picture" display="inline">
		<g>
			<polygon fill="#333333" points="24.816,23.307 24.816,18.831 23.416,18.831 23.416,23.307 19.006,23.307 19.006,24.707 
				23.416,24.707 23.416,29.181 24.816,29.181 24.816,24.707 29.225,24.707 29.225,23.307 			"/>
			<path fill="#333333" d="M20.903,2.819H2.774v18.13h18.129V2.819z M19.678,19.725H4.001V4.046h15.677V19.725z"/>
			<polygon fill="#333333" points="18.602,15.725 15.193,13.657 12.347,14.934 8.462,11.481 5.227,13.779 5.227,18.359 
				18.602,18.359 			"/>
		</g>
	</g>
	<g id="new_email" display="inline">
		<g>
			<g>
				<polygon fill-rule="evenodd" clip-rule="evenodd" fill="#333333" points="0.819,8.519 0.819,20.066 22.891,20.066 22.891,8.519 
					11.854,14.007 				"/>
				<polygon fill-rule="evenodd" clip-rule="evenodd" fill="#333333" points="0.819,3.685 0.819,6.758 11.854,12.243 22.891,6.758 
					22.891,3.685 				"/>
			</g>
			<g>
				<g>
					<polygon fill-rule="evenodd" clip-rule="evenodd" fill="#333333" points="26.77,22.438 26.77,17.961 25.369,17.961 
						25.369,22.438 20.957,22.438 20.957,23.838 25.369,23.838 25.369,28.315 26.77,28.315 26.77,23.838 31.18,23.838 31.18,22.438 
											"/>
				</g>
			</g>
		</g>
	</g>
	<g id="attachment" display="inline">
		<path fill="#333333" d="M4.992,19.846H4.991c-1.13-1.023-1.83-2.38-1.975-3.823C2.87,14.579,3.297,13.321,4.221,12.3
			c0.922-1.021,2.231-1.622,3.682-1.621l17.099,0.01c1.05-0.001,2.035,0.463,2.77,1.238c0.68,0.713,1.112,1.584,1.218,2.633
			c0.217,2.167-1.217,4.087-3.197,4.086l-14.351,0.003c-1.205-0.002-2.303-1.156-2.322-2.532c-0.014-1.31,0.697-2.448,1.846-2.448
			l11.738,0.007l0.011,1.64L11.36,15.308c-0.247,0-0.664,0.211-0.685,0.807c-0.01,0.353,0.285,0.873,0.779,0.872l14.183,0.009
			c1.117-0.001,1.92-1.128,1.79-2.437c-0.069-0.682-0.333-1.193-0.745-1.625c-0.4-0.424-0.932-0.628-1.523-0.628l-17.098-0.01
			c-1.034-0.002-1.966,0.379-2.622,1.105c-0.658,0.727-0.871,1.561-0.859,2.622c0.011,1.032,0.603,1.994,1.407,2.723l0,0
			c0.805,0.729,1.944,0.907,2.977,0.907l15.074,0.009l-0.005,1.659L9.12,21.312C7.668,21.31,6.121,20.868,4.992,19.846z"/>
	</g>
	<g id="event" display="inline">
		<g>
			<path fill="#333333" d="M20.294,8.598V5.429h-1.649v3.169h-5.244V5.429h-1.65v3.169H6.695v3.132h0.296v14.84H20.35l4.604-4.602
				V11.73h0.352V8.598H20.294z M23.588,21.244h-4.066v4.001H8.053V11.73h15.535V21.244z"/>
		</g>
	</g>
	<g id="picture" display="inline">
		<g>
			<path fill="#333333" d="M5.031,5.031v21.938h21.938V5.031H5.031z M25.486,25.486H6.516V6.516h18.971V25.486z"/>
			<polygon fill="#333333" points="24.184,20.647 20.06,18.146 16.614,19.69 11.915,15.513 7.999,18.293 7.999,23.836 
				24.184,23.836 			"/>
		</g>
	</g>
	<g id="email" display="inline">
		<path fill-rule="evenodd" clip-rule="evenodd" fill="#333333" d="M16,18.129l11.028-5.482v11.537H4.973V12.646L16,18.129z
			 M4.973,7.816v3.069L16,16.367l11.028-5.482V7.816H4.973z"/>
	</g>
	<g id="backspace" display="inline">
		<path fill="#333333" d="M1.956,16.054l6.928,6.909h21.159V9.037H8.884L1.956,16.054z M22.098,20.559l-3.525-3.525l-3.524,3.525
			l-1.226-1.226l3.525-3.526l-3.524-3.525l1.225-1.226l3.524,3.525l3.525-3.526l1.225,1.226l-3.524,3.526l3.524,3.525L22.098,20.559
			z"/>
	</g>
	<g id="read" display="inline">
		<path fill="#333333" d="M3.999,13.691v-3.456l11.98-5.955l12.022,5.955v3.456h-1.996v-2.319H6.006v2.319H3.999z M19.362,19.459
			c-0.075,1.807-1.559,3.248-3.383,3.248c-1.824,0-3.308-1.441-3.383-3.248l-8.598-4.274v12.534h24.002V15.185L19.362,19.459z
			 M18.158,20.058c0.08-0.233,0.176-0.415,0.176-0.679c0-1.287-1.047-2.335-2.334-2.335c-1.288,0-2.335,1.048-2.335,2.335
			c0,0.264,0.056,0.446,0.135,0.68 M13.8,20.059c0.311,0.906,1.176,1.655,2.2,1.655s1.849-0.749,2.158-1.656"/>
	</g>
	<g id="unread" display="inline">
		<path fill="#333333" d="M19.4,16.637c0,0.016,0.003,0.032,0.003,0.049c0,1.895-1.522,3.432-3.398,3.432
			c-1.877,0-3.398-1.537-3.398-3.432c0-0.017,0.003-0.032,0.003-0.049l-8.611-4.324v12.687h24.002V12.312L19.4,16.637z
			 M18.271,17.192c0.041-0.17,0.062-0.346,0.062-0.528c0-1.286-1.047-2.332-2.334-2.332s-2.335,1.046-2.335,2.332
			c0,0.182,0.024,0.358,0.063,0.529 M13.728,17.193c0.24,1.031,1.167,1.803,2.272,1.803s2.032-0.771,2.271-1.804 M28.001,7.001
			H3.999v3.376l9.087,4.562c0.591-1.008,1.675-1.685,2.919-1.685c1.243,0,2.328,0.677,2.918,1.684l9.077-4.562V7.001z"/>
	</g>
	<g id="save" display="inline">
		<path fill="#333333" d="M18.376,11.631h-4.535v-5.83h4.535V11.631z M21.614,19.325v-1.308H9.953v1.308H21.614L21.614,19.325z
			 M21.614,22.992v-1.308H9.953v1.308H21.614L21.614,22.992z M26.959,9.405V26.42c0,0.361-0.293,0.653-0.653,0.653H5.694
			c-0.361,0-0.653-0.292-0.653-0.653V5.58c0-0.361,0.292-0.654,0.653-0.654h2.693v7.918h11.877V4.926h2.218L26.959,9.405z
			 M23.611,15.197H8.388V25.56h15.224V15.197z"/>
	</g>
</g>
<g id="_x30_4_collections" display="none">
	<g id="cloud">
		<path display="inline" fill-rule="evenodd" clip-rule="evenodd" fill="#333333" d="M24.549,16.807
			c-0.172-2.333-2.115-4.173-4.492-4.173c-0.919,0-1.772,0.276-2.486,0.749c-0.514-2.003-2.326-3.487-4.49-3.487
			c-2.562,0-4.641,2.078-4.641,4.641c0,0.189,0.015,0.374,0.037,0.558c-0.026-0.001-0.053-0.005-0.08-0.005
			c-1.937,0-3.508,1.571-3.508,3.509c0,1.877,1.478,3.407,3.334,3.498v0.009h16.129v-0.011c0.035,0.001,0.069,0.011,0.105,0.011
			c1.467,0,2.654-1.188,2.654-2.654C27.111,18.016,25.973,16.855,24.549,16.807z"/>
	</g>
	<g id="go_to_today">
		<g display="inline">
			<path fill-rule="evenodd" clip-rule="evenodd" fill="#333333" d="M6.667,25.333h18.667V8H6.667V25.333z M26,26.666H6
				c-0.37,0-0.667-0.297-0.667-0.666V7.333c0-0.37,0.297-0.667,0.667-0.667h20c0.369,0,0.666,0.297,0.666,0.667V26
				C26.666,26.369,26.369,26.666,26,26.666z"/>
			<rect x="10" y="5.333" fill-rule="evenodd" clip-rule="evenodd" fill="#333333" width="2.667" height="4"/>
			<rect x="19.333" y="5.333" fill-rule="evenodd" clip-rule="evenodd" fill="#333333" width="2.667" height="4"/>
			<rect x="12.666" y="12" fill-rule="evenodd" clip-rule="evenodd" fill="#333333" width="2.667" height="2.667"/>
			<rect x="16.666" y="12" fill-rule="evenodd" clip-rule="evenodd" fill="#333333" width="2.667" height="2.667"/>
			<rect x="20.666" y="12" fill-rule="evenodd" clip-rule="evenodd" fill="#333333" width="2.667" height="2.667"/>
			<rect x="12.666" y="16" fill-rule="evenodd" clip-rule="evenodd" fill="#333333" width="2.667" height="2.666"/>
			<rect x="8.666" y="16" fill-rule="evenodd" clip-rule="evenodd" fill="#333333" width="2.667" height="2.666"/>
			<rect x="16" y="15.333" fill-rule="evenodd" clip-rule="evenodd" fill="#333333" width="4" height="4"/>
			<rect x="20.666" y="16" fill-rule="evenodd" clip-rule="evenodd" fill="#333333" width="2.667" height="2.666"/>
			<rect x="12.666" y="20" fill-rule="evenodd" clip-rule="evenodd" fill="#333333" width="2.667" height="2.666"/>
			<rect x="8.666" y="20" fill-rule="evenodd" clip-rule="evenodd" fill="#333333" width="2.667" height="2.666"/>
			<rect x="16.666" y="20" fill-rule="evenodd" clip-rule="evenodd" fill="#333333" width="2.667" height="2.666"/>
		</g>
	</g>
	<g id="new_label">
		<g display="inline">
			<polygon fill="#333333" points="22.258,22.215 22.258,17.781 20.871,17.781 20.871,22.215 16.503,22.215 16.503,23.603 
				20.871,23.603 20.871,28.034 22.258,28.034 22.258,23.603 26.626,23.603 26.626,22.215 			"/>
			<path fill="#333333" d="M14.712,5.076l-9.323,9.247l-0.015,6.868l6.867-0.017l9.324-9.249L14.712,5.076z M7.566,19.752
				c-0.435,0-0.786-0.352-0.786-0.785c0-0.434,0.352-0.785,0.786-0.785c0.434,0,0.786,0.352,0.786,0.785
				C8.352,19.4,8,19.752,7.566,19.752z M8.19,15.361l6.403-6.403l0.904,0.904l-6.403,6.404L8.19,15.361z M11.104,18.273L10.2,17.369
				l6.364-6.364l0.904,0.904L11.104,18.273z"/>
			<polygon fill="#333333" points="10.984,3.965 6.819,11.636 13.503,5.163 			"/>
		</g>
	</g>
	<g id="sort_by_size">
		<g display="inline">
			<rect x="3.28" y="8.079" fill="#333333" width="25.44" height="2.507"/>
			<rect x="3.28" y="14.746" fill="#333333" width="17.708" height="2.507"/>
			<rect x="3.28" y="21.414" fill="#333333" width="9.294" height="2.507"/>
		</g>
	</g>
	<g id="view_as_grid">
		<g display="inline">
			<rect x="7.55" y="7.693" fill="#333333" width="6.98" height="6.979"/>
			<rect x="17.47" y="7.693" fill="#333333" width="6.979" height="6.979"/>
			<rect x="7.55" y="17.326" fill="#333333" width="6.98" height="6.98"/>
			<rect x="17.47" y="17.326" fill="#333333" width="6.979" height="6.98"/>
		</g>
	</g>
	<g id="view_as_list">
		<g display="inline">
			<path fill="#333333" d="M20.532,5.268H7.247v21.463h17.506V5.268H20.532z M22.793,23.066H9.208v-1.225h13.585V23.066z
				 M22.793,19.884H9.154v-1.278h13.639V19.884z M22.847,16.648H9.208v-1.333h13.639V16.648z M22.847,13.304H9.208v-1.223h13.639
				V13.304z M22.847,10.067H9.208V8.844h13.639V10.067z"/>
		</g>
	</g>
	<g id="labels">
		<g display="inline">
			<path fill="#333333" d="M17.664,5.955L5.18,18.336l-0.02,9.196l9.194-0.021L26.84,15.127L17.664,5.955z M8.096,25.606
				c-0.581,0-1.051-0.471-1.051-1.052c0-0.581,0.47-1.053,1.051-1.053c0.581,0,1.053,0.472,1.053,1.053
				C9.148,25.136,8.677,25.606,8.096,25.606z M8.932,19.726l8.574-8.574l1.21,1.21l-8.573,8.576L8.932,19.726z M12.833,23.626
				l-1.211-1.211l8.52-8.522l1.211,1.211L12.833,23.626z"/>
			<polygon fill="#333333" points="12.672,4.467 7.096,14.738 16.045,6.071 			"/>
		</g>
	</g>
	<g id="collection" display="inline">
		<polygon fill="#333333" points="26.254,12.398 5.746,12.398 3.651,19.233 2.879,18.571 4.754,11.405 26.254,11.405 26.254,9.751 
			12.291,9.751 10.231,5.93 1.557,5.93 1.557,26.069 26.254,26.069 30.443,12.398 		"/>
	</g>
</g>
<g id="_x30_3_rating" display="none">
	<g id="favorite" display="inline">
		<g>
			<path fill="#333333" d="M16,10.132c0.767-1.728,2.112-3.402,4.032-3.402c1.122,0,2.156,0.546,3.101,1.638
				c0.9,1.036,1.353,2.077,1.353,3.125c0,1.565-0.43,3.204-1.286,4.918c-0.738,1.476-1.803,3.033-3.19,4.673
				c-1.049,1.24-2.399,2.65-4.053,4.231c-1.434-1.373-2.718-2.738-3.855-4.098c-1.389-1.669-2.467-3.228-3.235-4.675
				c-0.9-1.712-1.352-3.248-1.352-4.606c0-1.3,0.398-2.474,1.197-3.522c0.871-1.154,1.934-1.729,3.19-1.729
				C13.88,6.685,15.246,8.374,16,10.132z"/>
		</g>
	</g>
	<g id="bad" display="inline">
		<path fill="#333333" d="M24.219,9.085c-1.742,0-3.172-0.077-4.108-0.337c-1.56-0.676-3.561-1.064-5.017-1.273
			c-2.767-0.395-3.94-0.243-4.801-0.016L10.29,7.473C9.837,7.604,9.508,7.925,9.352,8.477C9.206,8.997,9.291,9.331,9.586,9.524
			L9.33,9.558c-0.746,0.139-1.282,0.507-1.367,1.381c-0.061,0.625,0.137,1.023,0.538,1.19c-0.723,0.012-1.295,0.357-1.412,1.297
			c-0.108,0.86,0.415,1.42,1.13,1.45c-0.646,0.09-1.104,0.527-1.104,1.357c0,0.911,0.598,1.482,1.481,1.56l0.014-0.002
			c1.064,0.144,2.812,0.188,3.853,0.254c0.208,0.728,0.136,0.994-0.149,1.644c-0.989,1.066-1.509,2.132-1.353,3.614
			c0.057,0.539,0.556,1.397,0.936,1.455c0.655,0.1,0.851-0.428,1.319-1.209c0.493-0.82,0.733-1.027,1.306-2.014
			c0.571-0.988,0.65-1.222,2.73-2.678c1.891-1.322,1.638-1.818,3.821-2.233c0.393-0.076,1.56-0.274,3.146-0.274
			c0.39,0,0.705-0.857,0.705-3.633C24.924,9.942,24.608,9.085,24.219,9.085z"/>
	</g>
	<g id="good" display="inline">
		<g>
			<path fill="#333333" d="M23.781,17.124c0.646-0.091,1.104-0.525,1.104-1.357c0-0.911-0.598-1.481-1.482-1.56l-0.015,0.001
				c-1.065-0.144-2.812-0.188-3.853-0.254c-0.208-0.727-0.136-0.994,0.149-1.643c0.988-1.066,1.508-2.131,1.353-3.615
				c-0.057-0.539-0.556-1.397-0.936-1.455c-0.655-0.1-0.852,0.428-1.319,1.209c-0.493,0.82-0.733,1.027-1.307,2.015
				c-0.57,0.988-0.649,1.221-2.729,2.677c-1.891,1.322-1.638,1.819-3.822,2.234c-0.393,0.076-1.559,0.273-3.145,0.273
				c-0.39,0-0.706,0.858-0.706,3.634c0,2.775,0.315,3.632,0.706,3.632c1.742,0,3.172,0.077,4.108,0.337
				c1.56,0.676,3.561,1.065,5.018,1.273c2.767,0.396,3.939,0.244,4.801,0.018l0.002-0.016c0.454-0.132,0.783-0.452,0.938-1.004
				c0.146-0.519,0.062-0.854-0.233-1.047l0.256-0.034c0.746-0.14,1.282-0.508,1.366-1.382c0.061-0.625-0.137-1.023-0.537-1.189
				c0.724-0.012,1.295-0.356,1.411-1.297C25.018,17.713,24.495,17.154,23.781,17.124z"/>
		</g>
	</g>
	<g id="half_important" display="inline">
		<path fill="#333333" d="M28.994,13.082l-9.329-0.823L16,3.641l-3.666,8.618l-9.329,0.823l7.063,6.15l-2.101,9.127L16,23.541
			l8.032,4.818l-2.1-9.127L28.994,13.082z M22.604,26.395l-6.115-3.668L16,22.434V6.069l2.792,6.562l0.223,0.525l0.568,0.05
			l7.103,0.626l-5.379,4.683l-0.43,0.374l0.128,0.556L22.604,26.395z"/>
	</g>
	<g id="not_important" display="inline">
		<path fill="#333333" d="M15.999,6.069l2.792,6.562l0.223,0.524l0.568,0.05l7.103,0.626l-5.379,4.684l-0.43,0.373l0.128,0.557
			l1.599,6.949l-6.115-3.668l-0.489-0.293l-0.489,0.293l-6.116,3.668l1.6-6.949l0.128-0.557l-0.43-0.373l-5.377-4.684l7.104-0.626
			l0.567-0.05l0.224-0.524L15.999,6.069 M15.999,3.64l-3.665,8.619l-9.329,0.823l7.063,6.15l-2.101,9.128l8.032-4.818l8.032,4.818
			l-2.1-9.128l7.062-6.15l-9.329-0.823L15.999,3.64L15.999,3.64z"/>
	</g>
	<g id="important" display="inline">
		<polygon fill="#333333" points="16,3.597 19.679,12.246 29.041,13.071 21.953,19.243 24.06,28.403 16,23.567 7.941,28.403 
			10.048,19.243 2.959,13.071 12.322,12.246 		"/>
	</g>
</g>
<g id="_x30_2_navigation" display="none">
	<g id="collapse" display="inline">
		<polygon fill="#333333" points="7.79,21.259 15.999,14.171 24.211,21.259 25.906,19.293 15.999,10.741 6.093,19.293 		"/>
	</g>
	<g id="expand" display="inline">
		<polygon fill="#333333" points="24.209,10.741 16,17.829 7.789,10.741 6.093,12.707 16,21.259 25.907,12.707 		"/>
	</g>
	<g id="previous_item" display="inline">
		<polygon fill="#333333" points="21.539,24.646 14.074,16.002 21.539,7.352 19.469,5.565 10.461,16.002 19.469,26.434 		"/>
	</g>
	<g id="next_item" display="inline">
		<polygon fill="#333333" points="10.461,7.353 17.926,16 10.461,24.648 12.531,26.434 21.539,16 12.531,5.566 		"/>
	</g>
	<g id="forward" display="inline">
		<polygon fill="#333333" points="16.655,5.413 14.822,7.247 22.278,14.704 4.756,14.704 4.756,17.297 22.278,17.297 14.822,24.754 
			16.655,26.587 27.243,16.001 		"/>
	</g>
	<g id="back" display="inline">
		<polygon fill="#333333" points="15.344,26.586 17.177,24.752 9.721,17.295 27.243,17.295 27.243,14.703 9.721,14.703 
			17.177,7.246 15.344,5.413 4.756,15.999 		"/>
	</g>
</g>
<g id="_x30_1_core">
	<g id="overflow_1_" display="none">
		<path id="_x3C_Compound_Path_x3E__1_" display="inline" fill="#333333" d="M19.217,21.72v4.999h-4.995V21.72H19.217z
			 M14.222,14.055v4.998h4.995v-4.998H14.222z M14.222,6.725v4.998h4.995V6.725H14.222z"/>
	</g>
	<g id="discard">
		<g>
			<path fill="#333333" d="M22.973,13.947c-0.016-0.094-0.073-0.186-0.159-0.273c-0.692,0.704-3.481,0.82-6.815,0.82
				s-6.12-0.116-6.815-0.82c-0.085,0.088-0.139,0.18-0.159,0.273H9.018l0.002,0.051c0,0.006-0.002,0.012-0.002,0.018
				c0,0.014,0.004,0.026,0.006,0.039l0.542,11.117h0.002c0.048,0.872,1.046,2.189,6.431,2.189c5.385,0,6.384-1.317,6.431-2.189
				h0.004l0.543-11.117c0.001-0.013,0.005-0.025,0.005-0.039c0-0.006-0.004-0.012-0.004-0.018l0.004-0.051H22.973z"/>
			<path fill="#333333" d="M19.316,8.128V5.503c0-0.474-0.389-0.866-0.865-0.866h-5.195c-0.474,0-0.864,0.392-0.864,0.866v2.655
				C9.824,8.45,8.066,9.04,8.066,9.723v1.297c0,0.267,0.269,0.519,0.753,0.748c1.267,0.596,4.006,1.008,7.179,1.008
				c3.175,0,5.914-0.413,7.182-1.008c0.48-0.229,0.753-0.482,0.753-0.748V9.723C23.934,9.016,22.04,8.407,19.316,8.128z
				 M14.054,8.019l-0.219,0.014V6.946c0-0.475,0.066-0.865,0.145-0.865c0.081,0,0.534,0,1.01,0h1.732c0.474,0,0.929,0,1.009,0
				c0.079,0,0.145,0.39,0.145,0.865v1.07c-0.602-0.031-1.229-0.051-1.877-0.051C15.327,7.965,14.675,7.984,14.054,8.019z"/>
		</g>
	</g>
	<g id="remove" display="none">
		<polygon display="inline" fill-rule="evenodd" clip-rule="evenodd" fill="#333333" points="24.951,8.429 23.57,7.048 16,14.619 
			8.429,7.048 7.048,8.429 14.619,16 7.048,23.57 8.429,24.951 16,17.381 23.57,24.951 24.951,23.57 17.381,16 		"/>
	</g>
	<g id="edit" display="none">
		<g display="inline">
			<path fill="#333333" d="M15.587,10.411l-7.838,7.916c0,0,0.676,0.638,2.414,0.561c0.372,0.792,0.723,1.724,2.752,2.677
				c-0.082,1.655,0.715,2.585,0.715,2.585l7.844-7.908c-0.096-1.079-0.903-2.423-2.184-3.688
				C17.539,10.817,16.074,10.479,15.587,10.411z"/>
			<path fill="#333333" d="M26.927,4.751c-2.302-1.886-3.892-1.334-4.702-0.553c-0.282,0.272-1.172,0.989-1.823,1.511
				c0.733,0.047,2.206,0.363,3.822,1.963c1.608,1.592,1.915,2.954,1.934,3.713c0.547-0.707,1.405-1.814,1.538-1.948
				C28.58,8.536,29.229,6.637,26.927,4.751z"/>
			<path fill="#333333" d="M9.015,19.832c-1.553,0.004-1.916-0.344-1.916-0.344l-3.606,9.037l9.001-3.739
				c0,0-0.714-1.414-0.696-2.172C11.169,22.414,9.521,21.412,9.015,19.832z"/>
			<path fill="#333333" d="M19.389,6.578l-0.893,0.879c0,0,1.706,0.278,3.729,2.282c1.269,1.26,1.953,2.593,2.076,3.523l0.854-0.851
				c0,0,0.297-1.542-1.897-3.734C21.103,6.523,19.389,6.578,19.389,6.578z"/>
			<path fill="#333333" d="M17.703,8.553L16.85,9.396c0,0,1.634,0.266,3.568,2.186c1.216,1.205,1.872,2.48,1.99,3.372l0.815-0.817
				c0,0,0.284-1.475-1.815-3.574C19.346,8.5,17.703,8.553,17.703,8.553z"/>
		</g>
	</g>
	<g id="new" display="none">
		<polygon display="inline" fill-rule="evenodd" clip-rule="evenodd" fill="#333333" points="27.683,15.023 16.977,15.023 
			16.977,4.317 15.023,4.317 15.023,15.023 4.317,15.023 4.317,16.977 15.023,16.977 15.023,27.683 16.977,27.683 16.977,16.977 
			27.683,16.977 		"/>
	</g>
	<g id="select_all" display="none">
		<path display="inline" fill-rule="evenodd" clip-rule="evenodd" fill="#333333" d="M22.903,28h-1.257v-1.334h1.257V28z M20.393,28
			h-1.256v-1.334h1.256V28z M17.883,28h-1.256v-1.334h1.256V28z M12.863,28h-1.257v-1.334h1.257V28z M10.354,28H9.097v-1.334h1.257
			V28z M15,23H9v-6h6V23z M4,4h1.333v1.333H4V4z M4,6.586h1.333v1.256H4V6.586z M4,9.097h1.333v1.257H4V9.097z M4,11.606h1.333
			v1.257H4V11.606z M4,14.116h1.333v1.257H4V14.116z M4,16.626h1.333v1.256H4V16.626z M4,19.137h1.333v1.256H4V19.137z M4,21.646
			h1.333v1.257H4V21.646z M4,24.156h1.333v1.257H4V24.156z M4,26.666h1.333V28H4V26.666z M6.586,4h1.256v1.333H6.586V4z
			 M6.586,26.666h1.256V28H6.586V26.666z M15,15H9V9h6V15z M9.097,4h1.257v1.333H9.097V4z M11.606,4h1.257v1.333h-1.257V4z
			 M14.116,4h1.257v1.333h-1.257V4z M14.116,26.666h1.257V28h-1.257V26.666z M16.626,4h1.256v1.333h-1.256V4z M19.137,4h1.256v1.333
			h-1.256V4z M21.646,4h1.257v1.333h-1.257V4z M17,9h6v6h-6V9z M17,17h6v6h-6V17z M24.156,4h1.257v1.333h-1.257V4z M24.156,26.666
			h1.257V28h-1.257V26.666z M26.666,4H28v1.333h-1.334V4z M26.666,6.586H28v1.256h-1.334V6.586z M26.666,9.097H28v1.257h-1.334
			V9.097z M26.666,11.606H28v1.257h-1.334V11.606z M26.666,14.116H28v1.257h-1.334V14.116z M26.666,16.626H28v1.256h-1.334V16.626z
			 M26.666,19.137H28v1.256h-1.334V19.137z M26.666,21.646H28v1.257h-1.334V21.646z M26.666,24.156H28v1.257h-1.334V24.156z
			 M26.666,28v-1.334H28V28H26.666z"/>
	</g>
	<g id="paste" display="none">
		<path display="inline" fill-rule="evenodd" clip-rule="evenodd" fill="#333333" d="M21.334,22.333H9.998v-0.667h11.336V22.333z
			 M16.665,20.333H9.998v-0.667h6.667V20.333z M18.668,18.333h-8.67v-0.667h8.67V18.333z M22.001,16.333H9.998v-0.667h12.003V16.333
			z M16.665,14.333H9.998v-0.667h6.667V14.333z M24.001,6.997h-4.667l0.387,1.163c1.84,0.404,2.28,1.52,2.28,2.837H9.998
			c0-1.253,0.52-2.323,2.257-2.77l0.41-1.23H7.998v20.006h16.003V6.997z M15.998,3.997c-0.55,0-1,0.447-1,1c0,0.55,0.45,1,1,1
			c0.554,0,1.001-0.45,1.001-1C16.999,4.443,16.552,3.997,15.998,3.997z M5.998,29.003V4.997h8c0-1.107,0.896-2,2-2
			c1.107,0,2.003,0.893,2.003,2h8v24.006H5.998z"/>
	</g>
	<g id="copy" display="none">
		<path display="inline" fill-rule="evenodd" clip-rule="evenodd" fill="#333333" d="M20.001,5.997H7.998v16.006h1v2h-1h-2V3.997
			h16.003v2v1h-2V5.997z M21.559,22.336h-7.561V21.67h7.561V22.336z M18.445,20.333h-4.447v-0.667h4.447V20.333z M19.778,18.333
			h-5.78v-0.667h5.78V18.333z M22.001,16.333h-8.003v-0.667h8.003V16.333z M18.445,14.333h-4.447v-0.667h4.447V14.333z M24.001,10
			H11.998v16.003h12.003V10z M9.998,28.003V7.997h16.003v20.006H9.998z"/>
	</g>
	<g id="cut" display="none">
		<g display="inline">
			<path fill="#333333" d="M26.253,20.605c0.261,0.189,0.417,0.496,0.417,0.819c0,0.217-0.066,0.424-0.197,0.601
				c-0.16,0.22-0.396,0.363-0.666,0.402c-0.267,0.044-0.537-0.023-0.757-0.183c-0.26-0.19-0.413-0.5-0.413-0.823
				c0-0.217,0.066-0.424,0.196-0.601C25.163,20.371,25.8,20.271,26.253,20.605z M19.003,16.085c0-0.44,0.357-0.797,0.797-0.797
				c0.436,0,0.793,0.357,0.793,0.797c0,0.437-0.357,0.794-0.793,0.794C19.359,16.879,19.003,16.522,19.003,16.085z M25.807,9.738
				c0.27,0.043,0.506,0.186,0.666,0.403c0.131,0.177,0.197,0.384,0.197,0.6c0,0.323-0.156,0.633-0.417,0.823
				c-0.22,0.16-0.486,0.227-0.757,0.184c-0.267-0.04-0.503-0.184-0.663-0.404c-0.13-0.176-0.196-0.383-0.196-0.6
				c0-0.323,0.153-0.63,0.413-0.82C25.27,9.762,25.54,9.698,25.807,9.738z M24.26,8.845c-0.354,0.257-0.653,0.66-0.797,0.943
				c-0.073,0.147-0.173,0.324-0.3,0.544c-0.11,0.196-0.243,0.43-0.399,0.716c-0.817,1.5-1.648,2.477-1.654,2.483
				c-0.006,0.006-0.463,0.53-0.97,0.983c-2.833-1.217-7.473-3.197-7.92-3.31c-0.667-0.167-1.303,0.303-1.33,0.323l-0.293,0.22
				l0.314,0.19l6.83,4.146l-6.83,4.144l-0.314,0.189l0.293,0.221c0.027,0.019,0.664,0.49,1.33,0.323
				c0.443-0.11,5.087-2.094,7.92-3.311c0.507,0.457,0.964,0.979,0.967,0.983c0.01,0.01,0.84,0.983,1.657,2.486
				c0.156,0.287,0.289,0.521,0.402,0.717c0.124,0.221,0.224,0.393,0.297,0.541c0.143,0.283,0.443,0.686,0.797,0.946
				c1.047,0.767,2.526,0.54,3.293-0.507c0.297-0.406,0.453-0.884,0.453-1.387c0-0.743-0.356-1.453-0.953-1.9
				c-0.256-0.189-0.55-0.326-0.826-0.39c-0.224-0.08-0.394-0.106-0.573-0.137c-0.267-0.047-0.567-0.097-1.174-0.34
				c-1.18-0.474-2.167-1.351-2.183-1.367c-0.287-0.239-0.567-0.659-0.814-1.213c0.247-0.557,0.527-0.977,0.82-1.223
				c0.01-0.006,0.994-0.883,2.177-1.357c0.606-0.243,0.907-0.296,1.174-0.34c0.18-0.03,0.35-0.059,0.55-0.13
				c0.3-0.073,0.594-0.21,0.857-0.4c0.594-0.447,0.946-1.154,0.946-1.897c0-0.503-0.156-0.983-0.453-1.387
				C26.783,8.305,25.307,8.075,24.26,8.845z"/>
			<polygon fill="#333333" points="19.993,26 5.993,26 5.993,6 19.993,6 19.993,10 21.993,10 21.993,4 3.993,4 3.993,28 19.993,28 
				21.993,28 21.993,22 19.993,22 			"/>
		</g>
	</g>
	<g id="share" display="none">
		<path display="inline" fill="#333333" d="M23.305,20.294c-1.077,0-2.041,0.481-2.695,1.234l-8.484-4.564
			c0.086-0.307,0.136-0.629,0.136-0.964c0-0.335-0.049-0.657-0.136-0.964l8.484-4.565c0.654,0.755,1.618,1.235,2.695,1.235
			c1.967,0,3.565-1.598,3.565-3.556c0-1.966-1.599-3.565-3.565-3.565c-1.968,0-3.566,1.599-3.566,3.565
			c0,0.335,0.05,0.657,0.137,0.964l-8.488,4.558c-0.654-0.75-1.617-1.226-2.693-1.226c-1.966,0-3.564,1.586-3.564,3.554
			s1.598,3.553,3.564,3.553c1.076,0,2.039-0.475,2.693-1.226l8.488,4.559c-0.087,0.307-0.137,0.63-0.137,0.963
			c0,1.966,1.599,3.566,3.566,3.566c1.967,0,3.565-1.6,3.565-3.566C26.87,21.891,25.271,20.294,23.305,20.294z"/>
	</g>
	<g id="call" display="none">
		<path display="inline" fill="#333333" d="M11.861,5.688c0.155,0,0.144,0.011,0.233,0.078c0.088,0.066,0.375,0.431,0.42,0.675
			c0.044,0.244,0.044,0.731,0.122,1.207c0.077,0.476,0.332,1.792,0.631,2.579c0.298,0.785,0.442,1.128,0.11,1.615
			c-0.332,0.487-2.302,2.512-2.302,2.512s0.575,1.007,1.151,1.727c0.575,0.719,1.372,1.748,2.467,2.677
			c1.096,0.931,2.17,1.748,3.353,2.358c1.162-1.15,2.146-2.124,2.413-2.358c0.266-0.231,0.31-0.309,0.862-0.142
			c0.554,0.165,1.294,0.487,2.07,0.63c0.774,0.145,1.614,0.243,2.111,0.299c0.5,0.056,0.487,0.076,0.652,0.31
			c0.168,0.231,0.335,0.53,0.355,0.609c0.023,0.078,0,0.408,0,1.428c0,1.018,0,2.515,0,2.799c0,0.287-0.021,0.309-0.089,0.508
			c-0.066,0.2-0.208,0.685-0.241,0.743c-0.035,0.054-0.478,0.33-0.819,0.341c-0.343,0.013-1.451-0.033-2.17-0.143
			c-0.721-0.109-2.71-0.575-3.486-0.829c-0.774-0.257-3.197-1.074-6.074-3.21c-2.876-2.135-4.88-4.991-6.031-7.27
			S5.875,9.96,5.676,8.699C5.477,7.438,5.487,6.95,5.554,6.596c0.066-0.354,0.41-0.608,0.619-0.73
			c0.211-0.122,0.498-0.21,0.808-0.177c0.31,0.033,1.173-0.007,2.313-0.007C10.434,5.681,11.861,5.688,11.861,5.688z"/>
	</g>
	<g id="cancel" display="none">
		<polygon display="inline" fill-rule="evenodd" clip-rule="evenodd" fill="#333333" points="24.951,8.429 23.57,7.048 16,14.619 
			8.429,7.048 7.048,8.429 14.619,16 7.048,23.57 8.429,24.951 16,17.381 23.57,24.951 24.951,23.57 17.381,16 		"/>
	</g>
	<g id="accept" display="none">
		<polygon display="inline" fill-rule="evenodd" clip-rule="evenodd" fill="#333333" points="27.759,8.812 26.378,7.431 
			12.133,21.805 5.622,15.333 4.241,16.715 12.144,24.568 13.524,23.188 13.518,23.181 		"/>
	</g>
	<g id="undo" display="none">
		<path display="inline" fill="#333333" d="M11.623,12.748v2.827l-6.119-4.486l6.119-4.484v2.797v0.012h3.519
			c6.916,0,11.354,2.025,11.354,7.993c0,5.966-4.438,7.991-11.354,7.991h-7.92v-3.322h7.92c5.892,0,8.031-1.266,8.031-4.669
			s-2.14-4.67-8.031-4.67h-3.519V12.748z"/>
	</g>
	<g id="search" display="none">
		<path display="inline" fill="#333333" d="M26.498,23.393l-4.055-4.056c-0.358-0.356-1.003-0.322-1.65,0.015l-1.77-1.768
			c2.305-3.011,2.088-7.334-0.667-10.089c-3-2.998-7.862-2.998-10.862,0c-2.998,3-2.998,7.863,0,10.862
			c2.756,2.755,7.079,2.973,10.09,0.667l1.769,1.768c-0.337,0.649-0.372,1.295-0.016,1.651l4.056,4.056
			c0.512,0.512,1.624,0.231,2.48-0.627C26.729,25.016,27.011,23.904,26.498,23.393z M8.637,17.215c-2.368-2.369-2.368-6.21,0-8.578
			c2.37-2.37,6.207-2.368,8.578,0c2.367,2.368,2.367,6.208,0,8.578C14.844,19.583,11.004,19.583,8.637,17.215z"/>
	</g>
	<g id="refresh" display="none" opacity="0.8">
		<path display="inline" fill-rule="evenodd" clip-rule="evenodd" fill="#333333" d="M19.662,8.312
			c-1.85-0.815-3.942-0.943-5.886-0.327c-3.693,1.162-6.092,4.667-5.843,8.525l-2.52,0.165c-0.327-5.024,2.8-9.586,7.602-11.103
			c2.814-0.887,5.86-0.58,8.448,0.818l2.419-2.585l0.645,7.17l-7.596,0.253L19.662,8.312z M19.568,26.369
			c-1.064,0.334-2.17,0.503-3.269,0.503c-1.79,0-3.565-0.462-5.169-1.324l-2.423,2.588l-0.644-7.171l7.592-0.256l-2.729,2.922
			c1.847,0.812,3.939,0.939,5.884,0.326c3.692-1.166,6.095-4.674,5.842-8.524l2.521-0.165C27.504,20.284,24.377,24.85,19.568,26.369
			z"/>
	</g>
</g>
</svg>
