<?xml version="1.0" encoding="UTF-8" standalone="no"?>
<svg
   xmlns:dc="http://purl.org/dc/elements/1.1/"
   xmlns:cc="http://creativecommons.org/ns#"
   xmlns:rdf="http://www.w3.org/1999/02/22-rdf-syntax-ns#"
   xmlns:svg="http://www.w3.org/2000/svg"
   xmlns="http://www.w3.org/2000/svg"
   xmlns:sodipodi="http://sodipodi.sourceforge.net/DTD/sodipodi-0.dtd"
   xmlns:inkscape="http://www.inkscape.org/namespaces/inkscape"
   fill="#FFFFFF"
   height="24"
   viewBox="0 0 24 24"
   width="24"
   id="svg2"
   version="1.1"
   inkscape:version="0.91 r13725"
   sodipodi:docname="ic_dice.svg">
  <metadata
     id="metadata12">
    <rdf:RDF>
      <cc:Work
         rdf:about="">
        <dc:format>image/svg+xml</dc:format>
        <dc:type
           rdf:resource="http://purl.org/dc/dcmitype/StillImage" />
        <dc:title></dc:title>
      </cc:Work>
    </rdf:RDF>
  </metadata>
  <defs
     id="defs10" />
  <sodipodi:namedview
     pagecolor="#ffffff"
     bordercolor="#666666"
     borderopacity="1"
     objecttolerance="10"
     gridtolerance="10"
     guidetolerance="10"
     inkscape:pageopacity="0"
     inkscape:pageshadow="2"
     inkscape:window-width="1015"
     inkscape:window-height="926"
     id="namedview8"
     showgrid="false"
     inkscape:zoom="9.8333333"
     inkscape:cx="7.1251404"
     inkscape:cy="2.9643092"
     inkscape:window-x="229"
     inkscape:window-y="14"
     inkscape:window-maximized="0"
     inkscape:current-layer="svg2" />
  <path
     d="M0 0h24v24H0z"
     fill="none"
     id="path4" />
  <path
     style="fill:#000000;fill-rule:evenodd;stroke:none;stroke-width:1"
     d="m 3.0000003,4.9971751 0,13.9802259 c 0,1.098446 0.8987288,1.997175 1.9971751,1.997175 l 13.9802256,0 c 1.098446,0 1.997175,-0.898729 1.997175,-1.997175 l 0,-13.9802259 C 20.974576,3.8987288 20.075847,3 18.977401,3 L 4.9971754,3 C 3.8987291,3 3.0000003,3.8987288 3.0000003,4.9971751 l 0,0 z M 18.977401,6.9943503 c 0,1.1317325 -0.865443,1.997175 -1.997175,1.997175 -1.131732,0 -1.997175,-0.8654425 -1.997175,-1.997175 0,-1.1317326 0.865443,-1.9971752 1.997175,-1.9971752 1.131732,0 1.997175,0.8654426 1.997175,1.9971752 l 0,0 z m -4.992938,4.9929377 c 0,1.131732 -0.865443,1.997175 -1.997175,1.997175 -1.131732,0 -1.9971749,-0.865443 -1.9971749,-1.997175 0,-1.131732 0.8654429,-1.9971755 1.9971749,-1.9971755 1.131732,0 1.997175,0.8654435 1.997175,1.9971755 l 0,0 z m -4.9929375,4.992938 c 0,1.131732 -0.8654426,1.997175 -1.9971749,1.997175 -1.1317333,0 -1.9971752,-0.865443 -1.9971752,-1.997175 0,-1.131732 0.8654419,-1.997175 1.9971752,-1.997175 1.1317323,0 1.9971749,0.865443 1.9971749,1.997175 l 0,0 z"
     id="Shape"
     inkscape:connector-curvature="0" />
</svg>
