<?xml version="1.0" encoding="utf-8"?>
<!-- Generator: Adobe Illustrator 17.0.2, SVG Export Plug-In . SVG Version: 6.00 Build 0)  -->
<!DOCTYPE svg PUBLIC "-//W3C//DTD SVG 1.1//EN" "http://www.w3.org/Graphics/SVG/1.1/DTD/svg11.dtd">
<svg version="1.1" id="Layer_1" xmlns="http://www.w3.org/2000/svg" xmlns:xlink="http://www.w3.org/1999/xlink" x="0px" y="0px"
	 width="24px" height="24px" viewBox="0 0 24 24" enable-background="new 0 0 24 24" xml:space="preserve">
<g>
	<path fill="#ABABAB" d="M19.498,19.472l0.014-0.016c1.344-2.045,1.061-4.741-0.718-6.52c-0.995-0.995-2.295-1.539-3.696-1.539
		s-2.717,0.547-3.709,1.526c-2.06,2.056-2.045,5.374-0.015,7.418c0.995,0.995,2.295,1.539,3.709,1.539
		c1.046,0,2.003-0.268,2.842-0.82l2.506,2.506c0.546,0.546,1.431,0.546,1.976,0L23,22.974L19.498,19.472z M17.208,18.756
		c-0.572,0.572-1.321,0.881-2.124,0.881s-1.552-0.319-2.124-0.881c-1.122-1.122-1.178-2.939-0.11-4.128
		c0.033-0.045,0.078-0.088,0.121-0.121c0.573-0.561,1.321-0.881,2.124-0.881c0.803,0,1.552,0.319,2.124,0.881
		C18.386,15.674,18.396,17.578,17.208,18.756z"/>
	<path fill="#ABABAB" d="M8.693,18.53H4.07v-1.421h4.375c-0.049-0.71,0.016-1.425,0.191-2.119H4.07v-1.421h5.099
		c0.309-0.599,0.713-1.162,1.215-1.663c0.185-0.183,0.381-0.349,0.582-0.507H4.07V9.977h10.832c0.065-0.002,0.13-0.009,0.195-0.009
		c0.938,0,1.846,0.2,2.681,0.571V2.042C17.779,0.914,16.865,0,15.737,0H1.235v19.369c0,1.128,0.914,2.042,2.042,2.042h7.15
		c-0.022-0.022-0.047-0.041-0.069-0.063C9.55,20.534,8.995,19.562,8.693,18.53z M10.963,2.813h3.979V7.8h-3.979V2.813z M4.07,2.794
		h4.731v1.421H4.07V2.794z M4.07,6.386h4.731v1.421H4.07V6.386z"/>
</g>
</svg>
