<?xml version="1.0" encoding="UTF-8" standalone="no"?>
<!-- Generator: Adobe Illustrator 18.1.1, SVG Export Plug-In . SVG Version: 6.00 Build 0)  -->

<svg
   xmlns:dc="http://purl.org/dc/elements/1.1/"
   xmlns:cc="http://creativecommons.org/ns#"
   xmlns:rdf="http://www.w3.org/1999/02/22-rdf-syntax-ns#"
   xmlns:svg="http://www.w3.org/2000/svg"
   xmlns="http://www.w3.org/2000/svg"
   xmlns:sodipodi="http://sodipodi.sourceforge.net/DTD/sodipodi-0.dtd"
   xmlns:inkscape="http://www.inkscape.org/namespaces/inkscape"
   version="1.1"
   id="Layer_1"
   x="0px"
   y="0px"
   viewBox="0 0 24 24"
   enable-background="new 0 0 24 24"
   xml:space="preserve"
   inkscape:version="0.91 r13725"
   sodipodi:docname="ic_license_cc.noflip.svg"><metadata
     id="metadata15"><rdf:RDF><cc:Work
         rdf:about=""><dc:format>image/svg+xml</dc:format><dc:type
           rdf:resource="http://purl.org/dc/dcmitype/StillImage" /></cc:Work></rdf:RDF></metadata><defs
     id="defs13" /><sodipodi:namedview
     pagecolor="#ffffff"
     bordercolor="#666666"
     borderopacity="1"
     objecttolerance="10"
     gridtolerance="10"
     guidetolerance="10"
     inkscape:pageopacity="0"
     inkscape:pageshadow="2"
     inkscape:window-width="1234"
     inkscape:window-height="781"
     id="namedview11"
     showgrid="false"
     inkscape:zoom="9.8333333"
     inkscape:cx="-16.372881"
     inkscape:cy="12"
     inkscape:window-x="500"
     inkscape:window-y="105"
     inkscape:window-maximized="0"
     inkscape:current-layer="Layer_1" /><g
     id="g3"
     style="fill:#aaaaaa;fill-opacity:1"
     transform="matrix(1.6828087,0,0,1.6828087,-8.1937046,-9.8934625)"><path
       d="m 12,6 c -3.9,0 -7,3.1 -7,7 0,3.9 3.1,7 7,7 3.9,0 7,-3.1 7,-7 0,-3.9 -3.1,-7 -7,-7 z m 0,13 C 8.7,19 6,16.3 6,13 6,9.7 8.7,7 12,7 c 3.3,0 6,2.7 6,6 0,3.3 -2.7,6 -6,6 z"
       id="path5"
       style="fill:#aaaaaa;fill-opacity:1"
       inkscape:connector-curvature="0" /><path
       d="m 10.3,14.4 c -0.7,0 -1,-0.4 -1,-1.2 0,-0.8 0.3,-1.2 1,-1.2 0.4,0 0.6,0.2 0.8,0.6 L 12,12.1 c -0.4,-0.7 -1,-1 -1.9,-1 -0.6,0 -1.1,0.2 -1.5,0.6 -0.4,0.4 -0.6,0.8 -0.6,1.5 0,0.7 0.2,1.2 0.6,1.6 0.4,0.4 0.9,0.6 1.5,0.6 0.8,0 1.4,-0.4 1.9,-1.1 l -0.9,-0.4 c -0.2,0.3 -0.5,0.5 -0.8,0.5 z"
       id="path7"
       style="fill:#aaaaaa;fill-opacity:1"
       inkscape:connector-curvature="0" /><path
       d="m 14.3,14.4 c -0.7,0 -1,-0.4 -1,-1.2 0,-0.8 0.3,-1.2 1,-1.2 0.4,0 0.6,0.2 0.8,0.6 L 16,12.1 c -0.4,-0.7 -1,-1 -1.9,-1 -0.6,0 -1.1,0.2 -1.5,0.6 -0.4,0.4 -0.6,0.8 -0.6,1.5 0,0.7 0.2,1.2 0.6,1.6 0.4,0.4 0.9,0.6 1.5,0.6 0.8,0 1.4,-0.4 1.9,-1.1 l -0.9,-0.4 c -0.2,0.3 -0.5,0.5 -0.8,0.5 z"
       id="path9"
       style="fill:#aaaaaa;fill-opacity:1"
       inkscape:connector-curvature="0" /></g></svg>