<?xml version="1.0" encoding="UTF-8" standalone="no"?>
<!-- Generator: Adobe Illustrator 18.1.1, SVG Export Plug-In . SVG Version: 6.00 Build 0)  -->

<svg
   xmlns:dc="http://purl.org/dc/elements/1.1/"
   xmlns:cc="http://creativecommons.org/ns#"
   xmlns:rdf="http://www.w3.org/1999/02/22-rdf-syntax-ns#"
   xmlns:svg="http://www.w3.org/2000/svg"
   xmlns="http://www.w3.org/2000/svg"
   xmlns:sodipodi="http://sodipodi.sourceforge.net/DTD/sodipodi-0.dtd"
   xmlns:inkscape="http://www.inkscape.org/namespaces/inkscape"
   version="1.1"
   id="Layer_1"
   x="0px"
   y="0px"
   viewBox="0 0 24 24"
   enable-background="new 0 0 24 24"
   xml:space="preserve"
   inkscape:version="0.91 r13725"
   sodipodi:docname="ic_license_pd.noflip.svg"><metadata
     id="metadata15"><rdf:RDF><cc:Work
         rdf:about=""><dc:format>image/svg+xml</dc:format><dc:type
           rdf:resource="http://purl.org/dc/dcmitype/StillImage" /></cc:Work></rdf:RDF></metadata><defs
     id="defs13" /><sodipodi:namedview
     pagecolor="#ffffff"
     bordercolor="#666666"
     borderopacity="1"
     objecttolerance="10"
     gridtolerance="10"
     guidetolerance="10"
     inkscape:pageopacity="0"
     inkscape:pageshadow="2"
     inkscape:window-width="1022"
     inkscape:window-height="625"
     id="namedview11"
     showgrid="false"
     inkscape:zoom="9.8333333"
     inkscape:cx="-15.634421"
     inkscape:cy="12"
     inkscape:window-x="0"
     inkscape:window-y="0"
     inkscape:window-maximized="0"
     inkscape:current-layer="Layer_1" /><g
     id="g3"
     style="fill:#aaaaaa;fill-opacity:1"
     transform="matrix(1.6828087,0,0,1.6828087,-8.1937046,-9.8934625)"><path
       d="M 15.7,15.3 C 15.9,14.9 16,14.4 16,14 l -1.7,0 1.4,1.3 z"
       id="path5"
       style="fill:#aaaaaa;fill-opacity:1"
       inkscape:connector-curvature="0" /><path
       d="M 15.5,10.5 C 14.4,8.5 11.6,7.9 9.7,9.3 l 1.2,1.2 c 1.3,-1 3.1,0 3.2,1.5 l 1.8,0 c 0,-0.6 -0.2,-1.3 -0.4,-1.5 -0.2,-0.4 0.2,0.4 0,0 z"
       id="path7"
       style="fill:#aaaaaa;fill-opacity:1"
       inkscape:connector-curvature="0" /><path
       d="m 12,6 c -3.9,0 -7,3.1 -7,7 0,3.9 3.1,7 7,7 3.9,0 7,-3.1 7,-7 C 19,9.1 15.9,6 12,6 Z M 6,13 C 6,11.8 6.4,10.7 7,9.8 l 1.4,1.4 C 7.8,12.9 8,15 9.3,16.4 c 1.2,1.2 3.3,1.5 4.9,0.7 l 1,1.1 c -0.9,0.6 -2,0.9 -3.1,0.9 C 8.7,19 6,16.3 6,13 Z m 3.9,-0.2 3,3.1 C 12,16.2 11,15.9 10.4,15.1 10,14.4 9.9,13.5 9.9,12.8 Z M 16.3,17.2 7.9,8.7 C 8.9,7.6 10.4,7 12,7 c 3.3,0 6,2.7 6,6 0,1.6 -0.7,3.1 -1.7,4.2 z"
       id="path9"
       style="fill:#aaaaaa;fill-opacity:1"
       inkscape:connector-curvature="0" /></g></svg>