<?xml version="1.0" encoding="UTF-8" standalone="no"?>
<svg
   xmlns:sketch="http://www.bohemiancoding.com/sketch/ns"
   xmlns:dc="http://purl.org/dc/elements/1.1/"
   xmlns:cc="http://creativecommons.org/ns#"
   xmlns:rdf="http://www.w3.org/1999/02/22-rdf-syntax-ns#"
   xmlns:svg="http://www.w3.org/2000/svg"
   xmlns="http://www.w3.org/2000/svg"
   xmlns:sodipodi="http://sodipodi.sourceforge.net/DTD/sodipodi-0.dtd"
   xmlns:inkscape="http://www.inkscape.org/namespaces/inkscape"
   width="24"
   height="24"
   viewBox="0 0 24 24"
   id="svg2"
   version="1.1"
   inkscape:version="0.91 r13725"
   sodipodi:docname="ic_map_marker.svg"
   inkscape:export-filename="E:\Desktop\ic_marker2.png"
   inkscape:export-xdpi="270"
   inkscape:export-ydpi="270">
  <metadata
     id="metadata12">
    <rdf:RDF>
      <cc:Work
         rdf:about="">
        <dc:format>image/svg+xml</dc:format>
        <dc:type
           rdf:resource="http://purl.org/dc/dcmitype/StillImage" />
        <dc:title></dc:title>
      </cc:Work>
    </rdf:RDF>
  </metadata>
  <defs
     id="defs10" />
  <sodipodi:namedview
     pagecolor="#ffffff"
     bordercolor="#666666"
     borderopacity="1"
     objecttolerance="10"
     gridtolerance="10"
     guidetolerance="10"
     inkscape:pageopacity="0"
     inkscape:pageshadow="2"
     inkscape:window-width="926"
     inkscape:window-height="602"
     id="namedview8"
     showgrid="false"
     inkscape:zoom="22.627417"
     inkscape:cx="12.591837"
     inkscape:cy="15.777341"
     inkscape:window-x="0"
     inkscape:window-y="0"
     inkscape:window-maximized="0"
     inkscape:current-layer="svg2" />
  <ellipse
     style="fill:#000000;fill-opacity:0.18823529"
     id="path4173"
     cx="12.059893"
     cy="22.050585"
     rx="6.878665"
     ry="1.8869154" />
  <path
     d="M 12.059892,0.09375 C 7.8112446,0.09375 4.375,3.1352702 4.375,7.7786421 c 0,5.7636689 7.684892,14.2719429 7.684892,14.2719429 0,0 7.684893,-8.508274 7.684893,-14.2719429 0,-4.7332129 -3.436245,-7.6848921 -7.684893,-7.6848921 z"
     id="path4"
     style="fill:#42a078;fill-opacity:1"
     inkscape:connector-curvature="0"
     sodipodi:nodetypes="sscss" />
  <path
     d="M0 0h24v24h-24z"
     fill="none"
     id="path6" />
  <g
     id="Page-1"
     sketch:type="MSPage"
     style="fill:#e6e6e6;fill-rule:evenodd;stroke:none;stroke-width:1"
     transform="matrix(0.38196458,0,0,0.38196458,5.0346715,5.1805554)">
    <g
       id="Logged-in"
       sketch:type="MSArtboardGroup"
       transform="translate(-31,-65)"
       style="fill:#e6e6e6">
      <g
         id="drawer-bg-+-account-switcher"
         sketch:type="MSLayerGroup"
         transform="translate(1,0)"
         style="fill:#e6e6e6">
        <g
           id="account-switcher"
           sketch:type="MSShapeGroup"
           style="fill:#e6e6e6" />
      </g>
    </g>
  </g>
  <g
     id="Page-1-0"
     sketch:type="MSPage"
     style="fill:#f2f2f2;fill-rule:evenodd;stroke:none;stroke-width:1"
     transform="matrix(0.34350928,0,0,0.34350928,5.852455,5.0919478)">
    <g
       id="Logged-in-9"
       sketch:type="MSArtboardGroup"
       transform="translate(-31,-65)"
       style="fill:#f2f2f2">
      <g
         id="drawer-bg-+-account-switcher-4"
         sketch:type="MSLayerGroup"
         transform="translate(1,0)"
         style="fill:#f2f2f2">
        <g
           id="account-switcher-3"
           sketch:type="MSShapeGroup"
           style="fill:#f2f2f2">
          <path
             inkscape:connector-curvature="0"
             d="m 65.834713,65.737521 c -0.07857,0.102054 -0.164974,0.15699 -0.26713,0.15699 -0.785635,0.0785 -1.437809,0.329618 -1.932731,0.761393 -0.502852,0.431671 -1.021356,1.255818 -1.555617,2.464519 L 53.916,87.486829 c -0.05499,0.172627 -0.204313,0.259045 -0.447861,0.259045 -0.196382,0 -0.337878,-0.08631 -0.447861,-0.259045 l -4.572626,-9.55212 -5.264035,9.559939 c -0.109982,0.172627 -0.259304,0.259044 -0.447861,0.259044 -0.235721,0 -0.392869,-0.08631 -0.463512,-0.259044 L 34.25833,69.128241 c -0.502852,-1.138128 -1.029286,-1.938716 -1.587026,-2.386024 -0.550017,-0.45523 -1.327826,-0.729911 -2.317774,-0.839783 -0.0864,0 -0.164974,-0.04712 -0.243547,-0.133431 C 30.031409,65.682689 30,65.572817 30,65.462945 c 0,-0.29824 0.0864,-0.447412 0.259304,-0.447412 0.714992,0 1.461392,0.03138 2.2392,0.09423 0.722818,0.06275 1.4064,0.09424 2.042713,0.09424 0.65207,0 1.422053,-0.03138 2.302018,-0.09424 0.92713,-0.06275 1.752104,-0.09423 2.466991,-0.09423 0.1728,0 0.259304,0.149172 0.259304,0.447412 0,0.298239 -0.05499,0.447411 -0.157147,0.447411 -0.714992,0.05494 -1.280661,0.235486 -1.689183,0.541544 -0.408522,0.306058 -0.612835,0.714275 -0.612835,1.216623 0,0.259044 0.0864,0.572921 0.259305,0.957578 l 6.623269,14.94431 3.763409,-7.09542 -3.504105,-7.338723 c -0.628591,-1.310755 -1.147095,-2.158461 -1.555617,-2.535196 -0.408522,-0.376735 -1.021356,-0.61222 -1.838504,-0.698534 -0.07857,0 -0.149322,-0.04712 -0.212139,-0.133431 -0.07075,-0.08631 -0.102157,-0.196186 -0.102157,-0.306058 0,-0.29824 0.07075,-0.447412 0.227896,-0.447412 0.714991,0 1.367061,0.03138 1.964243,0.09424 0.573496,0.06275 1.186331,0.09424 1.838505,0.09424 0.636417,0 1.312069,-0.03138 2.02706,-0.09424 0.738574,-0.06275 1.461392,-0.09424 2.176279,-0.09424 0.1728,0 0.259304,0.149172 0.259304,0.447412 0,0.29824 -0.04716,0.447412 -0.157148,0.447412 -1.429982,0.09424 -2.144869,0.502348 -2.144869,1.216622 0,0.321799 0.164974,0.816329 0.495026,1.483486 l 2.317774,4.701474 2.302017,-4.30118 c 0.322122,-0.604402 0.47927,-1.122387 0.47927,-1.538422 0,-0.981137 -0.714992,-1.499122 -2.14487,-1.569799 -0.133565,0 -0.196383,-0.149172 -0.196383,-0.447412 0,-0.109872 0.03141,-0.211926 0.09433,-0.306058 C 50.145078,65.054936 50.215826,65 50.278643,65 c 0.510679,0 1.13927,0.03138 1.88567,0.09424 0.714991,0.06276 1.304243,0.09424 1.759931,0.09424 0.329947,0 0.817147,-0.03138 1.45346,-0.0785 0.809218,-0.07068 1.4928,-0.109872 2.034887,-0.109872 0.125739,0 0.188557,0.125613 0.188557,0.384553 0,0.337539 -0.117809,0.510166 -0.353531,0.510166 -0.8328,0.08631 -1.500626,0.313981 -2.011304,0.690716 -0.510678,0.376735 -1.13927,1.216623 -1.893496,2.543014 l -3.072,5.674793 4.164105,8.468929 6.144,-14.277154 c 0.212139,-0.517984 0.322121,-1.004696 0.322121,-1.436367 0,-1.043892 -0.714991,-1.601176 -2.144869,-1.663931 -0.133565,0 -0.196383,-0.149172 -0.196383,-0.447412 0,-0.29824 0.09433,-0.447412 0.290713,-0.447412 0.518505,0 1.13927,0.03138 1.854157,0.09424 0.66,0.06276 1.217843,0.09424 1.6656,0.09424 0.471443,0 1.01353,-0.03138 1.634191,-0.09424 C 64.648696,65.031482 65.222296,65 65.732974,65 c 0.148904,-2.08e-4 0.219548,0.125405 0.219548,0.384345"
             id="Imported-Layers"
             style="fill:#f2f2f2"
             sodipodi:nodetypes="cccccscccsccccssscscsscssccccsccsscscsscscccscscscscsscsccccscsscsccc" />
        </g>
      </g>
    </g>
  </g>
</svg>
