<?xml version="1.0" encoding="UTF-8" standalone="no"?>
<!-- Generator: Adobe Illustrator 17.0.2, SVG Export Plug-In . SVG Version: 6.00 Build 0)  -->

<svg
   xmlns:dc="http://purl.org/dc/elements/1.1/"
   xmlns:cc="http://creativecommons.org/ns#"
   xmlns:rdf="http://www.w3.org/1999/02/22-rdf-syntax-ns#"
   xmlns:svg="http://www.w3.org/2000/svg"
   xmlns="http://www.w3.org/2000/svg"
   xmlns:sodipodi="http://sodipodi.sourceforge.net/DTD/sodipodi-0.dtd"
   xmlns:inkscape="http://www.inkscape.org/namespaces/inkscape"
   version="1.1"
   id="Layer_1"
   x="0px"
   y="0px"
   width="24px"
   height="24px"
   viewBox="0 0 24 24"
   enable-background="new 0 0 24 24"
   xml:space="preserve"
   inkscape:version="0.48.1 "
   sodipodi:docname="ic_today.svg"><metadata
   id="metadata52"><rdf:RDF><cc:Work
       rdf:about=""><dc:format>image/svg+xml</dc:format><dc:type
         rdf:resource="http://purl.org/dc/dcmitype/StillImage" /></cc:Work></rdf:RDF></metadata><defs
   id="defs50" /><sodipodi:namedview
   pagecolor="#ffffff"
   bordercolor="#666666"
   borderopacity="1"
   objecttolerance="10"
   gridtolerance="10"
   guidetolerance="10"
   inkscape:pageopacity="0"
   inkscape:pageshadow="2"
   inkscape:window-width="1196"
   inkscape:window-height="881"
   id="namedview48"
   showgrid="false"
   inkscape:zoom="12.125"
   inkscape:cx="12"
   inkscape:cy="17.517919"
   inkscape:window-x="0"
   inkscape:window-y="0"
   inkscape:window-maximized="0"
   inkscape:current-layer="sun" />
<g
   id="sun">
	<g
   id="g4"
   style="fill:#ffffff">
		<path
   d="M11.999,17.391c-2.939,0-5.39-2.452-5.39-5.391c0-2.972,2.418-5.391,5.391-5.391S17.391,9.027,17.391,12    s-2.418,5.391-5.39,5.391"
   id="path6"
   style="fill:#ffffff" />
	</g>
	<g
   id="g8"
   style="fill:#ffffff">
		<g
   id="g10"
   style="fill:#ffffff">
			<path
   d="M11.214,0.313h0.016c0.86,0,1.557,0.697,1.557,1.557v2.646h-1.572V0.313H11.214z"
   id="path12"
   style="fill:#ffffff" />
		</g>
		<g
   id="g14"
   style="fill:#ffffff">
			<path
   d="M11.214,19.485h1.572v4.202H12.77c-0.86,0-1.557-0.697-1.557-1.557L11.214,19.485L11.214,19.485z"
   id="path16"
   style="fill:#ffffff" />
		</g>
	</g>
	<g
   id="g18"
   style="fill:#ffffff">
		<g
   id="g20"
   style="fill:#ffffff">
			<path
   d="M19.694,3.18l0.011,0.011c0.608,0.608,0.608,1.593,0,2.201l-1.871,1.871l-1.112-1.112L19.694,3.18z"
   id="path22"
   style="fill:#ffffff" />
		</g>
		<g
   id="g24"
   style="fill:#ffffff">
			<path
   d="M6.137,16.737l1.112,1.112L4.278,20.82l-0.011-0.011c-0.608-0.608-0.608-1.593,0-2.201L6.137,16.737z"
   id="path26"
   style="fill:#ffffff" />
		</g>
	</g>
	<g
   id="g28"
   style="fill:#ffffff">
		<g
   id="g30"
   style="fill:#ffffff">
			<path
   d="M3.161,4.264l0.011-0.011c0.608-0.608,1.593-0.608,2.201,0l1.871,1.871L6.133,7.235L3.161,4.264z"
   id="path32"
   style="fill:#ffffff" />
		</g>
		<g
   id="g34"
   style="fill:#ffffff">
			<path
   d="M16.718,17.821l1.112-1.112l2.971,2.971l-0.011,0.011c-0.608,0.608-1.593,0.608-2.201,0L16.718,17.821z"
   id="path36"
   style="fill:#ffffff" />
		</g>
	</g>
	<g
   id="g38"
   style="fill:#ffffff">
		<g
   id="g40"
   style="fill:#ffffff">
			<path
   d="M1.869,11.214h2.645v1.572H0.313V12.77C0.313,11.911,1.01,11.214,1.869,11.214z"
   id="path42"
   style="fill:#ffffff" />
		</g>
		<g
   id="g44"
   style="fill:#ffffff">
			<path
   d="M19.485,11.214h4.202v0.016c0,0.86-0.697,1.557-1.557,1.557h-2.645V11.214z"
   id="path46"
   style="fill:#ffffff" />
		</g>
	</g>
</g>
</svg>