<?xml version="1.0" encoding="UTF-8" standalone="no"?>
<!-- Generator: Adobe Illustrator 17.0.2, SVG Export Plug-In . SVG Version: 6.00 Build 0)  -->

<svg
   xmlns:dc="http://purl.org/dc/elements/1.1/"
   xmlns:cc="http://creativecommons.org/ns#"
   xmlns:rdf="http://www.w3.org/1999/02/22-rdf-syntax-ns#"
   xmlns:svg="http://www.w3.org/2000/svg"
   xmlns="http://www.w3.org/2000/svg"
   xmlns:sodipodi="http://sodipodi.sourceforge.net/DTD/sodipodi-0.dtd"
   xmlns:inkscape="http://www.inkscape.org/namespaces/inkscape"
   version="1.1"
   x="0px"
   y="0px"
   width="512px"
   height="512px"
   viewBox="-206 -206 512 512"
   enable-background="new -206 -206 512 512"
   xml:space="preserve"
   id="svg2"
   inkscape:version="0.48.2 r9819"
   sodipodi:docname="ic_toc.svg"><metadata
   id="metadata18"><rdf:RDF><cc:Work
       rdf:about=""><dc:format>image/svg+xml</dc:format><dc:type
         rdf:resource="http://purl.org/dc/dcmitype/StillImage" /></cc:Work></rdf:RDF></metadata><defs
   id="defs16" /><sodipodi:namedview
   pagecolor="#ffffff"
   bordercolor="#666666"
   borderopacity="1"
   objecttolerance="10"
   gridtolerance="10"
   guidetolerance="10"
   inkscape:pageopacity="0"
   inkscape:pageshadow="2"
   inkscape:window-width="985"
   inkscape:window-height="787"
   id="namedview14"
   showgrid="false"
   inkscape:zoom="0.4609375"
   inkscape:cx="-128"
   inkscape:cy="256"
   inkscape:window-x="79"
   inkscape:window-y="0"
   inkscape:window-maximized="0"
   inkscape:current-layer="svg2" />
<g
   id="Layer_1">
</g>
<g
   id="TOC"
   style="fill:#adadad;fill-opacity:1">
	<g
   id="g6"
   style="fill:#adadad;fill-opacity:1">
		<path
   d="M34.896-5.246h74.815h13.958c12.208,0,19.859-7.604,19.859-18.599v-10.651l0.015-8.257H34.896h-0.75h-74.815h-13.958    c-12.208,0-19.859,7.604-19.859,18.599v10.651l-0.015,8.257H34.146H34.896z"
   id="path8"
   style="fill:#adadad;fill-opacity:1" />
		<path
   d="M-5.354,68.754h44.815h13.958c12.208,0,19.859-7.604,19.859-18.599V39.504l0.015-8.257H-5.354h-0.75h-34.815h-13.958    c-12.208,0-19.859,7.604-19.859,18.599v10.651l-0.015,8.257h68.647H-5.354z"
   id="path10"
   style="fill:#adadad;fill-opacity:1" />
		<path
   d="M35.021,105.246h-0.75h-74.815h-13.958c-12.208,0-19.859,7.604-19.859,18.599v10.651l-0.015,8.257H34.271h0.75h74.815    h13.958c12.208,0,19.859-7.604,19.859-18.599v-10.651l0.015-8.257H35.021z"
   id="path12"
   style="fill:#adadad;fill-opacity:1" />
	</g>
</g>
</svg>