<?xml version="1.0" encoding="UTF-8" standalone="no"?>
<!-- Generator: Adobe Illustrator 17.0.2, SVG Export Plug-In . SVG Version: 6.00 Build 0)  -->

<svg
   xmlns:dc="http://purl.org/dc/elements/1.1/"
   xmlns:cc="http://creativecommons.org/ns#"
   xmlns:rdf="http://www.w3.org/1999/02/22-rdf-syntax-ns#"
   xmlns:svg="http://www.w3.org/2000/svg"
   xmlns="http://www.w3.org/2000/svg"
   xmlns:sodipodi="http://sodipodi.sourceforge.net/DTD/sodipodi-0.dtd"
   xmlns:inkscape="http://www.inkscape.org/namespaces/inkscape"
   version="1.1"
   id="Layer_1"
   x="0px"
   y="0px"
   width="48"
   height="48"
   viewBox="0 0 48 48"
   enable-background="new 0 0 612 792"
   xml:space="preserve"
   inkscape:version="0.91 r"
   sodipodi:docname="messaging.svg"><metadata
     id="metadata3344"><rdf:RDF><cc:Work
         rdf:about=""><dc:format>image/svg+xml</dc:format><dc:type
           rdf:resource="http://purl.org/dc/dcmitype/StillImage" /><dc:title /></cc:Work></rdf:RDF></metadata><defs
     id="defs3342" /><sodipodi:namedview
     pagecolor="#ffffff"
     bordercolor="#666666"
     borderopacity="1"
     objecttolerance="10"
     gridtolerance="10"
     guidetolerance="10"
     inkscape:pageopacity="0"
     inkscape:pageshadow="2"
     inkscape:window-width="2880"
     inkscape:window-height="1697"
     id="namedview3340"
     showgrid="false"
     fit-margin-top="0"
     fit-margin-left="0"
     fit-margin-right="0"
     fit-margin-bottom="0"
     inkscape:zoom="26.970052"
     inkscape:cx="20.944042"
     inkscape:cy="24.056515"
     inkscape:window-x="0"
     inkscape:window-y="0"
     inkscape:window-maximized="1"
     inkscape:current-layer="Layer_1" /><path
     d="m 48,22.421296 c 0,11.521 -10.753,20.852 -24,20.852 -3.148,0 -6.136,-0.524 -8.895,-1.481 -3.846,2.105 -7.269,3.54 -11.854,4.44 -1.37,0.281 -1.916,0.253 -2.033,0.084 -0.136,-0.199 0.315,-0.591 0.713,-0.912 4.438,-3.466 5.18,-5.28 6.253,-7.313 -5.019,-3.801 -8.184,-9.417 -8.184,-15.67 0,-11.522 10.737,-20.8650005 24,-20.8650005 13.246,-0.001 24,9.3430005 24,20.8650005 z"
     id="path3338"
     inkscape:connector-curvature="0"
     style="fill:#e6e7e8" /></svg>