<?xml version="1.0" encoding="utf-8"?>
<!-- Generator: Adobe Illustrator 17.1.0, SVG Export Plug-In . SVG Version: 6.00 Build 0)  -->
<!DOCTYPE svg PUBLIC "-//W3C//DTD SVG 1.1//EN" "http://www.w3.org/Graphics/SVG/1.1/DTD/svg11.dtd">
<svg version="1.1" id="Layer_1" xmlns="http://www.w3.org/2000/svg" xmlns:xlink="http://www.w3.org/1999/xlink" x="0px" y="0px"
	 viewBox="0 0 96 96" enable-background="new 0 0 96 96" xml:space="preserve">
<path fill="#FFFFFF" d="M76.8,34.3V12.8H55.4C54.9,5.7,48.9,0,41.6,0c-7.3,0-13.3,5.7-13.8,12.8H6.4v21.4c0.3,0,1.7,0,2.1,0
	c7.6,0,12.9,5.2,12.9,12.8S16.1,61.9,8.5,61.9c-0.3,0-1.8,0-2.1,0v21.4h21.5C28.4,90.4,34.4,96,41.6,96c7.3,0,13.2-5.6,13.8-12.7
	h21.4V61.8C84,61.3,89.6,55.3,89.6,48S84,34.8,76.8,34.3z"/>
</svg>
