<?xml version="1.0" encoding="UTF-8" standalone="no"?>
<!-- Generator: Adobe Illustrator 17.0.2, SVG Export Plug-In . SVG Version: 6.00 Build 0)  -->

<svg
   xmlns:dc="http://purl.org/dc/elements/1.1/"
   xmlns:cc="http://creativecommons.org/ns#"
   xmlns:rdf="http://www.w3.org/1999/02/22-rdf-syntax-ns#"
   xmlns:svg="http://www.w3.org/2000/svg"
   xmlns="http://www.w3.org/2000/svg"
   xmlns:sodipodi="http://sodipodi.sourceforge.net/DTD/sodipodi-0.dtd"
   xmlns:inkscape="http://www.inkscape.org/namespaces/inkscape"
   version="1.1"
   id="Layer_1"
   x="0px"
   y="0px"
   width="48"
   height="48"
   viewBox="0 0 48 48"
   enable-background="new 0 0 612 792"
   xml:space="preserve"
   inkscape:version="0.91 r"
   sodipodi:docname="twitter.svg"><metadata
     id="metadata3353"><rdf:RDF><cc:Work
         rdf:about=""><dc:format>image/svg+xml</dc:format><dc:type
           rdf:resource="http://purl.org/dc/dcmitype/StillImage" /><dc:title /></cc:Work></rdf:RDF></metadata><defs
     id="defs3351" /><sodipodi:namedview
     pagecolor="#ffffff"
     bordercolor="#666666"
     borderopacity="1"
     objecttolerance="10"
     gridtolerance="10"
     guidetolerance="10"
     inkscape:pageopacity="0"
     inkscape:pageshadow="2"
     inkscape:window-width="2880"
     inkscape:window-height="1697"
     id="namedview3349"
     showgrid="false"
     fit-margin-top="0"
     fit-margin-left="0"
     fit-margin-right="0"
     fit-margin-bottom="0"
     inkscape:zoom="26.970052"
     inkscape:cx="20.595525"
     inkscape:cy="22.907083"
     inkscape:window-x="0"
     inkscape:window-y="0"
     inkscape:window-maximized="1"
     inkscape:current-layer="Layer_1" /><path
     d="m 48,9.0864999 c -1.767,0.803 -3.671,1.3310001 -5.644,1.5830001 2.019,-1.2160001 3.579,-3.1430001 4.314,-5.4610003 -1.904,1.1470002 -4.015,1.9500002 -6.241,2.4090002 -1.813,-1.973 -4.36,-3.1200002 -7.251,-3.1200002 -5.392,0 -9.797,4.4050002 -9.797,9.8430003 0,0.78 0.092,1.537 0.252,2.249 C 15.465,16.1765 8.191,12.2525 3.35,6.3104999 c -0.849,1.445 -1.331,3.143 -1.331,4.9330001 0,3.419 1.721,6.447 4.382,8.168 -1.629,0 -3.143,-0.459 -4.474,-1.147 0,0 0,0 0,0.069 0,4.772 3.396,8.765 7.893,9.66 -0.826,0.229 -1.698,0.344 -2.593,0.344 -0.62,0 -1.239,-0.069 -1.836,-0.184 1.239,3.878 4.841,6.769 9.178,6.837 -3.35,2.662 -7.595,4.222 -12.229,4.222 -0.78,0 -1.56,-0.046 -2.34,-0.138 4.359,2.799 9.545,4.428 15.098,4.428 18.08,0 28.015,-15.006 28.015,-28.015 0,-0.436 0,-0.849 -0.023,-1.285 1.927,-1.376 3.579,-3.12 4.91,-5.1160001 z"
     id="path3347"
     inkscape:connector-curvature="0"
     style="fill:#e6e7e8" /></svg>