<?xml version="1.0" encoding="utf-8"?>
<!-- Generator: Adobe Illustrator 16.0.4, SVG Export Plug-In . SVG Version: 6.00 Build 0)  -->
<!DOCTYPE svg PUBLIC "-//W3C//DTD SVG 1.1//EN" "http://www.w3.org/Graphics/SVG/1.1/DTD/svg11.dtd">
<svg version="1.1" id="Layer_1" xmlns="http://www.w3.org/2000/svg" xmlns:xlink="http://www.w3.org/1999/xlink" x="0px" y="0px"
	 width="32px" height="32px" viewBox="0 0 32 32" enable-background="new 0 0 32 32" xml:space="preserve">
<g>
	<path fill="#CCCCCC" d="M15.884,6.179l-3.004,3.003c-0.259,0.259-0.494,0.532-0.703,0.822c-0.046,0.061-0.09,0.128-0.134,0.189
		c1.452-0.391,2.993-0.37,4.431,0.07l0.248-0.245l1.653-1.656c1.454-1.453,3.811-1.453,5.263,0c1.45,1.455,1.45,3.807,0,5.261
		l-1.889,1.888L21.361,15.9l-0.377,0.378h-0.003l-0.629,0.632c-0.655,0.654-1.494,1.014-2.354,1.075v0.003l0,0
		c-0.181,0.017-0.334,0.017-0.467,0.011c-0.29-0.014-0.46-0.057-0.46-0.057l0,0l0,0c-0.724-0.13-1.419-0.473-1.979-1.032
		c-0.544-0.546-0.886-1.217-1.022-1.92c-0.004-0.021-0.007-0.04-0.008-0.062c-0.638,0.053-1.26,0.321-1.747,0.806l-0.999,1
		c0.343,0.868,0.863,1.684,1.563,2.386c0.704,0.702,1.517,1.223,2.384,1.565c0.161,0.065,0.321,0.12,0.485,0.173
		c0.135,0.042,0.273,0.081,0.413,0.114c0.008,0.003,0.017,0.005,0.026,0.008c0.027,0.008,0.052,0.01,0.077,0.017
		c1.437,0.33,2.961,0.206,4.339-0.381c0.166-0.073,0.333-0.148,0.498-0.236c0.01-0.005,0.017-0.008,0.026-0.013
		c0.028-0.015,0.056-0.03,0.083-0.047c0.068-0.035,0.139-0.073,0.207-0.113c0,0,0.002,0,0.003-0.003
		c0.498-0.296,0.966-0.656,1.397-1.084l3.001-3.004c2.743-2.742,2.743-7.192,0-9.937C23.075,3.436,18.626,3.434,15.884,6.179z"/>
	<path fill="#CCCCCC" d="M16.116,25.822l3.003-3.005c0.261-0.257,0.495-0.53,0.704-0.819c0.047-0.062,0.088-0.13,0.131-0.189
		c-1.448,0.391-2.989,0.367-4.43-0.07l-0.245,0.244l-1.657,1.654c-1.453,1.453-3.806,1.453-5.259,0c-1.452-1.452-1.452-3.808,0-5.26
		l1.887-1.887l0.39-0.389l0.377-0.378v-0.001l0.629-0.629c0.656-0.656,1.495-1.012,2.353-1.078v-0.001h0.003
		c0.179-0.017,0.334-0.018,0.464-0.012c0.29,0.013,0.459,0.058,0.459,0.058l0,0c0,0,0.003,0,0.004,0
		c0.723,0.129,1.419,0.473,1.979,1.032c0.545,0.545,0.885,1.217,1.021,1.918c0.006,0.022,0.008,0.042,0.013,0.062
		c0.636-0.052,1.258-0.319,1.744-0.807l1-0.999c-0.342-0.871-0.862-1.684-1.565-2.386c-0.702-0.702-1.517-1.224-2.385-1.567
		c-0.16-0.063-0.323-0.118-0.486-0.17c-0.136-0.042-0.273-0.083-0.413-0.116c-0.009-0.004-0.018-0.005-0.028-0.008
		c-0.023-0.006-0.049-0.013-0.073-0.017c-1.44-0.331-2.963-0.206-4.338,0.382c-0.167,0.071-0.337,0.149-0.501,0.233
		c-0.007,0.007-0.017,0.009-0.026,0.015c-0.028,0.018-0.053,0.031-0.082,0.046c-0.069,0.036-0.14,0.075-0.208,0.114
		c-0.002,0.003-0.002,0.003-0.002,0.003c-0.5,0.294-0.968,0.657-1.398,1.084l-3,3.003c-2.745,2.742-2.745,7.194,0,9.937
		C8.923,28.564,13.372,28.564,16.116,25.822z"/>
</g>
</svg>
