<?xml version="1.0" encoding="UTF-8" standalone="no"?>
<!-- Generator: Adobe Illustrator 18.0.0, SVG Export Plug-In . SVG Version: 6.00 Build 0)  -->

<svg
   xmlns:dc="http://purl.org/dc/elements/1.1/"
   xmlns:cc="http://creativecommons.org/ns#"
   xmlns:rdf="http://www.w3.org/1999/02/22-rdf-syntax-ns#"
   xmlns:svg="http://www.w3.org/2000/svg"
   xmlns="http://www.w3.org/2000/svg"
   xmlns:sodipodi="http://sodipodi.sourceforge.net/DTD/sodipodi-0.dtd"
   xmlns:inkscape="http://www.inkscape.org/namespaces/inkscape"
   version="1.1"
   id="Layer_1"
   x="0px"
   y="0px"
   viewBox="0 0 256 256"
   enable-background="new 0 0 851 315"
   xml:space="preserve"
   inkscape:version="0.48.1 "
   width="100%"
   height="100%"
   sodipodi:docname="recent.svg"><metadata
   id="metadata11"><rdf:RDF><cc:Work
       rdf:about=""><dc:format>image/svg+xml</dc:format><dc:type
         rdf:resource="http://purl.org/dc/dcmitype/StillImage" /></cc:Work></rdf:RDF></metadata><defs
   id="defs9" /><sodipodi:namedview
   pagecolor="#ffffff"
   bordercolor="#666666"
   borderopacity="1"
   objecttolerance="10"
   gridtolerance="10"
   guidetolerance="10"
   inkscape:pageopacity="0"
   inkscape:pageshadow="2"
   inkscape:window-width="1089"
   inkscape:window-height="831"
   id="namedview7"
   showgrid="false"
   inkscape:zoom="1.1280846"
   inkscape:cx="283.40305"
   inkscape:cy="23.537682"
   inkscape:window-x="492"
   inkscape:window-y="120"
   inkscape:window-maximized="0"
   inkscape:current-layer="Layer_1" />
<g
   id="g3"
   transform="matrix(0.95389805,0,0,0.95389805,-277.28326,-24.106605)">
	<path
   d="m 548.7,121.8 c -15.1,-0.8 -23.9,-3 -44,-4 -29.9,-1.5 -43.1,1.9 -54.5,7 -7.3,3.2 -16,11.6 -24.7,12.6 v 0 c -8.6,-1.2 -17.2,-9.4 -24.3,-12.5 -11.4,-5.1 -24.6,-8.5 -54.5,-7 -20.1,1 -30.2,3.2 -44,4 0,0 -1.8,6.6 -0.5,11.5 1.2,4.7 4.1,6.3 6.1,13.1 1.9,6.2 3.5,17.4 11.4,31.5 9.3,16.6 24.6,20.7 41.7,21.2 12.7,0.4 21,-1.3 30,-7.1 8.4,-5.4 11.5,-11.8 14.9,-20.1 2,-4.7 3.9,-9.6 6.4,-14.1 2.5,-4.4 6,-8.6 11.1,-9.9 0.6,-0.1 1.1,-0.1 1.6,-0.2 v 0 c 0.7,0.1 1.3,0 2,0.2 5.1,1.3 8.6,5.5 11.1,9.9 2.5,4.4 4.5,9.3 6.4,14.1 3.4,8.3 6.5,14.6 14.9,20.1 9,5.8 17.3,7.5 30,7.1 17.1,-0.5 32.3,-4.5 41.7,-21.2 7.9,-14.1 9.6,-25.3 11.4,-31.5 2,-6.8 5,-8.4 6.1,-13.1 1.5,-5 -0.3,-11.6 -0.3,-11.6 z m -146.3,41.5 c -2.4,8.9 -5.9,19.1 -14.1,24.4 -7.1,4.6 -15.5,5.9 -23.8,6 -0.3,0 -0.5,0 -0.8,0 -10.7,0 -23.3,-2 -31.4,-9.5 -6.9,-6.3 -12,-15.7 -14.3,-24.7 -1.9,-7.6 -3.2,-17.5 0.7,-24.6 3.5,-6.4 20.2,-8.8 28.8,-9.3 17.2,-1 46.5,0 54.9,11 6,8 2.6,17.1 0,26.7 z m 131,-3.8 c -2.3,9.1 -7.4,18.4 -14.3,24.7 -8.1,7.5 -20.8,9.5 -31.4,9.5 -0.2,0 -0.5,0 -0.8,0 -8.3,-0.1 -16.7,-1.4 -23.8,-6 -8.2,-5.3 -11.6,-15.4 -14.1,-24.4 -2.6,-9.6 -6,-18.7 0.1,-26.6 8.4,-11.1 37.7,-12 54.9,-11 8.5,0.5 25.2,2.9 28.8,9.3 3.8,7 2.5,16.9 0.6,24.5 z"
   id="path5"
   inkscape:connector-curvature="0" />
</g>
</svg>