<?xml version="1.0" encoding="utf-8"?>
<!-- Generator: Adobe Illustrator 17.0.2, SVG Export Plug-In . SVG Version: 6.00 Build 0)  -->
<!DOCTYPE svg PUBLIC "-//W3C//DTD SVG 1.1//EN" "http://www.w3.org/Graphics/SVG/1.1/DTD/svg11.dtd">
<svg version="1.1" id="Layer_1" xmlns="http://www.w3.org/2000/svg" xmlns:xlink="http://www.w3.org/1999/xlink" x="0px" y="0px"
	 width="225px" height="220.731px" viewBox="0 0 225 220.731" enable-background="new 0 0 225 220.731" xml:space="preserve">
<g>
	<path fill="#33B5E5" d="M98.217,220.724c-8.397,0-16.795,0.012-25.192-0.003c-12.862-0.022-21.286-7.354-23.042-20.158
		c-2.833-20.653-5.69-41.303-8.37-61.976c-1.406-10.847,3.398-19.008,13.541-23.484c14.758-6.512,29.53-12.997,44.364-19.334
		c2.427-1.037,3.378-2.291,3.569-4.953c1.875-26.132,3.934-52.251,5.868-78.378c0.612-8.263,5.625-13.237,12.714-12.332
		c5.373,0.686,9.257,4.933,9.503,10.698c1.003,23.514,1.958,47.029,2.894,70.546c0.602,15.127,1.118,30.257,1.716,45.384
		c0.23,5.825,2.859,9.878,7.474,11.267c5.195,1.564,9.387-0.1,12.897-4.2c6.287-7.344,12.661-14.618,19.139-21.794
		c3.529-3.911,8.805-4.794,13.239-2.604c4.249,2.099,6.66,6.556,5.848,11.376c-0.286,1.701-1.051,3.4-1.92,4.914
		c-15.943,27.778-31.933,55.529-47.918,83.284c-4.518,7.845-11.279,11.792-20.368,11.755
		C115.521,220.696,106.869,220.724,98.217,220.724z"/>
	<path fill="#33B5E5" d="M49.319,32.776c8.549-2.278,16.604-4.543,24.723-6.547c5.526-1.364,6.631-0.3,6.392,5.289
		c-0.233,5.464-0.566,10.929-0.587,16.395c-0.013,3.335-1.177,5.006-4.609,5.759c-5.555,1.218-10.981,3.019-16.865,4.688
		c1.154,3.428,2.204,6.5,3.222,9.583c1.397,4.23,0.166,5.882-4.182,5.3c-13.477-1.806-26.942-3.706-40.411-5.576
		c-4.532-0.629-9.077-1.179-13.58-1.974c-1.229-0.217-2.92-0.943-3.311-1.887c-0.381-0.917,0.27-2.77,1.088-3.602
		C14.033,47.134,26.942,34.139,39.9,21.193c2.572-2.57,4.67-1.985,5.948,1.482C47.071,25.996,48.155,29.369,49.319,32.776z"/>
	<path fill="#33B5E5" d="M157.189,24.553c8.199,2.245,16.463,4.28,24.583,6.782c14.018,4.318,27.266,10.447,39.918,17.858
		c4.102,2.402,4.253,3.384,1.215,6.944c-3.799,4.451-7.68,8.834-11.384,13.363c-1.868,2.284-3.617,2.594-6.221,1.087
		c-14.509-8.396-29.977-14.389-46.363-17.955c-2.61-0.568-3.95-1.868-4.059-4.637c-0.256-6.482-0.628-12.96-1.045-19.434
		C153.676,26.136,154.607,24.948,157.189,24.553z"/>
</g>
</svg>
